<svg width="475" height="380" viewBox="0 0 475 380" fill="none" xmlns="http://www.w3.org/2000/svg">
<path d="M114.32 131.93L179.49 94.0801" stroke="#5100CD" stroke-linecap="round" stroke-linejoin="round"/>
<path d="M98.4302 123.83L163.6 85.9805" stroke="#5100CD" stroke-linecap="round" stroke-linejoin="round"/>
<path d="M124.03 111.97V109.04L126.83 107.42V110.37L124.03 111.98V111.97Z" fill="#5100CD" stroke="#5100CD" stroke-linecap="round" stroke-linejoin="round"/>
<path d="M121.23 110.3V107.41L124.04 109.03V111.96L121.23 110.3Z" fill="#F5EDFF" stroke="#5100CD" stroke-linecap="round" stroke-linejoin="round"/>
<path d="M124.03 109.04L126.83 107.42L124.03 105.75L121.22 107.42L124.03 109.04Z" fill="#F5EDFF" stroke="#5100CD" stroke-linecap="round" stroke-linejoin="round"/>
<path d="M160.43 108.021V105.091L163.23 103.471V106.421L160.43 108.031V108.021Z" fill="#5100CD" stroke="#5100CD" stroke-linecap="round" stroke-linejoin="round"/>
<path d="M157.63 106.361V103.471L160.44 105.091V108.021L157.63 106.361Z" fill="#F5EDFF" stroke="#5100CD" stroke-linecap="round" stroke-linejoin="round"/>
<path d="M160.43 105.091L163.23 103.471L160.43 101.801L157.62 103.471L160.43 105.091Z" fill="#F5EDFF" stroke="#5100CD" stroke-linecap="round" stroke-linejoin="round"/>
<path d="M211.26 328.621L122.95 277.341" stroke="#5100CD" stroke-linecap="round" stroke-linejoin="round"/>
<path d="M147.03 345.131L116.11 327.181" stroke="#5100CD" stroke-linecap="round" stroke-linejoin="round"/>
<path d="M373.6 311.011L312.61 275.591" stroke="#5100CD" stroke-linecap="round" stroke-linejoin="round"/>
<path d="M246.65 313.78L413.16 217.07" stroke="#5100CD" stroke-linecap="round" stroke-linejoin="round"/>
<path d="M113.62 325.13L159.22 298.65" stroke="#5100CD" stroke-linecap="round" stroke-linejoin="round"/>
<path d="M142.86 344.82L214.32 303.32" stroke="#5100CD" stroke-linecap="round" stroke-linejoin="round"/>
<path d="M159.21 298.46L162.59 296.49L159.21 294.49L155.83 296.49L159.21 298.46Z" fill="#F5EDFF" stroke="#5100CD" stroke-linecap="round" stroke-linejoin="round"/>
<path d="M159.21 302V298.46L162.59 296.49V300.06L159.21 302.01V302Z" fill="#5100CD" stroke="#5100CD" stroke-linecap="round" stroke-linejoin="round"/>
<path d="M155.83 299.99V296.49L159.21 298.46V302L155.83 299.99Z" fill="#F5EDFF" stroke="#5100CD" stroke-linecap="round" stroke-linejoin="round"/>
<path d="M114.91 325.75L118.29 323.78L114.91 321.78L111.53 323.78L114.91 325.75Z" fill="#F5EDFF" stroke="#5100CD" stroke-linecap="round" stroke-linejoin="round"/>
<path d="M114.91 329.29V325.75L118.29 323.78V327.35L114.91 329.3V329.29Z" fill="#5100CD" stroke="#5100CD" stroke-linecap="round" stroke-linejoin="round"/>
<path d="M111.53 327.28V323.78L114.91 325.75V329.29L111.53 327.28Z" fill="#F5EDFF" stroke="#5100CD" stroke-linecap="round" stroke-linejoin="round"/>
<path d="M160.9 333.01L164.28 331.04L160.9 329.04L157.52 331.04L160.9 333.01Z" fill="#F5EDFF" stroke="#5100CD" stroke-linecap="round" stroke-linejoin="round"/>
<path d="M160.9 336.55V333.01L164.28 331.04V334.61L160.9 336.56V336.55Z" fill="#5100CD" stroke="#5100CD" stroke-linecap="round" stroke-linejoin="round"/>
<path d="M157.52 334.54V331.04L160.9 333.01V336.55L157.52 334.54Z" fill="#F5EDFF" stroke="#5100CD" stroke-linecap="round" stroke-linejoin="round"/>
<path d="M275.37 297.22V195.49" stroke="#5100CD" stroke-linecap="round" stroke-linejoin="round"/>
<path d="M364.5 245.27V196.03" stroke="#5100CD" stroke-linecap="round" stroke-linejoin="round"/>
<path d="M413.16 216.89V92.6904" stroke="#5100CD" stroke-linecap="round" stroke-linejoin="round"/>
<path d="M275.37 297.22L278.75 295.25L275.37 293.25L271.99 295.25L275.37 297.22Z" fill="#F5EDFF" stroke="#5100CD" stroke-linecap="round" stroke-linejoin="round"/>
<path d="M275.37 300.76V297.22L278.75 295.25V298.82L275.37 300.77V300.76Z" fill="#5100CD" stroke="#5100CD" stroke-linecap="round" stroke-linejoin="round"/>
<path d="M271.99 298.75V295.25L275.37 297.22V300.76L271.99 298.75Z" fill="#F5EDFF" stroke="#5100CD" stroke-linecap="round" stroke-linejoin="round"/>
<path d="M275.37 260.191L278.75 258.221L275.37 256.221L271.99 258.221L275.37 260.191Z" fill="#F5EDFF" stroke="#5100CD" stroke-linecap="round" stroke-linejoin="round"/>
<path d="M275.37 263.74V260.2L278.75 258.23V261.8L275.37 263.75V263.74Z" fill="#5100CD" stroke="#5100CD" stroke-linecap="round" stroke-linejoin="round"/>
<path d="M271.99 261.73V258.23L275.37 260.2V263.74L271.99 261.73Z" fill="#F5EDFF" stroke="#5100CD" stroke-linecap="round" stroke-linejoin="round"/>
<path d="M312.61 275.811L315.99 273.841L312.61 271.841L309.23 273.841L312.61 275.811Z" fill="#F5EDFF" stroke="#5100CD" stroke-linecap="round" stroke-linejoin="round"/>
<path d="M312.61 279.351V275.811L315.99 273.841V277.411L312.61 279.361V279.351Z" fill="#5100CD" stroke="#5100CD" stroke-linecap="round" stroke-linejoin="round"/>
<path d="M309.23 277.341V273.841L312.61 275.811V279.351L309.23 277.341Z" fill="#F5EDFF" stroke="#5100CD" stroke-linecap="round" stroke-linejoin="round"/>
<path d="M364.5 245.271L367.88 243.301L364.5 241.301L361.12 243.301L364.5 245.271Z" fill="#F5EDFF" stroke="#5100CD" stroke-linecap="round" stroke-linejoin="round"/>
<path d="M364.5 248.811V245.271L367.88 243.301V246.871L364.5 248.821V248.811Z" fill="#5100CD" stroke="#5100CD" stroke-linecap="round" stroke-linejoin="round"/>
<path d="M361.12 246.801V243.301L364.5 245.271V248.811L361.12 246.801Z" fill="#F5EDFF" stroke="#5100CD" stroke-linecap="round" stroke-linejoin="round"/>
<path d="M413.16 216.59L416.54 214.62L413.16 212.62L409.78 214.62L413.16 216.59Z" fill="#F5EDFF" stroke="#5100CD" stroke-linecap="round" stroke-linejoin="round"/>
<path d="M413.16 220.13V216.59L416.54 214.62V218.19L413.16 220.14V220.13Z" fill="#5100CD" stroke="#5100CD" stroke-linecap="round" stroke-linejoin="round"/>
<path d="M409.78 218.12V214.62L413.16 216.59V220.13L409.78 218.12Z" fill="#F5EDFF" stroke="#5100CD" stroke-linecap="round" stroke-linejoin="round"/>
<path d="M413.16 165.441L416.54 163.471L413.16 161.471L409.78 163.471L413.16 165.441Z" fill="#F5EDFF" stroke="#5100CD" stroke-linecap="round" stroke-linejoin="round"/>
<path d="M413.16 168.99V165.45L416.54 163.48V167.05L413.16 169V168.99Z" fill="#5100CD" stroke="#5100CD" stroke-linecap="round" stroke-linejoin="round"/>
<path d="M409.78 166.971V163.471L413.16 165.441V168.981L409.78 166.971Z" fill="#F5EDFF" stroke="#5100CD" stroke-linecap="round" stroke-linejoin="round"/>
<path d="M53.5801 207.58V222.91V238.24L68.9101 229.33V214V198.67L53.5801 207.58Z" fill="#DBC8F6" stroke="#5100CD" stroke-linecap="round" stroke-linejoin="round"/>
<path d="M38.25 183.34L53.58 174.43L114.91 210.06L99.58 218.96L38.25 183.34Z" fill="#F5EDFF" stroke="#5100CD" stroke-linecap="round" stroke-linejoin="round"/>
<path d="M84.2402 133.4L99.5802 124.49V139.82L84.2402 148.73V133.4Z" fill="#DBC8F6" stroke="#5100CD" stroke-linecap="round" stroke-linejoin="round"/>
<path d="M99.58 172.971L84.24 164.061L68.91 155.161L53.58 146.251L38.25 137.351V152.681L53.58 161.581L68.91 170.491L84.24 179.391L99.58 188.301V203.631V218.961L84.24 210.061L68.91 201.151L53.58 192.251L38.25 183.341V198.671V214.001V229.331V244.671L53.58 253.571L68.91 262.481L84.24 271.381L99.58 280.291L114.91 289.191V273.861L99.58 264.961L84.24 256.051L68.91 247.151L53.58 238.241V222.911V207.581L68.91 216.481L84.24 225.391L99.58 234.291L114.91 243.201V227.871V212.541V197.201V181.871L99.58 172.971Z" fill="#F5EDFF" stroke="#5100CD" stroke-linecap="round" stroke-linejoin="round"/>
<path d="M130.24 144.78L114.91 135.88L99.5802 126.97L84.2402 118.07L68.9102 109.16V124.49V139.82L84.2402 148.73V133.4L99.5802 142.3L114.91 151.21L130.24 160.11L145.57 169.02V153.69L130.24 144.78Z" fill="#F5EDFF" stroke="#5100CD" stroke-linecap="round" stroke-linejoin="round"/>
<path d="M145.57 169.02V153.69L160.9 144.78V160.11L145.57 169.02Z" fill="#DBC8F6" stroke="#5100CD" stroke-linecap="round" stroke-linejoin="round"/>
<path d="M130.24 190.78V206.11V221.44V236.77V252.1L145.57 261.01V245.68V230.35V215.01V199.68L130.24 190.78Z" fill="#F5EDFF" stroke="#5100CD" stroke-linecap="round" stroke-linejoin="round"/>
<path d="M145.57 199.68V215.01V230.35V245.68V261.01L160.9 252.1V236.77V221.44V206.11V190.78L145.57 199.68Z" fill="#DBC8F6" stroke="#5100CD" stroke-linecap="round" stroke-linejoin="round"/>
<path d="M114.91 181.87V197.2V212.54V227.87V243.2L130.24 234.29V218.96V203.63V188.3V172.97L114.91 181.87Z" fill="#DBC8F6" stroke="#5100CD" stroke-linecap="round" stroke-linejoin="round"/>
<path d="M114.91 273.86L130.24 264.96V280.29L114.91 289.19V273.86Z" fill="#DBC8F6" stroke="#5100CD" stroke-linecap="round" stroke-linejoin="round"/>
<path d="M160.9 190.78L145.57 181.87L130.24 190.78L145.57 199.68L160.9 190.78Z" fill="#F5EDFF" stroke="#5100CD" stroke-linecap="round" stroke-linejoin="round"/>
<path d="M68.9102 109.16L84.2402 100.26L160.9 144.78L145.57 153.69L68.9102 109.16Z" fill="#F5EDFF" stroke="#5100CD" stroke-linecap="round" stroke-linejoin="round"/>
<path d="M38.25 137.349L53.58 128.439L130.24 172.969L114.91 181.869L38.25 137.349Z" fill="#F5EDFF" stroke="#5100CD" stroke-linecap="round" stroke-linejoin="round"/>
<path d="M53.5801 238.24L68.9101 229.33L130.24 264.96L114.91 273.86L53.5801 238.24Z" fill="#F5EDFF" stroke="#5100CD" stroke-linecap="round" stroke-linejoin="round"/>
<path d="M413.47 70.71V124.87L448.23 105.76L413.47 70.72V70.71Z" fill="#F5EDFF" stroke="#5100CD" stroke-linecap="round" stroke-linejoin="round"/>
<path d="M413.47 140.78V124.86L448.23 105.75L413.47 140.78Z" fill="#DBC8F6" stroke="#5100CD" stroke-linecap="round" stroke-linejoin="round"/>
<path d="M413.47 70.71V124.87L378.71 105.76L413.47 70.72V70.71Z" fill="#F5EDFF" stroke="#5100CD" stroke-linecap="round" stroke-linejoin="round"/>
<path d="M413.47 140.78V124.86L378.71 105.75L413.47 140.78Z" fill="#F5EDFF" stroke="#5100CD" stroke-linecap="round" stroke-linejoin="round"/>
<path d="M364.5 189.02C376.672 189.02 386.54 183.173 386.54 175.96C386.54 168.748 376.672 162.9 364.5 162.9C352.328 162.9 342.46 168.748 342.46 175.96C342.46 183.173 352.328 189.02 364.5 189.02Z" fill="#F5EDFF" stroke="#5100CD" stroke-linecap="round" stroke-linejoin="round"/>
<path d="M343.6 180.101L359.06 210.491C359.56 211.801 361.38 212.821 363.66 213.021L360.19 188.771C352.39 187.851 346.08 184.501 343.6 180.101Z" fill="#F5EDFF" stroke="#5100CD" stroke-linecap="round" stroke-linejoin="round"/>
<path d="M364.5 189.021C363.02 189.021 361.58 188.931 360.19 188.771L363.66 213.021C363.93 213.041 364.21 213.061 364.5 213.061C364.93 213.061 365.35 213.031 365.76 212.971V188.991C365.34 189.001 364.92 189.01 364.5 189.01V189.021Z" fill="#DBC8F6" stroke="#5100CD" stroke-linecap="round" stroke-linejoin="round"/>
<path d="M371.77 188.29C370.61 188.53 369.41 188.72 368.17 188.84C367.38 188.92 366.57 188.97 365.75 189V212.98C366.45 212.88 367.1 212.71 367.66 212.48C367.84 212.4 368.02 212.32 368.18 212.23C368.34 212.14 368.5 212.05 368.65 211.96L373.74 187.82C373.09 188 372.43 188.16 371.76 188.3L371.77 188.29Z" fill="#F5EDFF" stroke="#5100CD" stroke-linecap="round" stroke-linejoin="round"/>
<path d="M381.18 184.49C379.14 185.89 376.61 187.03 373.75 187.82L368.66 211.96C369.3 211.53 369.76 211.01 369.96 210.43L371.88 206.66L385.4 180.11C384.48 181.74 383.04 183.22 381.18 184.49Z" fill="#DBC8F6" stroke="#5100CD" stroke-linecap="round" stroke-linejoin="round"/>
<path d="M252.04 329.421L248.74 327.501L252.04 325.541L255.34 327.501L252.04 329.421Z" fill="#F5EDFF" stroke="#5100CD" stroke-linecap="round" stroke-linejoin="round"/>
<path d="M243.22 334.531L239.92 332.611L243.22 330.641L246.52 332.611L243.22 334.531Z" fill="#F5EDFF" stroke="#5100CD" stroke-linecap="round" stroke-linejoin="round"/>
<path d="M234.39 339.641L231.09 337.721L234.39 335.761L237.69 337.721L234.39 339.641Z" fill="#F5EDFF" stroke="#5100CD" stroke-linecap="round" stroke-linejoin="round"/>
<path d="M225.57 344.75L222.27 342.83L225.57 340.86L228.87 342.83L225.57 344.75Z" fill="#F5EDFF" stroke="#5100CD" stroke-linecap="round" stroke-linejoin="round"/>
<path d="M173.07 329.421L176.37 327.501L173.07 325.541L169.77 327.501L173.07 329.421Z" fill="#F5EDFF" stroke="#5100CD" stroke-linecap="round" stroke-linejoin="round"/>
<path d="M181.89 334.531L185.19 332.611L181.89 330.641L178.59 332.611L181.89 334.531Z" fill="#F5EDFF" stroke="#5100CD" stroke-linecap="round" stroke-linejoin="round"/>
<path d="M190.72 339.641L194.02 337.721L190.72 335.761L187.42 337.721L190.72 339.641Z" fill="#F5EDFF" stroke="#5100CD" stroke-linecap="round" stroke-linejoin="round"/>
<path d="M199.55 344.75L202.85 342.83L199.55 340.86L196.25 342.83L199.55 344.75Z" fill="#F5EDFF" stroke="#5100CD" stroke-linecap="round" stroke-linejoin="round"/>
<path d="M212.56 344.481L258.01 318.071L212.56 291.051L167.11 318.071L212.56 344.481Z" fill="#F5EDFF" stroke="#5100CD" stroke-linecap="round" stroke-linejoin="round"/>
<path d="M258 318.07V321.85L212.55 348.26V344.49L258 318.08V318.07Z" fill="#DBC8F6" stroke="#5100CD" stroke-linecap="round" stroke-linejoin="round"/>
<path d="M167.11 318.07V321.85L212.56 348.26V344.49L167.11 318.08V318.07Z" fill="#F5EDFF" stroke="#5100CD" stroke-linecap="round" stroke-linejoin="round"/>
<path d="M212.56 311L235.85 297.46L212.56 283.61L189.26 297.46L212.56 311Z" fill="#F5EDFF" stroke="#5100CD" stroke-linecap="round" stroke-linejoin="round"/>
<path d="M212.56 311L212.39 311.3C212.5 311.36 212.63 311.36 212.73 311.3L212.56 311ZM235.85 297.46L236.02 297.76C236.12 297.7 236.19 297.59 236.19 297.47C236.19 297.35 236.13 297.24 236.02 297.17L235.85 297.46ZM189.26 297.46L189.09 297.17C188.99 297.23 188.92 297.34 188.92 297.47C188.92 297.59 188.98 297.7 189.09 297.76L189.26 297.46ZM212.56 283.61L212.73 283.32C212.62 283.26 212.49 283.26 212.38 283.32L212.55 283.61H212.56ZM202.92 297.37L202.75 297.08C202.65 297.14 202.58 297.25 202.58 297.38C202.58 297.5 202.64 297.61 202.75 297.67L202.92 297.37ZM212.57 291.63H212.91C212.91 291.51 212.84 291.39 212.74 291.33C212.63 291.27 212.5 291.27 212.4 291.33L212.57 291.62V291.63ZM212.57 291.63H212.23C212.23 291.75 212.29 291.86 212.4 291.92L212.57 291.63ZM222.21 297.36L222.38 297.66C222.49 297.6 222.55 297.49 222.55 297.37C222.55 297.25 222.49 297.14 222.38 297.07L222.21 297.36ZM212.56 302.97L212.39 303.27C212.5 303.33 212.63 303.33 212.73 303.27L212.56 302.97ZM212.73 311.29L236.02 297.75L235.68 297.16L212.39 310.7L212.73 311.29ZM189.09 297.75L212.39 311.29L212.73 310.7L189.43 297.16L189.09 297.75ZM212.38 283.31L189.08 297.16L189.43 297.75L212.73 283.9L212.38 283.31ZM236.02 297.16L212.73 283.31L212.38 283.9L235.67 297.75L236.02 297.16ZM202.74 297.65L204.75 298.82L205.09 298.23L203.08 297.06L202.74 297.65ZM212.38 291.32L202.74 297.06L203.09 297.65L212.73 291.91L212.38 291.32ZM222.38 297.06L212.74 291.33L212.39 291.92L222.03 297.65L222.38 297.06ZM220.37 298.82L222.38 297.65L222.04 297.06L220.03 298.23L220.37 298.82ZM212.73 303.26L220.37 298.82L220.03 298.23L212.39 302.67L212.73 303.26ZM204.75 298.82L212.39 303.26L212.73 302.67L205.09 298.23L204.75 298.82Z" fill="#5100CD"/>
<path d="M202.91 297.371L204.92 298.541C207.44 297.041 212.56 294.001 212.56 294.001V291.641L202.92 297.381L202.91 297.371Z" fill="#DBC8F6" stroke="#5100CD" stroke-linecap="round" stroke-linejoin="round"/>
<path d="M212.56 291.641V294.001L220.2 298.541L222.21 297.371L212.57 291.641H212.56Z" stroke="#5100CD" stroke-linecap="round" stroke-linejoin="round"/>
<path d="M220.19 298.541L212.55 294.001C212.55 294.001 207.43 297.051 204.91 298.541L212.55 302.981L220.19 298.541Z" stroke="#5100CD" stroke-linecap="round" stroke-linejoin="round"/>
<path d="M235.85 297.471V317.271L212.56 330.811V311.011L235.85 297.471Z" fill="#DBC8F6" stroke="#5100CD" stroke-linecap="round" stroke-linejoin="round"/>
<path d="M189.26 297.471L212.56 311.011V330.811L189.26 317.271V297.471Z" fill="#F5EDFF" stroke="#5100CD" stroke-linecap="round" stroke-linejoin="round"/>
<path d="M207.54 289.361V294.371L212.55 291.471V286.461L207.54 289.361Z" fill="#F5EDFF" stroke="#5100CD" stroke-linecap="round" stroke-linejoin="round"/>
<path d="M217.58 289.361V294.371L212.56 291.471V286.461L217.58 289.361Z" fill="#F5EDFF" stroke="#5100CD" stroke-linecap="round" stroke-linejoin="round"/>
<path d="M212.56 297.251V292.241L207.55 289.341V294.351L212.56 297.251Z" fill="#F5EDFF" stroke="#5100CD" stroke-linecap="round" stroke-linejoin="round"/>
<path d="M212.56 297.251V292.241L217.57 289.341V294.351L212.56 297.251Z" fill="#DBC8F6" stroke="#5100CD" stroke-linecap="round" stroke-linejoin="round"/>
<path d="M207.54 289.341L212.55 286.461L217.56 289.341L212.55 292.241L207.54 289.341Z" fill="#F5EDFF" stroke="#5100CD" stroke-linecap="round" stroke-linejoin="round"/>
<path d="M207.54 274.14V279.15L212.55 276.25V271.24L207.54 274.14Z" fill="#F5EDFF" stroke="#5100CD" stroke-linecap="round" stroke-linejoin="round"/>
<path d="M217.58 274.14V279.15L212.56 276.25V271.24L217.58 274.14Z" fill="#F5EDFF" stroke="#5100CD" stroke-linecap="round" stroke-linejoin="round"/>
<path d="M212.56 282.03V277.02L207.55 274.12V279.13L212.56 282.03Z" fill="#F5EDFF" stroke="#5100CD" stroke-linecap="round" stroke-linejoin="round"/>
<path d="M212.56 282.03V277.02L217.57 274.12V279.13L212.56 282.03Z" fill="#DBC8F6" stroke="#5100CD" stroke-linecap="round" stroke-linejoin="round"/>
<path d="M207.54 274.12L212.55 271.24L217.56 274.12L212.55 277.02L207.54 274.12Z" fill="#F5EDFF" stroke="#5100CD" stroke-linecap="round" stroke-linejoin="round"/>
<path d="M207.54 252.48V257.49L212.55 254.59V249.58L207.54 252.48Z" fill="#F5EDFF" stroke="#5100CD" stroke-linecap="round" stroke-linejoin="round"/>
<path d="M217.58 252.48V257.49L212.56 254.59V249.58L217.58 252.48Z" fill="#F5EDFF" stroke="#5100CD" stroke-linecap="round" stroke-linejoin="round"/>
<path d="M212.56 260.37V255.35L207.55 252.45V257.47L212.56 260.37Z" fill="#F5EDFF" stroke="#5100CD" stroke-linecap="round" stroke-linejoin="round"/>
<path d="M212.56 260.37V255.35L217.57 252.45V257.47L212.56 260.37Z" fill="#DBC8F6" stroke="#5100CD" stroke-linecap="round" stroke-linejoin="round"/>
<path d="M207.54 252.45L212.55 249.58L217.56 252.45L212.55 255.35L207.54 252.45Z" fill="#F5EDFF" stroke="#5100CD" stroke-linecap="round" stroke-linejoin="round"/>
<path d="M207.54 221.161V226.18L212.55 223.281V218.271L207.54 221.161Z" fill="#F5EDFF" stroke="#5100CD" stroke-linecap="round" stroke-linejoin="round"/>
<path d="M217.58 221.161V226.18L212.56 223.281V218.271L217.58 221.161Z" fill="#F5EDFF" stroke="#5100CD" stroke-linecap="round" stroke-linejoin="round"/>
<path d="M212.56 229.051V224.041L207.55 221.141V226.151L212.56 229.051Z" fill="#F5EDFF" stroke="#5100CD" stroke-linecap="round" stroke-linejoin="round"/>
<path d="M212.56 229.051V224.041L217.57 221.141V226.151L212.56 229.051Z" fill="#DBC8F6" stroke="#5100CD" stroke-linecap="round" stroke-linejoin="round"/>
<path d="M207.54 221.141L212.55 218.271L217.56 221.141L212.55 224.04L207.54 221.141Z" fill="#F5EDFF" stroke="#5100CD" stroke-linecap="round" stroke-linejoin="round"/>
<path d="M136.9 335.66V339.64L140.88 337.34V333.36L136.9 335.66Z" fill="#F5EDFF" stroke="#5100CD" stroke-linecap="round" stroke-linejoin="round"/>
<path d="M144.87 335.66V339.64L140.89 337.34V333.36L144.87 335.66Z" fill="#F5EDFF" stroke="#5100CD" stroke-linecap="round" stroke-linejoin="round"/>
<path d="M140.89 341.921V337.941L136.91 335.641V339.621L140.89 341.921Z" fill="#F5EDFF" stroke="#5100CD" stroke-linecap="round" stroke-linejoin="round"/>
<path d="M140.89 341.921V337.941L144.87 335.641V339.621L140.89 341.921Z" fill="#F5EDFF" stroke="#5100CD" stroke-linecap="round" stroke-linejoin="round"/>
<path d="M136.91 335.64L140.89 333.36L144.87 335.64L140.89 337.94L136.91 335.64Z" fill="#F5EDFF" stroke="#5100CD" stroke-linecap="round" stroke-linejoin="round"/>
<path d="M141.95 338.601V342.581L145.93 340.281V336.301L141.95 338.601Z" fill="#F5EDFF" stroke="#5100CD" stroke-linecap="round" stroke-linejoin="round"/>
<path d="M149.91 338.601V342.581L145.93 340.281V336.301L149.91 338.601Z" fill="#F5EDFF" stroke="#5100CD" stroke-linecap="round" stroke-linejoin="round"/>
<path d="M145.93 344.861V340.881L141.95 338.581V342.561L145.93 344.861Z" fill="#F5EDFF" stroke="#5100CD" stroke-linecap="round" stroke-linejoin="round"/>
<path d="M145.93 344.861V340.881L149.91 338.581V342.561L145.93 344.861Z" fill="#F5EDFF" stroke="#5100CD" stroke-linecap="round" stroke-linejoin="round"/>
<path d="M141.95 338.581L145.93 336.301L149.91 338.581L145.93 340.881L141.95 338.581Z" fill="#F5EDFF" stroke="#5100CD" stroke-linecap="round" stroke-linejoin="round"/>
<path d="M146.99 341.54V345.52L150.97 343.22V339.24L146.99 341.54Z" fill="#F5EDFF" stroke="#5100CD" stroke-linecap="round" stroke-linejoin="round"/>
<path d="M154.96 341.54V345.52L150.98 343.22V339.24L154.96 341.54Z" fill="#F5EDFF" stroke="#5100CD" stroke-linecap="round" stroke-linejoin="round"/>
<path d="M150.97 347.801V343.821L146.99 341.521V345.501L150.97 347.801Z" fill="#F5EDFF" stroke="#5100CD" stroke-linecap="round" stroke-linejoin="round"/>
<path d="M150.97 347.801V343.821L154.95 341.521V345.501L150.97 347.801Z" fill="#F5EDFF" stroke="#5100CD" stroke-linecap="round" stroke-linejoin="round"/>
<path d="M146.99 341.52L150.97 339.24L154.95 341.52L150.97 343.82L146.99 341.52Z" fill="#F5EDFF" stroke="#5100CD" stroke-linecap="round" stroke-linejoin="round"/>
<path d="M131.86 338.601V342.581L135.84 340.281V336.301L131.86 338.601Z" fill="#F5EDFF" stroke="#5100CD" stroke-linecap="round" stroke-linejoin="round"/>
<path d="M139.82 338.601V342.581L135.84 340.281V336.301L139.82 338.601Z" fill="#F5EDFF" stroke="#5100CD" stroke-linecap="round" stroke-linejoin="round"/>
<path d="M135.84 344.861V340.881L131.86 338.581V342.561L135.84 344.861Z" fill="#F5EDFF" stroke="#5100CD" stroke-linecap="round" stroke-linejoin="round"/>
<path d="M135.84 344.861V340.881L139.82 338.581V342.561L135.84 344.861Z" fill="#F5EDFF" stroke="#5100CD" stroke-linecap="round" stroke-linejoin="round"/>
<path d="M131.86 338.581L135.84 336.301L139.82 338.581L135.84 340.881L131.86 338.581Z" fill="#F5EDFF" stroke="#5100CD" stroke-linecap="round" stroke-linejoin="round"/>
<path d="M136.9 341.54V345.52L140.88 343.22V339.24L136.9 341.54Z" fill="#F5EDFF" stroke="#5100CD" stroke-linecap="round" stroke-linejoin="round"/>
<path d="M144.87 341.54V345.52L140.89 343.22V339.24L144.87 341.54Z" fill="#F5EDFF" stroke="#5100CD" stroke-linecap="round" stroke-linejoin="round"/>
<path d="M140.89 347.801V343.821L136.91 341.521V345.501L140.89 347.801Z" fill="#F5EDFF" stroke="#5100CD" stroke-linecap="round" stroke-linejoin="round"/>
<path d="M140.89 347.801V343.821L144.87 341.521V345.501L140.89 347.801Z" fill="#F5EDFF" stroke="#5100CD" stroke-linecap="round" stroke-linejoin="round"/>
<path d="M136.91 341.52L140.89 339.24L144.87 341.52L140.89 343.82L136.91 341.52Z" fill="#F5EDFF" stroke="#5100CD" stroke-linecap="round" stroke-linejoin="round"/>
<path d="M141.95 344.481V348.461L145.93 346.161V342.181L141.95 344.481Z" fill="#F5EDFF" stroke="#5100CD" stroke-linecap="round" stroke-linejoin="round"/>
<path d="M149.91 344.481V348.461L145.93 346.161V342.181L149.91 344.481Z" fill="#F5EDFF" stroke="#5100CD" stroke-linecap="round" stroke-linejoin="round"/>
<path d="M145.93 350.741V346.761L141.95 344.461V348.441L145.93 350.741Z" fill="#F5EDFF" stroke="#5100CD" stroke-linecap="round" stroke-linejoin="round"/>
<path d="M145.93 350.741V346.761L149.91 344.461V348.441L145.93 350.741Z" fill="#F5EDFF" stroke="#5100CD" stroke-linecap="round" stroke-linejoin="round"/>
<path d="M141.95 344.461L145.93 342.181L149.91 344.461L145.93 346.761L141.95 344.461Z" fill="#F5EDFF" stroke="#5100CD" stroke-linecap="round" stroke-linejoin="round"/>
<path d="M126.82 341.54V345.52L130.8 343.22V339.24L126.82 341.54Z" fill="#F5EDFF" stroke="#5100CD" stroke-linecap="round" stroke-linejoin="round"/>
<path d="M134.78 341.54V345.52L130.8 343.22V339.24L134.78 341.54Z" fill="#F5EDFF" stroke="#5100CD" stroke-linecap="round" stroke-linejoin="round"/>
<path d="M130.8 347.801V343.821L126.82 341.521V345.501L130.8 347.801Z" fill="#F5EDFF" stroke="#5100CD" stroke-linecap="round" stroke-linejoin="round"/>
<path d="M130.8 347.801V343.821L134.78 341.521V345.501L130.8 347.801Z" fill="#F5EDFF" stroke="#5100CD" stroke-linecap="round" stroke-linejoin="round"/>
<path d="M126.82 341.52L130.8 339.24L134.78 341.52L130.8 343.82L126.82 341.52Z" fill="#F5EDFF" stroke="#5100CD" stroke-linecap="round" stroke-linejoin="round"/>
<path d="M131.86 344.481V348.461L135.84 346.161V342.181L131.86 344.481Z" fill="#F5EDFF" stroke="#5100CD" stroke-linecap="round" stroke-linejoin="round"/>
<path d="M139.82 344.481V348.461L135.84 346.161V342.181L139.82 344.481Z" fill="#F5EDFF" stroke="#5100CD" stroke-linecap="round" stroke-linejoin="round"/>
<path d="M135.84 350.741V346.761L131.86 344.461V348.441L135.84 350.741Z" fill="#F5EDFF" stroke="#5100CD" stroke-linecap="round" stroke-linejoin="round"/>
<path d="M135.84 350.741V346.761L139.82 344.461V348.441L135.84 350.741Z" fill="#F5EDFF" stroke="#5100CD" stroke-linecap="round" stroke-linejoin="round"/>
<path d="M131.86 344.461L135.84 342.181L139.82 344.461L135.84 346.761L131.86 344.461Z" fill="#F5EDFF" stroke="#5100CD" stroke-linecap="round" stroke-linejoin="round"/>
<path d="M136.9 347.42V351.4L140.88 349.1V345.12L136.9 347.42Z" fill="#F5EDFF" stroke="#5100CD" stroke-linecap="round" stroke-linejoin="round"/>
<path d="M144.87 347.42V351.4L140.89 349.1V345.12L144.87 347.42Z" fill="#F5EDFF" stroke="#5100CD" stroke-linecap="round" stroke-linejoin="round"/>
<path d="M140.89 353.68V349.7L136.91 347.4V351.38L140.89 353.68Z" fill="#F5EDFF" stroke="#5100CD" stroke-linecap="round" stroke-linejoin="round"/>
<path d="M140.89 353.68V349.7L144.87 347.4V351.38L140.89 353.68Z" fill="#F5EDFF" stroke="#5100CD" stroke-linecap="round" stroke-linejoin="round"/>
<path d="M136.91 347.4L140.89 345.12L144.87 347.4L140.89 349.7L136.91 347.4Z" fill="#F5EDFF" stroke="#5100CD" stroke-linecap="round" stroke-linejoin="round"/>
<path d="M121.75 344.481V348.461L125.73 346.161V342.181L121.75 344.481Z" fill="#F5EDFF" stroke="#5100CD" stroke-linecap="round" stroke-linejoin="round"/>
<path d="M129.72 344.481V348.461L125.74 346.161V342.181L129.72 344.481Z" fill="#F5EDFF" stroke="#5100CD" stroke-linecap="round" stroke-linejoin="round"/>
<path d="M125.74 350.741V346.761L121.76 344.461V348.441L125.74 350.741Z" fill="#F5EDFF" stroke="#5100CD" stroke-linecap="round" stroke-linejoin="round"/>
<path d="M125.74 350.741V346.761L129.72 344.461V348.441L125.74 350.741Z" fill="#F5EDFF" stroke="#5100CD" stroke-linecap="round" stroke-linejoin="round"/>
<path d="M121.76 344.461L125.74 342.181L129.72 344.461L125.74 346.761L121.76 344.461Z" fill="#F5EDFF" stroke="#5100CD" stroke-linecap="round" stroke-linejoin="round"/>
<path d="M126.8 347.42V351.4L130.78 349.1V345.12L126.8 347.42Z" fill="#F5EDFF" stroke="#5100CD" stroke-linecap="round" stroke-linejoin="round"/>
<path d="M134.76 347.42V351.4L130.78 349.1V345.12L134.76 347.42Z" fill="#F5EDFF" stroke="#5100CD" stroke-linecap="round" stroke-linejoin="round"/>
<path d="M130.78 353.68V349.7L126.8 347.4V351.38L130.78 353.68Z" fill="#F5EDFF" stroke="#5100CD" stroke-linecap="round" stroke-linejoin="round"/>
<path d="M130.78 353.68V349.7L134.76 347.4V351.38L130.78 353.68Z" fill="#F5EDFF" stroke="#5100CD" stroke-linecap="round" stroke-linejoin="round"/>
<path d="M126.8 347.4L130.78 345.12L134.76 347.4L130.78 349.7L126.8 347.4Z" fill="#F5EDFF" stroke="#5100CD" stroke-linecap="round" stroke-linejoin="round"/>
<path d="M131.84 350.361V354.341L135.82 352.041V348.061L131.84 350.361Z" fill="#F5EDFF" stroke="#5100CD" stroke-linecap="round" stroke-linejoin="round"/>
<path d="M139.81 350.361V354.341L135.83 352.041V348.061L139.81 350.361Z" fill="#F5EDFF" stroke="#5100CD" stroke-linecap="round" stroke-linejoin="round"/>
<path d="M135.82 356.631V352.651L131.84 350.351V354.331L135.82 356.631Z" fill="#F5EDFF" stroke="#5100CD" stroke-linecap="round" stroke-linejoin="round"/>
<path d="M135.82 356.631V352.651L139.8 350.351V354.331L135.82 356.631Z" fill="#F5EDFF" stroke="#5100CD" stroke-linecap="round" stroke-linejoin="round"/>
<path d="M131.84 350.35L135.82 348.07L139.8 350.35L135.82 352.65L131.84 350.35Z" fill="#F5EDFF" stroke="#5100CD" stroke-linecap="round" stroke-linejoin="round"/>
<path d="M156.02 342.181V346.161L160 348.461V344.481L156.02 342.181Z" fill="#F5EDFF" stroke="#5100CD" stroke-linecap="round" stroke-linejoin="round"/>
<path d="M156.01 342.181V346.161L152.03 348.461V344.481L156.01 342.181Z" fill="#F5EDFF" stroke="#5100CD" stroke-linecap="round" stroke-linejoin="round"/>
<path d="M160 348.451V344.471L156.02 346.771V350.751L160 348.451Z" fill="#DBC8F6" stroke="#5100CD" stroke-linecap="round" stroke-linejoin="round"/>
<path d="M152.04 348.451V344.471L156.02 346.771V350.751L152.04 348.451Z" fill="#F5EDFF" stroke="#5100CD" stroke-linecap="round" stroke-linejoin="round"/>
<path d="M156.02 346.761L152.04 344.461L156.02 342.181L160 344.461L156.02 346.761Z" fill="#F5EDFF" stroke="#5100CD" stroke-linecap="round" stroke-linejoin="round"/>
<path d="M150.98 345.13V349.11L154.96 351.41V347.43L150.98 345.13Z" fill="#F5EDFF" stroke="#5100CD" stroke-linecap="round" stroke-linejoin="round"/>
<path d="M150.97 345.13V349.11L146.99 351.41V347.43L150.97 345.13Z" fill="#F5EDFF" stroke="#5100CD" stroke-linecap="round" stroke-linejoin="round"/>
<path d="M154.95 351.39V347.41L150.97 349.71V353.69L154.95 351.39Z" fill="#DBC8F6" stroke="#5100CD" stroke-linecap="round" stroke-linejoin="round"/>
<path d="M146.99 351.39V347.41L150.97 349.71V353.69L146.99 351.39Z" fill="#F5EDFF" stroke="#5100CD" stroke-linecap="round" stroke-linejoin="round"/>
<path d="M150.97 349.7L146.99 347.4L150.97 345.12L154.95 347.4L150.97 349.7Z" fill="#F5EDFF" stroke="#5100CD" stroke-linecap="round" stroke-linejoin="round"/>
<path d="M145.93 348.07V352.05L149.91 354.35V350.37L145.93 348.07Z" fill="#F5EDFF" stroke="#5100CD" stroke-linecap="round" stroke-linejoin="round"/>
<path d="M145.93 348.07V352.05L141.95 354.35V350.37L145.93 348.07Z" fill="#F5EDFF" stroke="#5100CD" stroke-linecap="round" stroke-linejoin="round"/>
<path d="M149.91 354.331V350.351L145.93 352.651V356.631L149.91 354.331Z" fill="#DBC8F6" stroke="#5100CD" stroke-linecap="round" stroke-linejoin="round"/>
<path d="M141.95 354.331V350.351L145.93 352.651V356.631L141.95 354.331Z" fill="#F5EDFF" stroke="#5100CD" stroke-linecap="round" stroke-linejoin="round"/>
<path d="M145.93 352.641L141.95 350.341L145.93 348.061L149.91 350.341L145.93 352.641Z" fill="#F5EDFF" stroke="#5100CD" stroke-linecap="round" stroke-linejoin="round"/>
<path d="M136.89 353.3V357.28L140.87 354.98V351L136.89 353.3Z" fill="#F5EDFF" stroke="#5100CD" stroke-linecap="round" stroke-linejoin="round"/>
<path d="M144.85 353.3V357.28L140.87 354.98V351L144.85 353.3Z" fill="#F5EDFF" stroke="#5100CD" stroke-linecap="round" stroke-linejoin="round"/>
<path d="M140.87 359.57V355.59L136.89 353.29V357.27L140.87 359.57Z" fill="#F5EDFF" stroke="#5100CD" stroke-linecap="round" stroke-linejoin="round"/>
<path d="M140.87 359.57V355.59L144.85 353.29V357.27L140.87 359.57Z" fill="#DBC8F6" stroke="#5100CD" stroke-linecap="round" stroke-linejoin="round"/>
<path d="M136.89 353.29L140.87 351.01L144.85 353.29L140.87 355.59L136.89 353.29Z" fill="#F5EDFF" stroke="#5100CD" stroke-linecap="round" stroke-linejoin="round"/>
<path d="M140.86 346.32L155.26 337.95L140.86 329.4L126.47 337.95L140.86 346.32Z" fill="#F5EDFF" stroke="#5100CD" stroke-linecap="round" stroke-linejoin="round"/>
<path d="M134.91 337.901L136.15 338.621C137.71 337.701 140.87 335.811 140.87 335.811V334.351L134.91 337.891V337.901Z" fill="#DBC8F6" stroke="#5100CD" stroke-linecap="round" stroke-linejoin="round"/>
<path d="M140.86 334.351V335.811L145.58 338.621L146.82 337.901L140.86 334.351Z" fill="#F5EDFF" stroke="#5100CD" stroke-linecap="round" stroke-linejoin="round"/>
<path d="M145.58 338.621L140.86 335.811C140.86 335.811 137.7 337.691 136.14 338.621L140.86 341.361L145.58 338.621Z" fill="#F5EDFF" stroke="#5100CD" stroke-linecap="round" stroke-linejoin="round"/>
<path d="M140.86 352.52V346.32L155.26 337.95V344.26L140.86 352.52Z" fill="#DBC8F6" stroke="#5100CD" stroke-linecap="round" stroke-linejoin="round"/>
<path d="M126.47 343.97V337.95L140.86 346.32V352.52L126.47 343.97Z" fill="#F5EDFF" stroke="#5100CD" stroke-linecap="round" stroke-linejoin="round"/>
<path d="M192.46 103.06L156.22 82.0101V49.3301L192.46 70.3701V103.06Z" fill="#F5EDFF" stroke="#5100CD" stroke-linecap="round" stroke-linejoin="round"/>
<path d="M191.45 89.7302L185.88 86.4902C183.89 85.3302 182.27 82.7802 182.27 80.7902C182.27 78.8002 183.88 78.1202 185.88 79.2802L191.45 82.5202C193.44 83.6802 195.06 86.2302 195.06 88.2202C195.06 90.2102 193.45 90.8902 191.45 89.7302Z" fill="#F5EDFF" stroke="#5100CD" stroke-linecap="round" stroke-linejoin="round"/>
<path d="M151.51 52.0201L156.22 49.3301L192.46 70.3701L187.75 73.0601L151.51 52.0201Z" fill="#F5EDFF" stroke="#5100CD" stroke-linecap="round" stroke-linejoin="round"/>
<path d="M189.56 92.7002L189.38 92.8002C189.44 92.7702 189.5 92.7402 189.56 92.7002Z" fill="#F5EDFF" stroke="#5100CD" stroke-linecap="round" stroke-linejoin="round"/>
<path d="M187.75 105.75L192.46 103.06V70.3701L187.75 73.0601V105.75Z" fill="#DBC8F6" stroke="#5100CD" stroke-linecap="round" stroke-linejoin="round"/>
<path d="M187.75 105.751L151.51 84.7005V52.0205L187.75 73.0605V105.751Z" fill="#F5EDFF" stroke="#5100CD" stroke-linecap="round" stroke-linejoin="round"/>
<path d="M186.73 92.4206L181.16 89.1806C179.17 88.0206 177.55 85.4706 177.55 83.4806C177.55 81.4906 179.16 80.8106 181.16 81.9706L186.73 85.2106C188.72 86.3706 190.34 88.9206 190.34 90.9106C190.34 92.9006 188.73 93.5806 186.73 92.4206Z" fill="#F5EDFF" stroke="#5100CD" stroke-linecap="round" stroke-linejoin="round"/>
<path d="M186.73 92.4206L181.16 89.1806C179.17 88.0206 177.55 85.4706 177.55 83.4806C177.55 81.4906 179.16 80.8106 181.16 81.9706L186.73 85.2106C188.72 86.3706 190.34 88.9206 190.34 90.9106C190.34 92.9006 188.73 93.5806 186.73 92.4206Z" fill="#DBC8F6" stroke="#5100CD" stroke-linecap="round" stroke-linejoin="round"/>
<path d="M185.77 93.0202L180.2 89.7802C178.21 88.6202 176.59 86.0702 176.59 84.0802C176.59 82.0902 178.2 81.4102 180.2 82.5702L185.77 85.8102C187.76 86.9702 189.38 89.5202 189.38 91.5102C189.38 93.5002 187.77 94.1802 185.77 93.0202Z" fill="#F5EDFF" stroke="#5100CD" stroke-linecap="round" stroke-linejoin="round"/>
<path d="M194.96 88.9502L192.71 90.2302L190.25 91.6302C190.13 92.1102 189.89 92.4602 189.55 92.6902L191.82 91.4002L194.09 90.1002L194.27 90.0002C194.6 89.7702 194.85 89.4202 194.97 88.9502H194.96Z" fill="#F5EDFF" stroke="#5100CD" stroke-linecap="round" stroke-linejoin="round"/>
<path d="M192.37 83.1699L189.82 84.6299L187.75 85.8099V85.9399C188.64 86.7199 189.39 87.7499 189.85 88.7999C190.16 89.5199 190.35 90.2399 190.35 90.9099C190.35 91.1799 190.32 91.4199 190.26 91.6399L192.72 90.2399L194.97 88.9599C195.03 88.7399 195.06 88.4999 195.06 88.2299C195.06 86.5599 193.92 84.4899 192.37 83.1799V83.1699Z" fill="#DBC8F6" stroke="#5100CD" stroke-linecap="round" stroke-linejoin="round"/>
<path d="M192.37 83.1699L187.75 85.8099L189.81 84.6299L192.37 83.1699Z" fill="#F5EDFF" stroke="#5100CD" stroke-linecap="round" stroke-linejoin="round"/>
<path d="M175.97 72.7201L173 79.3201L175.35 80.4901L170.74 85.7501C169.33 87.4001 166.71 87.3601 163.9 85.7301C159.48 83.1601 155.96 77.6001 155.96 73.1801C155.96 70.3601 157.45 68.6101 159.91 68.6301H167.85L167.65 70.8601L175.98 72.7301L175.97 72.7201ZM163.46 82.9701C166.2 84.5601 168.46 83.6501 168.46 80.8701C168.46 78.0901 166.19 74.5501 163.46 72.9601C160.68 71.3501 158.46 72.3201 158.46 75.0601C158.46 77.8001 160.69 81.3601 163.46 82.9701ZM163.46 76.7101C163.46 77.4101 162.87 77.6201 162.21 77.2301C161.51 76.8201 160.96 75.9601 160.96 75.2501C160.96 74.5901 161.51 74.3201 162.21 74.7301C162.87 75.1201 163.46 76.0401 163.46 76.7101ZM164.09 80.8301C163.74 80.6301 163.46 80.1901 163.46 79.8401C163.46 79.5301 163.73 79.3701 164.09 79.5801C164.4 79.7601 164.72 80.2601 164.72 80.5701C164.72 80.9201 164.41 81.0101 164.09 80.8301Z" fill="#5100CD"/>
<path d="M368.96 310.26L360.59 323.88L372.07 339L396.67 346.76L419.98 342.62L428.34 329.01L416.86 313.89L392.26 306.12L368.96 310.26Z" fill="#F5EDFF" stroke="#5100CD" stroke-linecap="round" stroke-linejoin="round"/>
<path d="M393.92 296.63L418.52 304.39L430 319.51L421.64 333.13L398.33 337.27L373.73 329.51L362.25 314.39L370.61 300.77L393.92 296.63ZM380.01 306.73L374.73 315.33L381.98 324.88L397.52 329.79L412.24 327.18L417.52 318.58L410.27 309.03L394.73 304.12L380.01 306.73Z" fill="#F5EDFF" stroke="#5100CD" stroke-linecap="round" stroke-linejoin="round"/>
<path d="M362.25 314.39L360.59 323.88L372.07 339L373.73 329.5L362.25 314.39Z" fill="#F5EDFF" stroke="#5100CD" stroke-linecap="round" stroke-linejoin="round"/>
<path d="M398.33 337.27L396.67 346.76L419.98 342.62L421.63 333.13L398.33 337.27Z" fill="#DBC8F6" stroke="#5100CD" stroke-linecap="round" stroke-linejoin="round"/>
<path d="M373.73 329.5L372.07 339L396.67 346.76L398.33 337.27L373.73 329.5Z" fill="#F5EDFF" stroke="#5100CD" stroke-linecap="round" stroke-linejoin="round"/>
<path d="M421.63 333.13L419.98 342.62L428.34 329.01L430 319.52L421.63 333.13Z" fill="#DBC8F6" stroke="#5100CD" stroke-linecap="round" stroke-linejoin="round"/>
<path d="M380.01 306.729L378.35 316.209L393.08 313.599L394.73 304.109L380.01 306.729Z" fill="#DBC8F6" stroke="#5100CD" stroke-linecap="round" stroke-linejoin="round"/>
<path d="M408.62 318.51L410.27 309.02L417.52 318.57L413.53 324.96L408.62 318.51Z" fill="#F5EDFF" stroke="#5100CD" stroke-linecap="round" stroke-linejoin="round"/>
<path d="M376.97 318.299L378.35 316.209L380.01 306.729L374.72 315.329L376.97 318.299Z" fill="#DBC8F6" stroke="#5100CD" stroke-linecap="round" stroke-linejoin="round"/>
<path d="M394.73 304.109L393.08 313.599L408.62 318.509L410.27 309.019L394.73 304.109Z" fill="#F5EDFF" stroke="#5100CD" stroke-linecap="round" stroke-linejoin="round"/>
<path d="M275.37 187.9C272.99 187.9 270.67 187.76 268.4 187.5C269.12 191.57 270.03 194.99 271.06 197.52C272.47 197.69 273.9 197.8 275.36 197.8C276.82 197.8 278.25 197.7 279.66 197.52C280.69 194.98 281.6 191.57 282.32 187.5C280.06 187.75 277.73 187.9 275.35 187.9H275.37Z" fill="#DBC8F6" stroke="#5100CD" stroke-linecap="round" stroke-linejoin="round"/>
<path d="M275.37 139.04C277.75 139.04 280.07 139.18 282.34 139.43C281.62 135.36 280.71 131.94 279.68 129.41C278.27 129.24 276.84 129.13 275.38 129.13C273.92 129.13 272.49 129.23 271.08 129.41C270.05 131.95 269.14 135.36 268.42 139.43C270.68 139.18 273.01 139.04 275.39 139.04H275.37Z" fill="#F5EDFF" stroke="#5100CD" stroke-linecap="round" stroke-linejoin="round"/>
<path d="M254.67 142.77C256.23 138.81 258.23 135.33 260.55 132.49C253.5 135.87 247.8 141.59 244.42 148.63C247.25 146.31 250.72 144.32 254.67 142.76" fill="#F5EDFF"/>
<path d="M254.67 142.77C256.23 138.81 258.23 135.33 260.55 132.49C253.5 135.87 247.8 141.59 244.42 148.63C247.25 146.31 250.72 144.32 254.67 142.76" stroke="#5100CD" stroke-linecap="round" stroke-linejoin="round"/>
<path d="M296.07 142.76C300.01 144.31 303.49 146.3 306.31 148.62C302.93 141.59 297.24 135.9 290.21 132.52C292.53 135.35 294.52 138.82 296.07 142.77" fill="#F5EDFF"/>
<path d="M296.07 142.76C300.01 144.31 303.49 146.3 306.31 148.62C302.93 141.59 297.24 135.9 290.21 132.52C292.53 135.35 294.52 138.82 296.07 142.77" stroke="#5100CD" stroke-linecap="round" stroke-linejoin="round"/>
<path d="M254.68 184.17C250.72 182.61 247.24 180.61 244.4 178.29C247.78 185.34 253.5 191.04 260.54 194.42C258.22 191.59 256.23 188.12 254.68 184.17Z" fill="#F5EDFF" stroke="#5100CD" stroke-linecap="round" stroke-linejoin="round"/>
<path d="M296.08 184.16C294.52 188.12 292.52 191.6 290.2 194.44C297.25 191.06 302.95 185.34 306.33 178.3C303.5 180.62 300.03 182.61 296.08 184.17" fill="#DBC8F6"/>
<path d="M296.08 184.16C294.52 188.12 292.52 191.6 290.2 194.44C297.25 191.06 302.95 185.34 306.33 178.3C303.5 180.62 300.03 182.61 296.08 184.17" stroke="#5100CD" stroke-linecap="round" stroke-linejoin="round"/>
<path d="M268.42 187.5C263.45 186.93 258.81 185.78 254.69 184.16C256.25 188.12 258.24 191.58 260.55 194.41C260.68 194.47 260.81 194.53 260.93 194.59C261.6 194.9 262.27 195.2 262.96 195.46C263.01 195.48 263.06 195.5 263.12 195.52C263.71 195.75 264.31 195.95 264.92 196.15C265.02 196.18 265.12 196.21 265.22 196.24C265.79 196.42 266.37 196.58 266.96 196.73C266.99 196.73 267.01 196.74 267.04 196.75C268.36 197.08 269.71 197.33 271.08 197.51C270.05 194.97 269.14 191.56 268.42 187.49V187.5Z" fill="#DBC8F6" stroke="#5100CD" stroke-linecap="round" stroke-linejoin="round"/>
<path d="M260.56 194.44C260.68 194.5 260.81 194.54 260.93 194.6C260.8 194.54 260.67 194.48 260.55 194.42C260.55 194.42 260.56 194.44 260.57 194.44H260.56Z" fill="#F5EDFF" stroke="#5100CD" stroke-linecap="round" stroke-linejoin="round"/>
<path d="M260.55 132.49C260.55 132.49 260.56 132.49 260.57 132.49C260.57 132.49 260.56 132.49 260.55 132.49Z" fill="#F5EDFF" stroke="#5100CD" stroke-linecap="round" stroke-linejoin="round"/>
<path d="M268.4 139.43C269.12 135.36 270.03 131.95 271.06 129.42C271.01 129.42 270.96 129.43 270.91 129.44C270.2 129.53 269.5 129.65 268.81 129.79C268.64 129.82 268.46 129.85 268.28 129.88C267.43 130.06 266.59 130.26 265.77 130.5C265.7 130.52 265.62 130.54 265.55 130.56C264.75 130.8 263.97 131.06 263.19 131.36C263.07 131.41 262.94 131.46 262.82 131.51C262.06 131.81 261.31 132.13 260.57 132.48C260.57 132.48 260.56 132.48 260.55 132.48C258.22 135.31 256.23 138.8 254.67 142.76C258.79 141.14 263.43 139.99 268.4 139.42V139.43Z" fill="#F5EDFF" stroke="#5100CD" stroke-linecap="round" stroke-linejoin="round"/>
<path d="M271.07 129.42C271.02 129.42 270.97 129.44 270.91 129.45C270.96 129.45 271.01 129.44 271.06 129.43L271.07 129.42Z" fill="#F5EDFF" stroke="#5100CD" stroke-linecap="round" stroke-linejoin="round"/>
<path d="M290.19 194.439L290.18 194.449L290.19 194.439Z" fill="#F5EDFF" stroke="#5100CD" stroke-linecap="round" stroke-linejoin="round"/>
<path d="M282.35 187.5C281.63 191.57 280.72 194.98 279.69 197.51C279.74 197.51 279.79 197.5 279.84 197.49C280.55 197.4 281.25 197.28 281.94 197.14C282.11 197.11 282.29 197.08 282.46 197.05C283.31 196.87 284.15 196.66 284.98 196.43C285.05 196.41 285.12 196.39 285.2 196.37C286 196.13 286.79 195.86 287.56 195.57C287.68 195.52 287.8 195.47 287.92 195.43C288.69 195.13 289.44 194.81 290.18 194.45C290.18 194.45 290.18 194.45 290.19 194.45C292.52 191.62 294.51 188.13 296.07 184.17C291.95 185.79 287.31 186.94 282.34 187.51L282.35 187.5Z" fill="#DBC8F6" stroke="#5100CD" stroke-linecap="round" stroke-linejoin="round"/>
<path d="M279.68 197.52C279.73 197.52 279.78 197.5 279.84 197.49C279.79 197.49 279.74 197.5 279.69 197.51L279.68 197.52Z" fill="#F5EDFF" stroke="#5100CD" stroke-linecap="round" stroke-linejoin="round"/>
<path d="M282.33 139.43C287.3 140 291.94 141.15 296.06 142.77C294.5 138.82 292.52 135.35 290.2 132.52C290.08 132.46 289.95 132.4 289.83 132.34C289.16 132.03 288.48 131.73 287.78 131.46C287.73 131.44 287.68 131.42 287.63 131.4C287.04 131.17 286.44 130.97 285.83 130.77C285.73 130.74 285.63 130.71 285.53 130.68C284.96 130.5 284.38 130.34 283.8 130.19C283.77 130.19 283.75 130.18 283.72 130.17C282.4 129.84 281.05 129.59 279.68 129.41C280.71 131.95 281.62 135.36 282.34 139.43H282.33Z" fill="#F5EDFF" stroke="#5100CD" stroke-linecap="round" stroke-linejoin="round"/>
<path d="M290.18 132.49C290.07 132.43 289.94 132.39 289.83 132.34C289.96 132.4 290.08 132.46 290.2 132.52C290.2 132.52 290.19 132.5 290.18 132.49Z" fill="#F5EDFF" stroke="#5100CD" stroke-linecap="round" stroke-linejoin="round"/>
<path d="M299.41 170.43C298.84 175.4 297.69 180.04 296.07 184.16C300.03 182.61 303.5 180.62 306.32 178.3C306.38 178.18 306.44 178.05 306.49 177.93C306.8 177.25 307.11 176.57 307.38 175.87C307.4 175.82 307.42 175.78 307.43 175.73C307.66 175.14 307.86 174.54 308.06 173.93C308.09 173.83 308.12 173.73 308.15 173.63C308.33 173.06 308.49 172.48 308.64 171.89C308.64 171.86 308.65 171.84 308.66 171.82C308.99 170.5 309.24 169.15 309.42 167.77C306.88 168.8 303.47 169.71 299.4 170.43H299.41Z" fill="#DBC8F6" stroke="#5100CD" stroke-linecap="round" stroke-linejoin="round"/>
<path d="M306.35 178.28C306.41 178.17 306.45 178.04 306.5 177.93C306.44 178.05 306.38 178.18 306.33 178.3C306.33 178.3 306.35 178.29 306.35 178.28Z" fill="#F5EDFF" stroke="#5100CD" stroke-linecap="round" stroke-linejoin="round"/>
<path d="M299.41 156.49C303.48 157.22 306.89 158.13 309.42 159.15C309.42 159.1 309.42 159.05 309.4 159C309.31 158.28 309.18 157.56 309.04 156.86C309.01 156.7 308.99 156.53 308.95 156.37C308.77 155.52 308.56 154.67 308.32 153.84C308.3 153.77 308.28 153.71 308.26 153.64C308.02 152.84 307.75 152.04 307.46 151.26C307.42 151.14 307.37 151.03 307.32 150.91C307.07 150.27 306.79 149.64 306.51 149.02C306.44 148.88 306.37 148.74 306.31 148.6C303.48 146.28 300.01 144.3 296.07 142.74C297.69 146.86 298.84 151.5 299.41 156.47V156.49Z" fill="#DBC8F6" stroke="#5100CD" stroke-linecap="round" stroke-linejoin="round"/>
<path d="M306.35 148.65C306.35 148.65 306.33 148.63 306.31 148.62C306.38 148.76 306.45 148.9 306.51 149.04C306.45 148.91 306.4 148.78 306.34 148.65H306.35Z" fill="#F5EDFF" stroke="#5100CD" stroke-linecap="round" stroke-linejoin="round"/>
<path d="M309.42 159.16C309.42 159.11 309.4 159.06 309.4 159.01C309.4 159.06 309.4 159.11 309.42 159.16Z" fill="#F5EDFF" stroke="#5100CD" stroke-linecap="round" stroke-linejoin="round"/>
<path d="M244.4 178.29C244.4 178.29 244.4 178.27 244.39 178.27C244.39 178.27 244.39 178.29 244.4 178.29Z" fill="#F5EDFF" stroke="#5100CD" stroke-linecap="round" stroke-linejoin="round"/>
<path d="M251.34 170.44C247.27 169.71 243.86 168.8 241.33 167.78C241.33 167.83 241.33 167.88 241.35 167.93C241.44 168.64 241.56 169.34 241.7 170.04C241.73 170.21 241.76 170.39 241.79 170.56C241.97 171.41 242.18 172.25 242.41 173.08C242.43 173.15 242.45 173.23 242.47 173.3C242.71 174.1 242.97 174.88 243.27 175.66C243.32 175.78 243.37 175.91 243.42 176.03C243.72 176.79 244.04 177.54 244.39 178.28C244.39 178.28 244.39 178.3 244.4 178.3C247.23 180.63 250.72 182.62 254.68 184.18C253.06 180.06 251.91 175.42 251.34 170.45V170.44Z" fill="#F5EDFF" stroke="#5100CD" stroke-linecap="round" stroke-linejoin="round"/>
<path d="M241.32 167.77C241.32 167.82 241.34 167.87 241.35 167.93C241.35 167.88 241.34 167.83 241.33 167.78L241.32 167.77Z" fill="#F5EDFF" stroke="#5100CD" stroke-linecap="round" stroke-linejoin="round"/>
<path d="M251.34 156.51C251.91 151.54 253.06 146.9 254.68 142.78C250.72 144.33 247.26 146.32 244.43 148.64C244.37 148.77 244.31 148.89 244.25 149.02C243.94 149.69 243.64 150.36 243.37 151.05C243.35 151.1 243.33 151.16 243.31 151.21C243.08 151.8 242.88 152.41 242.68 153.01C242.65 153.11 242.62 153.21 242.59 153.3C242.41 153.87 242.25 154.45 242.1 155.04C242.1 155.07 242.09 155.09 242.08 155.12C241.75 156.44 241.5 157.79 241.32 159.16C243.86 158.13 247.27 157.22 251.34 156.5V156.51Z" fill="#F5EDFF" stroke="#5100CD" stroke-linecap="round" stroke-linejoin="round"/>
<path d="M244.4 148.66C244.34 148.78 244.3 148.9 244.24 149.02C244.3 148.89 244.36 148.77 244.42 148.64C244.42 148.64 244.4 148.65 244.4 148.66Z" fill="#F5EDFF" stroke="#5100CD" stroke-linecap="round" stroke-linejoin="round"/>
<path d="M299.41 156.5C298.84 151.53 297.69 146.89 296.07 142.77C291.95 141.15 287.31 140 282.34 139.43C283.13 143.88 283.71 149.12 284.01 154.83C289.72 155.13 294.96 155.7 299.41 156.5Z" fill="#F5EDFF" stroke="#5100CD" stroke-linecap="round" stroke-linejoin="round"/>
<path d="M251.34 170.43C251.91 175.4 253.06 180.04 254.68 184.16C258.8 185.78 263.44 186.93 268.41 187.5C267.62 183.05 267.04 177.81 266.74 172.1C261.03 171.8 255.79 171.23 251.34 170.43Z" fill="#F5EDFF" stroke="#5100CD" stroke-linecap="round" stroke-linejoin="round"/>
<path d="M268.41 139.43C263.44 140 258.8 141.15 254.68 142.77C253.06 146.89 251.91 151.53 251.34 156.5C255.79 155.71 261.03 155.13 266.74 154.83C267.04 149.12 267.61 143.88 268.41 139.43Z" fill="#F5EDFF" stroke="#5100CD" stroke-linecap="round" stroke-linejoin="round"/>
<path d="M284 172.1C283.7 177.81 283.13 183.05 282.33 187.5C287.3 186.93 291.94 185.78 296.06 184.16C297.68 180.04 298.83 175.4 299.4 170.43C294.95 171.22 289.71 171.8 284 172.1Z" fill="#DBC8F6" stroke="#5100CD" stroke-linecap="round" stroke-linejoin="round"/>
<path d="M275.37 154.62C278.33 154.62 281.22 154.7 284 154.84C283.7 149.13 283.13 143.89 282.33 139.44C280.07 139.19 277.74 139.05 275.36 139.05C272.98 139.05 270.66 139.19 268.39 139.44C267.6 143.89 267.02 149.13 266.72 154.84C269.5 154.7 272.39 154.62 275.35 154.62H275.37Z" fill="#F5EDFF" stroke="#5100CD" stroke-linecap="round" stroke-linejoin="round"/>
<path d="M275.37 172.32C272.41 172.32 269.52 172.24 266.74 172.1C267.04 177.81 267.61 183.05 268.41 187.5C270.67 187.75 273 187.9 275.38 187.9C277.76 187.9 280.08 187.76 282.35 187.5C283.14 183.05 283.72 177.81 284.02 172.1C281.24 172.24 278.35 172.32 275.39 172.32H275.37Z" fill="#DBC8F6" stroke="#5100CD" stroke-linecap="round" stroke-linejoin="round"/>
<path d="M250.95 163.47C250.95 161.09 251.09 158.77 251.35 156.5C247.28 157.22 243.86 158.13 241.33 159.16C241.16 160.57 241.05 162 241.05 163.46C241.05 164.92 241.15 166.35 241.33 167.76C243.87 168.79 247.28 169.7 251.35 170.42C251.1 168.16 250.95 165.83 250.95 163.45V163.47Z" fill="#F5EDFF" stroke="#5100CD" stroke-linecap="round" stroke-linejoin="round"/>
<path d="M299.8 163.47C299.8 165.85 299.66 168.17 299.4 170.44C303.47 169.72 306.89 168.81 309.42 167.78C309.59 166.37 309.7 164.94 309.7 163.48C309.7 162.02 309.6 160.59 309.42 159.18C306.88 158.15 303.47 157.24 299.4 156.52C299.65 158.78 299.8 161.11 299.8 163.49V163.47Z" fill="#DBC8F6" stroke="#5100CD" stroke-linecap="round" stroke-linejoin="round"/>
<path d="M284.22 163.47C284.22 166.43 284.14 169.32 284 172.1C289.71 171.8 294.95 171.23 299.4 170.43C299.65 168.17 299.8 165.84 299.8 163.46C299.8 161.08 299.66 158.76 299.4 156.49C294.95 155.7 289.71 155.12 284 154.82C284.14 157.6 284.22 160.49 284.22 163.45V163.47Z" fill="#DBC8F6" stroke="#5100CD" stroke-linecap="round" stroke-linejoin="round"/>
<path d="M266.52 163.47C266.52 160.51 266.6 157.62 266.74 154.84C261.03 155.14 255.79 155.71 251.34 156.51C251.09 158.77 250.94 161.1 250.94 163.48C250.94 165.86 251.08 168.18 251.34 170.45C255.79 171.24 261.03 171.82 266.74 172.12C266.6 169.34 266.52 166.45 266.52 163.49V163.47Z" fill="#F5EDFF" stroke="#5100CD" stroke-linecap="round" stroke-linejoin="round"/>
<path d="M284.001 154.84C281.221 154.7 278.331 154.62 275.371 154.62C272.411 154.62 269.521 154.7 266.741 154.84C266.601 157.62 266.521 160.51 266.521 163.47C266.521 166.43 266.601 169.32 266.741 172.1C269.521 172.24 272.411 172.32 275.371 172.32C278.331 172.32 281.221 172.24 284.001 172.1C284.141 169.32 284.221 166.43 284.221 163.47C284.221 160.51 284.141 157.62 284.001 154.84Z" fill="#F5EDFF" stroke="#5100CD" stroke-linecap="round" stroke-linejoin="round"/>
<path d="M316.99 157.84L244.51 199.94V179.32L316.99 137.22V157.84Z" fill="#5100CD" stroke="#5100CD" stroke-linecap="round" stroke-linejoin="round"/>
<path d="M269.76 169.59L266.66 183.56L263.56 185.36L261.7 179.16L259.84 187.53L256.71 189.35L253.61 178.98L256.92 177.06L258.6 183.51L260.5 174.98L263.01 173.52L264.91 179.85L266.59 171.45L269.76 169.61V169.59Z" fill="#F5EDFF"/>
<path d="M286.941 159.61L283.841 173.58L280.741 175.38L278.881 169.18L277.021 177.55L273.891 179.37L270.791 169L274.101 167.08L275.781 173.53L277.681 165L280.191 163.54L282.091 169.87L283.771 161.47L286.941 159.63V159.61Z" fill="#F5EDFF"/>
<path d="M304.12 149.63L301.02 163.6L297.92 165.4L296.06 159.2L294.2 167.57L291.07 169.39L287.97 159.02L291.28 157.1L292.96 163.55L294.86 155.02L297.37 153.56L299.27 159.89L300.95 151.49L304.12 149.65V149.63Z" fill="#F5EDFF"/>
<path d="M307.27 156.89L310.49 155.02V158.24L307.27 160.11V156.89Z" fill="#F5EDFF"/>
<path d="M244.51 179.32L239.14 173.95L311.62 131.84L316.99 137.22L244.51 179.32Z" fill="#F5EDFF" stroke="#5100CD" stroke-linecap="round" stroke-linejoin="round"/>
<path d="M244.51 199.94L239.14 194.57V173.95L244.51 179.32V199.94Z" fill="#F5EDFF" stroke="#5100CD" stroke-linecap="round" stroke-linejoin="round"/>
</svg>
