<svg width="427" height="335" viewBox="0 0 427 335" fill="none" xmlns="http://www.w3.org/2000/svg">
<path d="M102.755 116.307L161.333 82.939" stroke="#5100CD" stroke-linecap="round" stroke-linejoin="round"/>
<path d="M88.4729 109.166L147.05 75.7981" stroke="#5100CD" stroke-linecap="round" stroke-linejoin="round"/>
<path d="M111.483 98.7102V96.1271L114 94.699V97.2996L111.483 98.719V98.7102Z" fill="#5100CD" stroke="#5100CD" stroke-linecap="round" stroke-linejoin="round"/>
<path d="M108.967 97.2379V94.6902L111.492 96.1183V98.7014L108.967 97.2379Z" fill="#F5EDFF" stroke="#5100CD" stroke-linecap="round" stroke-linejoin="round"/>
<path d="M111.483 96.1272L114 94.699L111.483 93.2268L108.958 94.699L111.483 96.1272Z" fill="#F5EDFF" stroke="#5100CD" stroke-linecap="round" stroke-linejoin="round"/>
<path d="M144.201 95.228V92.645L146.718 91.2168V93.8175L144.201 95.2368V95.228Z" fill="#5100CD" stroke="#5100CD" stroke-linecap="round" stroke-linejoin="round"/>
<path d="M141.684 93.7646V91.2168L144.21 92.645V95.228L141.684 93.7646Z" fill="#F5EDFF" stroke="#5100CD" stroke-linecap="round" stroke-linejoin="round"/>
<path d="M144.201 92.645L146.718 91.2169L144.201 89.7446L141.675 91.2169L144.201 92.645Z" fill="#F5EDFF" stroke="#5100CD" stroke-linecap="round" stroke-linejoin="round"/>
<path d="M189.889 289.704L110.512 244.497" stroke="#5100CD" stroke-linecap="round" stroke-linejoin="round"/>
<path d="M132.157 304.259L104.365 288.435" stroke="#5100CD" stroke-linecap="round" stroke-linejoin="round"/>
<path d="M335.807 274.18L280.987 242.954" stroke="#5100CD" stroke-linecap="round" stroke-linejoin="round"/>
<path d="M221.699 276.622L320.509 220.342" stroke="#5100CD" stroke-linecap="round" stroke-linejoin="round"/>
<path d="M102.126 286.628L143.113 263.283" stroke="#5100CD" stroke-linecap="round" stroke-linejoin="round"/>
<path d="M128.408 303.986L192.64 267.4" stroke="#5100CD" stroke-linecap="round" stroke-linejoin="round"/>
<path d="M143.104 263.116L146.143 261.379L143.104 259.616L140.066 261.379L143.104 263.116Z" fill="#F5EDFF" stroke="#5100CD" stroke-linecap="round" stroke-linejoin="round"/>
<path d="M143.104 266.237V263.116L146.143 261.379V264.527L143.104 266.246V266.237Z" fill="#5100CD" stroke="#5100CD" stroke-linecap="round" stroke-linejoin="round"/>
<path d="M140.066 264.465V261.379L143.104 263.116V266.237L140.066 264.465Z" fill="#F5EDFF" stroke="#5100CD" stroke-linecap="round" stroke-linejoin="round"/>
<path d="M103.286 287.174L106.324 285.437L103.286 283.674L100.248 285.437L103.286 287.174Z" fill="#F5EDFF" stroke="#5100CD" stroke-linecap="round" stroke-linejoin="round"/>
<path d="M103.286 290.295V287.174L106.324 285.438V288.585L103.286 290.304V290.295Z" fill="#5100CD" stroke="#5100CD" stroke-linecap="round" stroke-linejoin="round"/>
<path d="M100.248 288.523V285.438L103.286 287.174V290.295L100.248 288.523Z" fill="#F5EDFF" stroke="#5100CD" stroke-linecap="round" stroke-linejoin="round"/>
<path d="M144.624 293.575L147.662 291.838L144.624 290.075L141.585 291.838L144.624 293.575Z" fill="#F5EDFF" stroke="#5100CD" stroke-linecap="round" stroke-linejoin="round"/>
<path d="M144.624 296.695V293.575L147.662 291.838V294.985L144.624 296.704V296.695Z" fill="#5100CD" stroke="#5100CD" stroke-linecap="round" stroke-linejoin="round"/>
<path d="M141.585 294.923V291.838L144.624 293.575V296.695L141.585 294.923Z" fill="#F5EDFF" stroke="#5100CD" stroke-linecap="round" stroke-linejoin="round"/>
<path d="M248.449 261.062V171.379" stroke="#5100CD" stroke-linecap="round" stroke-linejoin="round"/>
<path d="M320.509 219.31V57.761" stroke="#5100CD" stroke-linecap="round" stroke-linejoin="round"/>
<path d="M248.449 261.062L251.487 259.325L248.449 257.562L245.411 259.325L248.449 261.062Z" fill="#F5EDFF" stroke="#5100CD" stroke-linecap="round" stroke-linejoin="round"/>
<path d="M248.449 264.183V261.062L251.487 259.325V262.472L248.449 264.191V264.183Z" fill="#5100CD" stroke="#5100CD" stroke-linecap="round" stroke-linejoin="round"/>
<path d="M245.411 262.411V259.325L248.449 261.062V264.183L245.411 262.411Z" fill="#F5EDFF" stroke="#5100CD" stroke-linecap="round" stroke-linejoin="round"/>
<path d="M248.449 228.426L251.487 226.689L248.449 224.926L245.411 226.689L248.449 228.426Z" fill="#F5EDFF" stroke="#5100CD" stroke-linecap="round" stroke-linejoin="round"/>
<path d="M248.449 231.547V228.426L251.487 226.689V229.836L248.449 231.556V231.547Z" fill="#5100CD" stroke="#5100CD" stroke-linecap="round" stroke-linejoin="round"/>
<path d="M245.411 229.775V226.689L248.449 228.426V231.547L245.411 229.775Z" fill="#F5EDFF" stroke="#5100CD" stroke-linecap="round" stroke-linejoin="round"/>
<path d="M280.987 243.148L284.025 241.412L280.987 239.648L277.949 241.412L280.987 243.148Z" fill="#F5EDFF" stroke="#5100CD" stroke-linecap="round" stroke-linejoin="round"/>
<path d="M280.987 246.269V243.148L284.025 241.412V244.559L280.987 246.278V246.269Z" fill="#5100CD" stroke="#5100CD" stroke-linecap="round" stroke-linejoin="round"/>
<path d="M277.949 244.497V241.412L280.987 243.148V246.269L277.949 244.497Z" fill="#F5EDFF" stroke="#5100CD" stroke-linecap="round" stroke-linejoin="round"/>
<path d="M320.509 219.495L323.547 217.759L320.509 215.996L317.471 217.759L320.509 219.495Z" fill="#F5EDFF" stroke="#5100CD" stroke-linecap="round" stroke-linejoin="round"/>
<path d="M320.509 222.625V219.504L323.547 217.768V220.915L320.509 222.634V222.625Z" fill="#5100CD" stroke="#5100CD" stroke-linecap="round" stroke-linejoin="round"/>
<path d="M317.471 220.844V217.759L320.509 219.496V222.616L317.471 220.844Z" fill="#F5EDFF" stroke="#5100CD" stroke-linecap="round" stroke-linejoin="round"/>
<path d="M320.509 164.503L323.547 162.766L320.509 161.003L317.471 162.766L320.509 164.503Z" fill="#F5EDFF" stroke="#5100CD" stroke-linecap="round" stroke-linejoin="round"/>
<path d="M320.509 167.623V164.503L323.547 162.766V165.913L320.509 167.632V167.623Z" fill="#5100CD" stroke="#5100CD" stroke-linecap="round" stroke-linejoin="round"/>
<path d="M317.471 165.851V162.766L320.509 164.503V167.623L317.471 165.851Z" fill="#F5EDFF" stroke="#5100CD" stroke-linecap="round" stroke-linejoin="round"/>
<path d="M320.509 144.085L323.547 142.349L320.509 140.585L317.471 142.349L320.509 144.085Z" fill="#F5EDFF" stroke="#5100CD" stroke-linecap="round" stroke-linejoin="round"/>
<path d="M320.509 147.206V144.085L323.547 142.349V145.496L320.509 147.215V147.206Z" fill="#5100CD" stroke="#5100CD" stroke-linecap="round" stroke-linejoin="round"/>
<path d="M317.471 145.434V142.349L320.509 144.085V147.206L317.471 145.434Z" fill="#F5EDFF" stroke="#5100CD" stroke-linecap="round" stroke-linejoin="round"/>
<path d="M367.914 263.495V230.356" stroke="#5100CD" stroke-linecap="round" stroke-linejoin="round"/>
<path d="M48.1599 182.998V196.513V210.027L61.9391 202.173V188.658V175.143L48.1599 182.998Z" fill="#DBC8F6" stroke="#5100CD" stroke-linecap="round" stroke-linejoin="round"/>
<path d="M34.3806 161.629L48.1598 153.774L103.286 185.185L89.5065 193.031L34.3806 161.629Z" fill="#F5EDFF" stroke="#5100CD" stroke-linecap="round" stroke-linejoin="round"/>
<path d="M75.7183 117.603L89.5065 109.748V123.262L75.7183 131.117V117.603Z" fill="#DBC8F6" stroke="#5100CD" stroke-linecap="round" stroke-linejoin="round"/>
<path d="M89.5065 152.487L75.7183 144.632L61.9391 136.786L48.1598 128.931L34.3806 121.085V134.6L48.1598 142.446L61.9391 150.3L75.7183 158.147L89.5065 166.001V179.516V193.031L75.7183 185.185L61.9391 177.33L48.1598 169.484L34.3806 161.629V175.143V188.658V202.173V215.696L48.1598 223.542L61.9391 231.397L75.7183 239.243L89.5065 247.098L103.286 254.944V241.429L89.5065 233.583L75.7183 225.728L61.9391 217.882L48.1598 210.027V196.513V182.998L61.9391 190.844L75.7183 198.699L89.5065 206.545L103.286 214.4V200.885V187.371V173.847V160.333L89.5065 152.487Z" fill="#F5EDFF" stroke="#5100CD" stroke-linecap="round" stroke-linejoin="round"/>
<path d="M117.065 127.635L103.286 119.789L89.5064 111.934L75.7182 104.088L61.939 96.2332V109.748V123.262L75.7182 131.117V117.603L89.5064 125.449L103.286 133.304L117.065 141.15L130.844 149.004V135.49L117.065 127.635Z" fill="#F5EDFF" stroke="#5100CD" stroke-linecap="round" stroke-linejoin="round"/>
<path d="M130.844 149.004V135.49L144.623 127.635V141.15L130.844 149.004Z" fill="#DBC8F6" stroke="#5100CD" stroke-linecap="round" stroke-linejoin="round"/>
<path d="M117.065 168.188V181.702V195.217V208.732V222.246L130.844 230.101V216.586V203.072V189.548V176.034L117.065 168.188Z" fill="#F5EDFF" stroke="#5100CD" stroke-linecap="round" stroke-linejoin="round"/>
<path d="M130.844 176.034V189.548V203.072V216.586V230.101L144.623 222.246V208.732V195.217V181.702V168.188L130.844 176.034Z" fill="#DBC8F6" stroke="#5100CD" stroke-linecap="round" stroke-linejoin="round"/>
<path d="M103.286 160.333V173.847V187.371V200.885V214.4L117.065 206.545V193.031V179.516V166.001V152.487L103.286 160.333Z" fill="#DBC8F6" stroke="#5100CD" stroke-linecap="round" stroke-linejoin="round"/>
<path d="M103.286 241.429L117.065 233.583V247.098L103.286 254.944V241.429Z" fill="#DBC8F6" stroke="#5100CD" stroke-linecap="round" stroke-linejoin="round"/>
<path d="M144.623 168.188L130.844 160.333L117.065 168.188L130.844 176.034L144.623 168.188Z" fill="#F5EDFF" stroke="#5100CD" stroke-linecap="round" stroke-linejoin="round"/>
<path d="M61.939 96.2333L75.7182 88.3872L144.623 127.635L130.844 135.49L61.939 96.2333Z" fill="#F5EDFF" stroke="#5100CD" stroke-linecap="round" stroke-linejoin="round"/>
<path d="M34.3806 121.085L48.1598 113.23L117.065 152.487L103.286 160.333L34.3806 121.085Z" fill="#F5EDFF" stroke="#5100CD" stroke-linecap="round" stroke-linejoin="round"/>
<path d="M48.1599 210.027L61.9391 202.173L117.065 233.583L103.286 241.429L48.1599 210.027Z" fill="#F5EDFF" stroke="#5100CD" stroke-linecap="round" stroke-linejoin="round"/>
<path d="M320.509 41.4871V89.2334L351.752 72.3864L320.509 41.4959V41.4871Z" fill="#F5EDFF" stroke="#5100CD" stroke-linecap="round" stroke-linejoin="round"/>
<path d="M320.509 103.259V89.2247L351.752 72.3777L320.509 103.259Z" fill="#DBC8F6" stroke="#5100CD" stroke-linecap="round" stroke-linejoin="round"/>
<path d="M320.509 41.4871V89.2334L289.265 72.3864L320.509 41.4959V41.4871Z" fill="#F5EDFF" stroke="#5100CD" stroke-linecap="round" stroke-linejoin="round"/>
<path d="M320.509 103.259V89.2247L289.265 72.3777L320.509 103.259Z" fill="#F5EDFF" stroke="#5100CD" stroke-linecap="round" stroke-linejoin="round"/>
<path d="M310.478 255.067L300.788 270.539L314.091 287.73L342.593 296.554L369.603 291.847L379.302 276.375L365.999 259.184L337.488 250.36L310.478 255.067Z" fill="#DBC8F6" stroke="#5100CD" stroke-linecap="round" stroke-linejoin="round"/>
<path d="M339.402 239.569L367.905 248.394L381.207 265.576L371.518 281.056L344.508 285.755L316.005 276.93L302.703 259.748L312.392 244.268L339.402 239.569ZM323.277 251.047L317.156 260.824L325.56 271.685L343.573 277.257L360.633 274.286L366.754 264.509L358.35 253.648L340.337 248.076L323.277 251.047Z" fill="#5100CD" stroke="#5100CD" stroke-linecap="round" stroke-linejoin="round"/>
<path d="M302.703 259.749L300.788 270.539L314.091 287.73L316.005 276.939L302.703 259.749Z" fill="#F5EDFF" stroke="#5100CD" stroke-linecap="round" stroke-linejoin="round"/>
<path d="M344.517 285.764L342.593 296.554L369.603 291.847L371.527 281.056L344.517 285.764Z" fill="#DBC8F6" stroke="#5100CD" stroke-linecap="round" stroke-linejoin="round"/>
<path d="M316.005 276.939L314.091 287.73L342.593 296.554L344.517 285.764L316.005 276.939Z" fill="#F5EDFF" stroke="#5100CD" stroke-linecap="round" stroke-linejoin="round"/>
<path d="M371.527 281.056L369.603 291.847L379.302 276.375L381.216 265.584L371.527 281.056Z" fill="#DBC8F6" stroke="#5100CD" stroke-linecap="round" stroke-linejoin="round"/>
<path d="M323.286 251.047L321.363 261.829L338.432 258.858L340.346 248.076L323.286 251.047Z" fill="#DBC8F6" stroke="#5100CD" stroke-linecap="round" stroke-linejoin="round"/>
<path d="M356.444 264.438L358.359 253.657L366.763 264.509L362.134 271.773L356.444 264.438Z" fill="#F5EDFF" stroke="#5100CD" stroke-linecap="round" stroke-linejoin="round"/>
<path d="M319.772 264.201L321.363 261.829L323.286 251.047L317.156 260.824L319.772 264.201Z" fill="#DBC8F6" stroke="#5100CD" stroke-linecap="round" stroke-linejoin="round"/>
<path d="M340.346 248.076L338.432 258.858L356.444 264.439L358.359 253.657L340.346 248.076Z" fill="#F5EDFF" stroke="#5100CD" stroke-linecap="round" stroke-linejoin="round"/>
<path d="M248.449 155.978C262.016 155.978 273.014 149.588 273.014 141.705C273.014 133.822 262.016 127.432 248.449 127.432C234.882 127.432 223.883 133.822 223.883 141.705C223.883 149.588 234.882 155.978 248.449 155.978Z" fill="#F5EDFF" stroke="#5100CD" stroke-linecap="round" stroke-linejoin="round"/>
<path d="M225.151 146.227L242.381 179.436C242.939 180.873 244.97 181.984 247.505 182.205L243.631 155.695C234.939 154.69 227.91 151.023 225.142 146.219L225.151 146.227Z" fill="#F5EDFF" stroke="#5100CD" stroke-linecap="round" stroke-linejoin="round"/>
<path d="M248.449 155.978C246.804 155.978 245.195 155.881 243.64 155.704L247.514 182.213C247.819 182.24 248.134 182.258 248.449 182.258C248.934 182.258 249.401 182.222 249.851 182.161V155.951C249.383 155.969 248.916 155.978 248.449 155.978Z" fill="#DBC8F6" stroke="#5100CD" stroke-linecap="round" stroke-linejoin="round"/>
<path d="M256.547 155.184C255.253 155.449 253.914 155.651 252.538 155.784C251.657 155.872 250.759 155.925 249.842 155.96V182.169C250.615 182.064 251.343 181.878 251.972 181.623C252.179 181.543 252.368 181.446 252.556 181.349C252.736 181.252 252.916 181.156 253.078 181.05L258.758 154.664C258.039 154.858 257.302 155.034 256.547 155.184Z" fill="#F5EDFF" stroke="#5100CD" stroke-linecap="round" stroke-linejoin="round"/>
<path d="M267.037 151.023C264.763 152.548 261.949 153.8 258.758 154.655L253.078 181.041C253.788 180.574 254.3 180.001 254.525 179.375L256.664 175.258L271.729 146.236C270.704 148.017 269.095 149.639 267.028 151.023H267.037Z" fill="#DBC8F6" stroke="#5100CD" stroke-linecap="round" stroke-linejoin="round"/>
<path d="M226.544 290.41L223.578 288.717L226.544 286.99L229.51 288.717L226.544 290.41Z" fill="#F5EDFF" stroke="#5100CD" stroke-linecap="round" stroke-linejoin="round"/>
<path d="M218.616 294.915L215.65 293.222L218.616 291.485L221.582 293.222L218.616 294.915Z" fill="#F5EDFF" stroke="#5100CD" stroke-linecap="round" stroke-linejoin="round"/>
<path d="M210.679 299.42L207.713 297.727L210.679 295.999L213.645 297.727L210.679 299.42Z" fill="#F5EDFF" stroke="#5100CD" stroke-linecap="round" stroke-linejoin="round"/>
<path d="M202.752 303.924L199.785 302.232L202.752 300.495L205.718 302.232L202.752 303.924Z" fill="#F5EDFF" stroke="#5100CD" stroke-linecap="round" stroke-linejoin="round"/>
<path d="M155.562 290.41L158.529 288.717L155.562 286.99L152.596 288.717L155.562 290.41Z" fill="#F5EDFF" stroke="#5100CD" stroke-linecap="round" stroke-linejoin="round"/>
<path d="M163.49 294.915L166.456 293.222L163.49 291.485L160.524 293.222L163.49 294.915Z" fill="#F5EDFF" stroke="#5100CD" stroke-linecap="round" stroke-linejoin="round"/>
<path d="M171.427 299.42L174.393 297.727L171.427 295.999L168.461 297.727L171.427 299.42Z" fill="#F5EDFF" stroke="#5100CD" stroke-linecap="round" stroke-linejoin="round"/>
<path d="M179.364 303.924L182.33 302.232L179.364 300.495L176.397 302.232L179.364 303.924Z" fill="#F5EDFF" stroke="#5100CD" stroke-linecap="round" stroke-linejoin="round"/>
<path d="M191.058 303.687L231.91 280.404L191.058 256.584L150.205 280.404L191.058 303.687Z" fill="#F5EDFF" stroke="#5100CD" stroke-linecap="round" stroke-linejoin="round"/>
<path d="M231.901 280.404V283.736L191.049 307.019V303.695L231.901 280.413V280.404Z" fill="#DBC8F6" stroke="#5100CD" stroke-linecap="round" stroke-linejoin="round"/>
<path d="M150.205 280.404V283.736L191.058 307.019V303.695L150.205 280.413V280.404Z" fill="#F5EDFF" stroke="#5100CD" stroke-linecap="round" stroke-linejoin="round"/>
<path d="M191.058 274.171L211.992 262.235L191.058 250.025L170.115 262.235L191.058 274.171Z" fill="#F5EDFF" stroke="#5100CD" stroke-linecap="round" stroke-linejoin="round"/>
<path d="M191.058 274.171L190.905 274.436C191.004 274.489 191.121 274.489 191.21 274.436L191.058 274.171ZM211.992 262.235L212.144 262.499C212.234 262.446 212.297 262.349 212.297 262.244C212.297 262.138 212.243 262.041 212.144 261.979L211.992 262.235ZM170.115 262.235L169.962 261.979C169.872 262.032 169.809 262.129 169.809 262.244C169.809 262.349 169.863 262.446 169.962 262.499L170.115 262.235ZM191.058 250.025L191.21 249.769C191.112 249.716 190.995 249.716 190.896 249.769L191.049 250.025H191.058ZM182.393 262.155L182.24 261.9C182.15 261.953 182.087 262.05 182.087 262.164C182.087 262.27 182.141 262.367 182.24 262.42L182.393 262.155ZM191.067 257.095H191.372C191.372 256.989 191.309 256.883 191.219 256.831C191.121 256.778 191.004 256.778 190.914 256.831L191.067 257.086V257.095ZM191.067 257.095H190.761C190.761 257.201 190.815 257.298 190.914 257.351L191.067 257.095ZM199.732 262.147L199.884 262.411C199.983 262.358 200.037 262.261 200.037 262.155C200.037 262.05 199.983 261.953 199.884 261.891L199.732 262.147ZM191.058 267.092L190.905 267.357C191.004 267.41 191.121 267.41 191.21 267.357L191.058 267.092ZM191.21 274.427L212.144 262.49L211.839 261.97L190.905 273.907L191.21 274.427ZM169.962 262.49L190.905 274.427L191.21 273.907L170.267 261.97L169.962 262.49ZM190.896 249.76L169.953 261.97L170.267 262.49L191.21 250.28L190.896 249.76ZM212.144 261.97L191.21 249.76L190.896 250.28L211.83 262.49L212.144 261.97ZM182.231 262.402L184.038 263.434L184.343 262.914L182.537 261.882L182.231 262.402ZM190.896 256.822L182.231 261.882L182.546 262.402L191.21 257.342L190.896 256.822ZM199.884 261.882L191.219 256.831L190.905 257.351L199.57 262.402L199.884 261.882ZM198.078 263.434L199.884 262.402L199.579 261.882L197.772 262.914L198.078 263.434ZM191.21 267.348L198.078 263.434L197.772 262.914L190.905 266.828L191.21 267.348ZM184.038 263.434L190.905 267.348L191.21 266.828L184.343 262.914L184.038 263.434Z" fill="#5100CD"/>
<path d="M182.384 262.155L184.19 263.187C186.456 261.864 191.058 259.184 191.058 259.184V257.104L182.393 262.164L182.384 262.155Z" fill="#DBC8F6" stroke="#5100CD" stroke-linecap="round" stroke-linejoin="round"/>
<path d="M191.058 257.104V259.184L197.925 263.187L199.731 262.155L191.067 257.104H191.058Z" stroke="#5100CD" stroke-linecap="round" stroke-linejoin="round"/>
<path d="M197.916 263.187L191.049 259.184C191.049 259.184 186.447 261.873 184.182 263.187L191.049 267.101L197.916 263.187Z" stroke="#5100CD" stroke-linecap="round" stroke-linejoin="round"/>
<path d="M211.992 262.243V279.699L191.058 291.635V274.18L211.992 262.243Z" fill="#DBC8F6" stroke="#5100CD" stroke-linecap="round" stroke-linejoin="round"/>
<path d="M170.115 262.243L191.058 274.18V291.635L170.115 279.699V262.243Z" fill="#F5EDFF" stroke="#5100CD" stroke-linecap="round" stroke-linejoin="round"/>
<path d="M186.545 255.094V259.51L191.049 256.954V252.537L186.545 255.094Z" fill="#F5EDFF" stroke="#5100CD" stroke-linecap="round" stroke-linejoin="round"/>
<path d="M195.57 255.094V259.51L191.058 256.954V252.537L195.57 255.094Z" fill="#F5EDFF" stroke="#5100CD" stroke-linecap="round" stroke-linejoin="round"/>
<path d="M191.058 262.049V257.633L186.554 255.076V259.493L191.058 262.049Z" fill="#F5EDFF" stroke="#5100CD" stroke-linecap="round" stroke-linejoin="round"/>
<path d="M191.058 262.049V257.633L195.561 255.076V259.493L191.058 262.049Z" fill="#DBC8F6" stroke="#5100CD" stroke-linecap="round" stroke-linejoin="round"/>
<path d="M186.545 255.076L191.049 252.537L195.552 255.076L191.049 257.633L186.545 255.076Z" fill="#F5EDFF" stroke="#5100CD" stroke-linecap="round" stroke-linejoin="round"/>
<path d="M186.545 241.676V246.093L191.049 243.536V239.12L186.545 241.676Z" fill="#F5EDFF" stroke="#5100CD" stroke-linecap="round" stroke-linejoin="round"/>
<path d="M195.57 241.676V246.093L191.058 243.536V239.12L195.57 241.676Z" fill="#F5EDFF" stroke="#5100CD" stroke-linecap="round" stroke-linejoin="round"/>
<path d="M191.058 248.632V244.215L186.554 241.658V246.075L191.058 248.632Z" fill="#F5EDFF" stroke="#5100CD" stroke-linecap="round" stroke-linejoin="round"/>
<path d="M191.058 248.632V244.215L195.561 241.658V246.075L191.058 248.632Z" fill="#DBC8F6" stroke="#5100CD" stroke-linecap="round" stroke-linejoin="round"/>
<path d="M186.545 241.659L191.049 239.12L195.552 241.659L191.049 244.215L186.545 241.659Z" fill="#F5EDFF" stroke="#5100CD" stroke-linecap="round" stroke-linejoin="round"/>
<path d="M186.545 222.581V226.998L191.049 224.441V220.025L186.545 222.581Z" fill="#F5EDFF" stroke="#5100CD" stroke-linecap="round" stroke-linejoin="round"/>
<path d="M195.57 222.581V226.998L191.058 224.441V220.025L195.57 222.581Z" fill="#F5EDFF" stroke="#5100CD" stroke-linecap="round" stroke-linejoin="round"/>
<path d="M191.058 229.537V225.111L186.554 222.555V226.98L191.058 229.537Z" fill="#F5EDFF" stroke="#5100CD" stroke-linecap="round" stroke-linejoin="round"/>
<path d="M191.058 229.537V225.111L195.561 222.555V226.98L191.058 229.537Z" fill="#DBC8F6" stroke="#5100CD" stroke-linecap="round" stroke-linejoin="round"/>
<path d="M186.545 222.555L191.049 220.025L195.552 222.555L191.049 225.111L186.545 222.555Z" fill="#F5EDFF" stroke="#5100CD" stroke-linecap="round" stroke-linejoin="round"/>
<path d="M186.545 194.97V199.396L191.049 196.839V192.422L186.545 194.97Z" fill="#F5EDFF" stroke="#5100CD" stroke-linecap="round" stroke-linejoin="round"/>
<path d="M195.57 194.97V199.396L191.058 196.839V192.422L195.57 194.97Z" fill="#F5EDFF" stroke="#5100CD" stroke-linecap="round" stroke-linejoin="round"/>
<path d="M191.058 201.926V197.509L186.554 194.952V199.369L191.058 201.926Z" fill="#F5EDFF" stroke="#5100CD" stroke-linecap="round" stroke-linejoin="round"/>
<path d="M191.058 201.926V197.509L195.561 194.952V199.369L191.058 201.926Z" fill="#DBC8F6" stroke="#5100CD" stroke-linecap="round" stroke-linejoin="round"/>
<path d="M186.545 194.952L191.049 192.422L195.552 194.952L191.049 197.509L186.545 194.952Z" fill="#F5EDFF" stroke="#5100CD" stroke-linecap="round" stroke-linejoin="round"/>
<path d="M123.051 295.911V299.419L126.629 297.392V293.883L123.051 295.911Z" fill="#F5EDFF" stroke="#5100CD" stroke-linecap="round" stroke-linejoin="round"/>
<path d="M130.215 295.911V299.419L126.638 297.392V293.883L130.215 295.911Z" fill="#F5EDFF" stroke="#5100CD" stroke-linecap="round" stroke-linejoin="round"/>
<path d="M126.638 301.429V297.921L123.06 295.893V299.402L126.638 301.429Z" fill="#F5EDFF" stroke="#5100CD" stroke-linecap="round" stroke-linejoin="round"/>
<path d="M126.638 301.429V297.921L130.215 295.893V299.402L126.638 301.429Z" fill="#F5EDFF" stroke="#5100CD" stroke-linecap="round" stroke-linejoin="round"/>
<path d="M123.06 295.893L126.638 293.883L130.215 295.893L126.638 297.921L123.06 295.893Z" fill="#F5EDFF" stroke="#5100CD" stroke-linecap="round" stroke-linejoin="round"/>
<path d="M127.59 298.503V302.011L131.168 299.984V296.475L127.59 298.503Z" fill="#F5EDFF" stroke="#5100CD" stroke-linecap="round" stroke-linejoin="round"/>
<path d="M134.745 298.503V302.011L131.168 299.984V296.475L134.745 298.503Z" fill="#F5EDFF" stroke="#5100CD" stroke-linecap="round" stroke-linejoin="round"/>
<path d="M131.168 304.021V300.513L127.59 298.485V301.994L131.168 304.021Z" fill="#F5EDFF" stroke="#5100CD" stroke-linecap="round" stroke-linejoin="round"/>
<path d="M131.168 304.021V300.513L134.745 298.485V301.994L131.168 304.021Z" fill="#F5EDFF" stroke="#5100CD" stroke-linecap="round" stroke-linejoin="round"/>
<path d="M127.59 298.485L131.168 296.475L134.745 298.485L131.168 300.513L127.59 298.485Z" fill="#F5EDFF" stroke="#5100CD" stroke-linecap="round" stroke-linejoin="round"/>
<path d="M132.121 301.094V304.603L135.698 302.575V299.067L132.121 301.094Z" fill="#F5EDFF" stroke="#5100CD" stroke-linecap="round" stroke-linejoin="round"/>
<path d="M139.284 301.094V304.603L135.707 302.575V299.067L139.284 301.094Z" fill="#F5EDFF" stroke="#5100CD" stroke-linecap="round" stroke-linejoin="round"/>
<path d="M135.698 306.613V303.104L132.121 301.077V304.585L135.698 306.613Z" fill="#F5EDFF" stroke="#5100CD" stroke-linecap="round" stroke-linejoin="round"/>
<path d="M135.698 306.613V303.104L139.275 301.077V304.585L135.698 306.613Z" fill="#F5EDFF" stroke="#5100CD" stroke-linecap="round" stroke-linejoin="round"/>
<path d="M132.121 301.077L135.698 299.067L139.275 301.077L135.698 303.104L132.121 301.077Z" fill="#F5EDFF" stroke="#5100CD" stroke-linecap="round" stroke-linejoin="round"/>
<path d="M118.521 298.503V302.011L122.099 299.984V296.475L118.521 298.503Z" fill="#F5EDFF" stroke="#5100CD" stroke-linecap="round" stroke-linejoin="round"/>
<path d="M125.676 298.503V302.011L122.099 299.984V296.475L125.676 298.503Z" fill="#F5EDFF" stroke="#5100CD" stroke-linecap="round" stroke-linejoin="round"/>
<path d="M122.099 304.021V300.513L118.521 298.485V301.994L122.099 304.021Z" fill="#F5EDFF" stroke="#5100CD" stroke-linecap="round" stroke-linejoin="round"/>
<path d="M122.099 304.021V300.513L125.676 298.485V301.994L122.099 304.021Z" fill="#F5EDFF" stroke="#5100CD" stroke-linecap="round" stroke-linejoin="round"/>
<path d="M118.521 298.485L122.099 296.475L125.676 298.485L122.099 300.513L118.521 298.485Z" fill="#F5EDFF" stroke="#5100CD" stroke-linecap="round" stroke-linejoin="round"/>
<path d="M123.051 301.094V304.603L126.629 302.575V299.067L123.051 301.094Z" fill="#F5EDFF" stroke="#5100CD" stroke-linecap="round" stroke-linejoin="round"/>
<path d="M130.215 301.094V304.603L126.638 302.575V299.067L130.215 301.094Z" fill="#F5EDFF" stroke="#5100CD" stroke-linecap="round" stroke-linejoin="round"/>
<path d="M126.638 306.613V303.104L123.06 301.077V304.585L126.638 306.613Z" fill="#F5EDFF" stroke="#5100CD" stroke-linecap="round" stroke-linejoin="round"/>
<path d="M126.638 306.613V303.104L130.215 301.077V304.585L126.638 306.613Z" fill="#F5EDFF" stroke="#5100CD" stroke-linecap="round" stroke-linejoin="round"/>
<path d="M123.06 301.077L126.638 299.067L130.215 301.077L126.638 303.104L123.06 301.077Z" fill="#F5EDFF" stroke="#5100CD" stroke-linecap="round" stroke-linejoin="round"/>
<path d="M127.59 303.686V307.195L131.168 305.167V301.659L127.59 303.686Z" fill="#F5EDFF" stroke="#5100CD" stroke-linecap="round" stroke-linejoin="round"/>
<path d="M134.745 303.686V307.195L131.168 305.167V301.659L134.745 303.686Z" fill="#F5EDFF" stroke="#5100CD" stroke-linecap="round" stroke-linejoin="round"/>
<path d="M131.168 309.205V305.696L127.59 303.669V307.177L131.168 309.205Z" fill="#F5EDFF" stroke="#5100CD" stroke-linecap="round" stroke-linejoin="round"/>
<path d="M131.168 309.205V305.696L134.745 303.669V307.177L131.168 309.205Z" fill="#F5EDFF" stroke="#5100CD" stroke-linecap="round" stroke-linejoin="round"/>
<path d="M127.59 303.669L131.168 301.659L134.745 303.669L131.168 305.696L127.59 303.669Z" fill="#F5EDFF" stroke="#5100CD" stroke-linecap="round" stroke-linejoin="round"/>
<path d="M113.991 301.094V304.603L117.568 302.575V299.067L113.991 301.094Z" fill="#F5EDFF" stroke="#5100CD" stroke-linecap="round" stroke-linejoin="round"/>
<path d="M121.146 301.094V304.603L117.568 302.575V299.067L121.146 301.094Z" fill="#F5EDFF" stroke="#5100CD" stroke-linecap="round" stroke-linejoin="round"/>
<path d="M117.568 306.613V303.104L113.991 301.077V304.585L117.568 306.613Z" fill="#F5EDFF" stroke="#5100CD" stroke-linecap="round" stroke-linejoin="round"/>
<path d="M117.568 306.613V303.104L121.146 301.077V304.585L117.568 306.613Z" fill="#F5EDFF" stroke="#5100CD" stroke-linecap="round" stroke-linejoin="round"/>
<path d="M113.991 301.077L117.568 299.067L121.146 301.077L117.568 303.104L113.991 301.077Z" fill="#F5EDFF" stroke="#5100CD" stroke-linecap="round" stroke-linejoin="round"/>
<path d="M118.521 303.686V307.195L122.099 305.167V301.659L118.521 303.686Z" fill="#F5EDFF" stroke="#5100CD" stroke-linecap="round" stroke-linejoin="round"/>
<path d="M125.676 303.686V307.195L122.099 305.167V301.659L125.676 303.686Z" fill="#F5EDFF" stroke="#5100CD" stroke-linecap="round" stroke-linejoin="round"/>
<path d="M122.099 309.205V305.696L118.521 303.669V307.177L122.099 309.205Z" fill="#F5EDFF" stroke="#5100CD" stroke-linecap="round" stroke-linejoin="round"/>
<path d="M122.099 309.205V305.696L125.676 303.669V307.177L122.099 309.205Z" fill="#F5EDFF" stroke="#5100CD" stroke-linecap="round" stroke-linejoin="round"/>
<path d="M118.521 303.669L122.099 301.659L125.676 303.669L122.099 305.696L118.521 303.669Z" fill="#F5EDFF" stroke="#5100CD" stroke-linecap="round" stroke-linejoin="round"/>
<path d="M123.051 306.278V309.787L126.629 307.759V304.25L123.051 306.278Z" fill="#F5EDFF" stroke="#5100CD" stroke-linecap="round" stroke-linejoin="round"/>
<path d="M130.215 306.278V309.787L126.638 307.759V304.25L130.215 306.278Z" fill="#F5EDFF" stroke="#5100CD" stroke-linecap="round" stroke-linejoin="round"/>
<path d="M126.638 311.797V308.288L123.06 306.26V309.769L126.638 311.797Z" fill="#F5EDFF" stroke="#5100CD" stroke-linecap="round" stroke-linejoin="round"/>
<path d="M126.638 311.797V308.288L130.215 306.26V309.769L126.638 311.797Z" fill="#F5EDFF" stroke="#5100CD" stroke-linecap="round" stroke-linejoin="round"/>
<path d="M123.06 306.26L126.638 304.25L130.215 306.26L126.638 308.288L123.06 306.26Z" fill="#F5EDFF" stroke="#5100CD" stroke-linecap="round" stroke-linejoin="round"/>
<path d="M109.434 303.686V307.195L113.011 305.167V301.659L109.434 303.686Z" fill="#F5EDFF" stroke="#5100CD" stroke-linecap="round" stroke-linejoin="round"/>
<path d="M116.598 303.686V307.195L113.02 305.167V301.659L116.598 303.686Z" fill="#F5EDFF" stroke="#5100CD" stroke-linecap="round" stroke-linejoin="round"/>
<path d="M113.02 309.205V305.696L109.443 303.669V307.177L113.02 309.205Z" fill="#F5EDFF" stroke="#5100CD" stroke-linecap="round" stroke-linejoin="round"/>
<path d="M113.02 309.205V305.696L116.598 303.669V307.177L113.02 309.205Z" fill="#F5EDFF" stroke="#5100CD" stroke-linecap="round" stroke-linejoin="round"/>
<path d="M109.443 303.669L113.02 301.659L116.598 303.669L113.02 305.696L109.443 303.669Z" fill="#F5EDFF" stroke="#5100CD" stroke-linecap="round" stroke-linejoin="round"/>
<path d="M113.973 306.278V309.787L117.55 307.759V304.25L113.973 306.278Z" fill="#F5EDFF" stroke="#5100CD" stroke-linecap="round" stroke-linejoin="round"/>
<path d="M121.128 306.278V309.787L117.55 307.759V304.25L121.128 306.278Z" fill="#F5EDFF" stroke="#5100CD" stroke-linecap="round" stroke-linejoin="round"/>
<path d="M117.55 311.797V308.288L113.973 306.26V309.769L117.55 311.797Z" fill="#F5EDFF" stroke="#5100CD" stroke-linecap="round" stroke-linejoin="round"/>
<path d="M117.55 311.797V308.288L121.128 306.26V309.769L117.55 311.797Z" fill="#F5EDFF" stroke="#5100CD" stroke-linecap="round" stroke-linejoin="round"/>
<path d="M113.973 306.26L117.55 304.25L121.128 306.26L117.55 308.288L113.973 306.26Z" fill="#F5EDFF" stroke="#5100CD" stroke-linecap="round" stroke-linejoin="round"/>
<path d="M118.503 308.87V312.379L122.081 310.351V306.842L118.503 308.87Z" fill="#F5EDFF" stroke="#5100CD" stroke-linecap="round" stroke-linejoin="round"/>
<path d="M125.667 308.87V312.379L122.09 310.351V306.842L125.667 308.87Z" fill="#F5EDFF" stroke="#5100CD" stroke-linecap="round" stroke-linejoin="round"/>
<path d="M122.081 314.397V310.889L118.503 308.861V312.37L122.081 314.397Z" fill="#F5EDFF" stroke="#5100CD" stroke-linecap="round" stroke-linejoin="round"/>
<path d="M122.081 314.397V310.889L125.658 308.861V312.37L122.081 314.397Z" fill="#F5EDFF" stroke="#5100CD" stroke-linecap="round" stroke-linejoin="round"/>
<path d="M118.503 308.861L122.081 306.851L125.658 308.861L122.081 310.889L118.503 308.861Z" fill="#F5EDFF" stroke="#5100CD" stroke-linecap="round" stroke-linejoin="round"/>
<path d="M140.237 301.659V305.167L143.814 307.195V303.686L140.237 301.659Z" fill="#F5EDFF" stroke="#5100CD" stroke-linecap="round" stroke-linejoin="round"/>
<path d="M140.228 301.659V305.167L136.651 307.195V303.686L140.228 301.659Z" fill="#F5EDFF" stroke="#5100CD" stroke-linecap="round" stroke-linejoin="round"/>
<path d="M143.814 307.186V303.677L140.237 305.705V309.214L143.814 307.186Z" fill="#DBC8F6" stroke="#5100CD" stroke-linecap="round" stroke-linejoin="round"/>
<path d="M136.66 307.186V303.677L140.237 305.705V309.214L136.66 307.186Z" fill="#F5EDFF" stroke="#5100CD" stroke-linecap="round" stroke-linejoin="round"/>
<path d="M140.237 305.696L136.66 303.669L140.237 301.659L143.814 303.669L140.237 305.696Z" fill="#F5EDFF" stroke="#5100CD" stroke-linecap="round" stroke-linejoin="round"/>
<path d="M135.707 304.259V307.768L139.284 309.796V306.287L135.707 304.259Z" fill="#F5EDFF" stroke="#5100CD" stroke-linecap="round" stroke-linejoin="round"/>
<path d="M135.698 304.259V307.768L132.121 309.796V306.287L135.698 304.259Z" fill="#F5EDFF" stroke="#5100CD" stroke-linecap="round" stroke-linejoin="round"/>
<path d="M139.275 309.778V306.269L135.698 308.297V311.806L139.275 309.778Z" fill="#DBC8F6" stroke="#5100CD" stroke-linecap="round" stroke-linejoin="round"/>
<path d="M132.121 309.778V306.269L135.698 308.297V311.806L132.121 309.778Z" fill="#F5EDFF" stroke="#5100CD" stroke-linecap="round" stroke-linejoin="round"/>
<path d="M135.698 308.288L132.121 306.26L135.698 304.25L139.275 306.26L135.698 308.288Z" fill="#F5EDFF" stroke="#5100CD" stroke-linecap="round" stroke-linejoin="round"/>
<path d="M131.168 306.851V310.36L134.745 312.387V308.879L131.168 306.851Z" fill="#F5EDFF" stroke="#5100CD" stroke-linecap="round" stroke-linejoin="round"/>
<path d="M131.168 306.851V310.36L127.59 312.387V308.879L131.168 306.851Z" fill="#F5EDFF" stroke="#5100CD" stroke-linecap="round" stroke-linejoin="round"/>
<path d="M134.745 312.37V308.861L131.168 310.889V314.397L134.745 312.37Z" fill="#DBC8F6" stroke="#5100CD" stroke-linecap="round" stroke-linejoin="round"/>
<path d="M127.59 312.37V308.861L131.168 310.889V314.397L127.59 312.37Z" fill="#F5EDFF" stroke="#5100CD" stroke-linecap="round" stroke-linejoin="round"/>
<path d="M131.168 310.88L127.59 308.852L131.168 306.842L134.745 308.852L131.168 310.88Z" fill="#F5EDFF" stroke="#5100CD" stroke-linecap="round" stroke-linejoin="round"/>
<path d="M123.042 311.462V314.97L126.62 312.943V309.434L123.042 311.462Z" fill="#F5EDFF" stroke="#5100CD" stroke-linecap="round" stroke-linejoin="round"/>
<path d="M130.197 311.462V314.97L126.62 312.943V309.434L130.197 311.462Z" fill="#F5EDFF" stroke="#5100CD" stroke-linecap="round" stroke-linejoin="round"/>
<path d="M126.62 316.989V313.481L123.042 311.453V314.962L126.62 316.989Z" fill="#F5EDFF" stroke="#5100CD" stroke-linecap="round" stroke-linejoin="round"/>
<path d="M126.62 316.989V313.481L130.197 311.453V314.962L126.62 316.989Z" fill="#DBC8F6" stroke="#5100CD" stroke-linecap="round" stroke-linejoin="round"/>
<path d="M123.042 311.453L126.62 309.443L130.197 311.453L126.62 313.48L123.042 311.453Z" fill="#F5EDFF" stroke="#5100CD" stroke-linecap="round" stroke-linejoin="round"/>
<path d="M126.611 305.308L139.554 297.93L126.611 290.392L113.676 297.93L126.611 305.308Z" fill="#F5EDFF" stroke="#5100CD" stroke-linecap="round" stroke-linejoin="round"/>
<path d="M121.262 297.885L122.377 298.52C123.779 297.709 126.62 296.043 126.62 296.043V294.756L121.262 297.877V297.885Z" fill="#DBC8F6" stroke="#5100CD" stroke-linecap="round" stroke-linejoin="round"/>
<path d="M126.611 294.756V296.043L130.853 298.52L131.968 297.885L126.611 294.756Z" fill="#F5EDFF" stroke="#5100CD" stroke-linecap="round" stroke-linejoin="round"/>
<path d="M130.853 298.52L126.61 296.043C126.61 296.043 123.77 297.7 122.368 298.52L126.61 300.936L130.853 298.52Z" fill="#F5EDFF" stroke="#5100CD" stroke-linecap="round" stroke-linejoin="round"/>
<path d="M126.611 310.774V305.308L139.554 297.93V303.492L126.611 310.774Z" fill="#DBC8F6" stroke="#5100CD" stroke-linecap="round" stroke-linejoin="round"/>
<path d="M113.676 303.237V297.93L126.611 305.308V310.774L113.676 303.237Z" fill="#F5EDFF" stroke="#5100CD" stroke-linecap="round" stroke-linejoin="round"/>
<path d="M378.843 213.245H373.064L375.356 204.641L364.21 217.9H369.99L367.698 226.504L378.843 213.245Z" fill="#5100CD" stroke="#5100CD" stroke-linecap="round" stroke-linejoin="round"/>
<path d="M359.68 213.747C360.489 208.687 364.57 204.702 369.738 203.944" stroke="#5100CD" stroke-linecap="round" stroke-linejoin="round"/>
<path d="M369.307 201.176C362.907 202.12 357.856 207.048 356.858 213.307" stroke="#5100CD" stroke-linecap="round" stroke-linejoin="round"/>
<path d="M373.738 229.96C380.138 229.017 385.189 224.089 386.187 217.829" stroke="#5100CD" stroke-linecap="round" stroke-linejoin="round"/>
<path d="M383.374 217.397C382.565 222.457 378.484 226.442 373.316 227.2" stroke="#5100CD" stroke-linecap="round" stroke-linejoin="round"/>
<path d="M362.521 214.188C363.132 210.336 366.233 207.312 370.17 206.73" stroke="#5100CD" stroke-linecap="round" stroke-linejoin="round"/>
<path d="M369.738 203.944C364.57 204.702 360.489 208.687 359.68 213.747" stroke="#5100CD" stroke-linecap="round" stroke-linejoin="round"/>
<path d="M380.533 216.957C379.922 220.8 376.821 223.833 372.884 224.415" stroke="#5100CD" stroke-linecap="round" stroke-linejoin="round"/>
<path d="M373.316 227.2C378.484 226.442 382.565 222.457 383.374 217.397" stroke="#5100CD" stroke-linecap="round" stroke-linejoin="round"/>
<path d="M372.884 224.415C376.812 223.833 379.922 220.809 380.533 216.957" stroke="#5100CD" stroke-linecap="round" stroke-linejoin="round"/>
<path d="M370.161 206.73C366.233 207.312 363.123 210.336 362.511 214.188" stroke="#5100CD" stroke-linecap="round" stroke-linejoin="round"/>
<path d="M172.991 90.8555L140.417 72.2983V43.4883L172.991 62.0367V90.8555Z" fill="#F5EDFF" stroke="#5100CD" stroke-linecap="round" stroke-linejoin="round"/>
<path d="M172.083 79.1041L167.077 76.2478C165.288 75.2251 163.832 72.9771 163.832 71.2228C163.832 69.4684 165.279 68.869 167.077 69.8916L172.083 72.7479C173.872 73.7705 175.328 76.0186 175.328 77.7729C175.328 79.5273 173.881 80.1267 172.083 79.1041Z" fill="#F5EDFF" stroke="#5100CD" stroke-linecap="round" stroke-linejoin="round"/>
<path d="M136.183 45.8597L140.417 43.4883L172.991 62.0367L168.757 64.4081L136.183 45.8597Z" fill="#F5EDFF" stroke="#5100CD" stroke-linecap="round" stroke-linejoin="round"/>
<path d="M170.384 81.7224L170.222 81.8106C170.276 81.7841 170.33 81.7577 170.384 81.7224Z" fill="#F5EDFF" stroke="#5100CD" stroke-linecap="round" stroke-linejoin="round"/>
<path d="M168.757 93.2269L172.991 90.8554V62.0366L168.757 64.4081V93.2269Z" fill="#DBC8F6" stroke="#5100CD" stroke-linecap="round" stroke-linejoin="round"/>
<path d="M168.757 93.2269L136.183 74.6696V45.8596L168.757 64.408V93.2269Z" fill="#F5EDFF" stroke="#5100CD" stroke-linecap="round" stroke-linejoin="round"/>
<path d="M167.84 81.4754L162.834 78.6191C161.045 77.5965 159.589 75.3485 159.589 73.5941C159.589 71.8398 161.036 71.2403 162.834 72.2629L167.84 75.1192C169.629 76.1419 171.085 78.3899 171.085 80.1442C171.085 81.8986 169.638 82.4981 167.84 81.4754Z" fill="#F5EDFF" stroke="#5100CD" stroke-linecap="round" stroke-linejoin="round"/>
<path d="M167.84 81.4754L162.834 78.6191C161.045 77.5965 159.589 75.3485 159.589 73.5941C159.589 71.8398 161.036 71.2403 162.834 72.2629L167.84 75.1192C169.629 76.1419 171.085 78.3899 171.085 80.1442C171.085 81.8986 169.638 82.4981 167.84 81.4754Z" fill="#DBC8F6" stroke="#5100CD" stroke-linecap="round" stroke-linejoin="round"/>
<path d="M166.978 82.0042L161.971 79.1479C160.182 78.1253 158.726 75.8773 158.726 74.1229C158.726 72.3686 160.173 71.7691 161.971 72.7917L166.978 75.6481C168.766 76.6707 170.222 78.9187 170.222 80.6731C170.222 82.4274 168.775 83.0269 166.978 82.0042Z" fill="#F5EDFF" stroke="#5100CD" stroke-linecap="round" stroke-linejoin="round"/>
<path d="M175.238 78.4165L173.216 79.5449L171.004 80.7791C170.897 81.2023 170.681 81.5109 170.375 81.7136L172.416 80.5764L174.456 79.4303L174.618 79.3422C174.914 79.1394 175.139 78.8308 175.247 78.4165H175.238Z" fill="#F5EDFF" stroke="#5100CD" stroke-linecap="round" stroke-linejoin="round"/>
<path d="M172.91 73.3208L170.618 74.6079L168.757 75.6482V75.7628C169.557 76.4504 170.231 77.3584 170.645 78.2841C170.924 78.9188 171.094 79.5536 171.094 80.1442C171.094 80.3823 171.067 80.5938 171.013 80.7878L173.225 79.5536L175.247 78.4251C175.301 78.2312 175.328 78.0196 175.328 77.7816C175.328 76.3094 174.303 74.4845 172.91 73.3296V73.3208Z" fill="#DBC8F6" stroke="#5100CD" stroke-linecap="round" stroke-linejoin="round"/>
<path d="M172.91 73.3208L168.757 75.6482L170.609 74.6079L172.91 73.3208Z" fill="#F5EDFF" stroke="#5100CD" stroke-linecap="round" stroke-linejoin="round"/>
<path d="M158.169 64.1085L155.499 69.9269L157.612 70.9584L153.468 75.5955C152.201 77.0501 149.846 77.0148 147.32 75.5778C143.347 73.3122 140.183 68.4106 140.183 64.514C140.183 62.028 141.522 60.4852 143.734 60.5028H150.87L150.691 62.4688L158.178 64.1173L158.169 64.1085ZM146.924 73.1447C149.387 74.5464 151.419 73.7442 151.419 71.2934C151.419 68.8426 149.378 65.7218 146.924 64.3201C144.471 62.9184 142.43 63.7559 142.43 66.1714C142.43 68.5869 144.435 71.7253 146.924 73.1447ZM146.924 67.626C146.924 68.2431 146.394 68.4282 145.801 68.0844C145.172 67.723 144.677 66.9648 144.677 66.3389C144.677 65.757 145.172 65.519 145.801 65.8805C146.394 66.2243 146.924 67.0353 146.924 67.626ZM147.491 71.2581C147.176 71.0818 146.924 70.6939 146.924 70.3853C146.924 70.112 147.167 69.971 147.491 70.1561C147.769 70.3148 148.057 70.7556 148.057 71.0289C148.057 71.3374 147.778 71.4168 147.491 71.2581Z" fill="#5100CD"/>
</svg>
