<svg width="427" height="336" viewBox="0 0 427 336" fill="none" xmlns="http://www.w3.org/2000/svg">
<path d="M289.382 119.654V58.9219" stroke="#5100CD" stroke-linecap="round" stroke-linejoin="round"/>
<path d="M134.898 84.338L177.665 59.98" stroke="#5100CD" stroke-linecap="round" stroke-linejoin="round"/>
<path d="M177.665 59.9712L289.382 119.645" stroke="#5100CD" stroke-linecap="round" stroke-linejoin="round"/>
<path d="M199.399 72.2691L201.916 70.8321L199.399 69.3687L196.873 70.8321L199.399 72.2691Z" fill="#F5EDFF" stroke="#5100CD" stroke-linecap="round" stroke-linejoin="round"/>
<path d="M199.399 74.852V72.269L201.916 70.832V73.4415L199.399 74.8608V74.852Z" fill="#5100CD" stroke="#5100CD" stroke-linecap="round" stroke-linejoin="round"/>
<path d="M196.882 73.3798V70.8232L199.408 72.2602V74.8432L196.882 73.3798Z" fill="#F5EDFF" stroke="#5100CD" stroke-linecap="round" stroke-linejoin="round"/>
<path d="M289.382 119.654L291.899 118.217L289.382 116.753L286.856 118.217L289.382 119.654Z" fill="#F5EDFF" stroke="#5100CD" stroke-linecap="round" stroke-linejoin="round"/>
<path d="M289.382 122.228V119.645L291.899 118.208V120.817L289.382 122.237V122.228Z" fill="#5100CD" stroke="#5100CD" stroke-linecap="round" stroke-linejoin="round"/>
<path d="M286.856 120.765V118.208L289.382 119.645V122.228L286.856 120.765Z" fill="#F5EDFF" stroke="#5100CD" stroke-linecap="round" stroke-linejoin="round"/>
<path d="M177.674 62.5629V59.9799L180.191 58.5518V61.1524L177.674 62.5718V62.5629Z" fill="#5100CD" stroke="#5100CD" stroke-linecap="round" stroke-linejoin="round"/>
<path d="M175.148 61.0907V58.543L177.674 59.9711V62.5542L175.148 61.0907Z" fill="#F5EDFF" stroke="#5100CD" stroke-linecap="round" stroke-linejoin="round"/>
<path d="M177.674 59.98L180.191 58.5518L177.674 57.0796L175.148 58.5518L177.674 59.98Z" fill="#F5EDFF" stroke="#5100CD" stroke-linecap="round" stroke-linejoin="round"/>
<path d="M231.173 280.084L141.837 229.199" stroke="#5100CD" stroke-linecap="round" stroke-linejoin="round"/>
<path d="M231.173 280.251L290.64 246.381" stroke="#5100CD" stroke-linecap="round" stroke-linejoin="round"/>
<path d="M108.967 278.85L168.434 244.979" stroke="#5100CD" stroke-linecap="round" stroke-linejoin="round"/>
<path d="M183.247 252.252L243.28 218.056" stroke="#5100CD" stroke-linecap="round" stroke-linejoin="round"/>
<path d="M231.173 280.286L234.211 278.55L231.173 276.787L228.135 278.55L231.173 280.286Z" fill="#F5EDFF" stroke="#5100CD" stroke-linecap="round" stroke-linejoin="round"/>
<path d="M231.173 283.407V280.287L234.211 278.55V281.697L231.173 283.416V283.407Z" fill="#5100CD" stroke="#5100CD" stroke-linecap="round" stroke-linejoin="round"/>
<path d="M228.135 281.635V278.55L231.173 280.287V283.407L228.135 281.635Z" fill="#F5EDFF" stroke="#5100CD" stroke-linecap="round" stroke-linejoin="round"/>
<path d="M199.642 262.769L202.68 261.033L199.642 259.27L196.604 261.033L199.642 262.769Z" fill="#F5EDFF" stroke="#5100CD" stroke-linecap="round" stroke-linejoin="round"/>
<path d="M199.642 265.89V262.769L202.68 261.033V264.18L199.642 265.899V265.89Z" fill="#5100CD" stroke="#5100CD" stroke-linecap="round" stroke-linejoin="round"/>
<path d="M196.594 264.118V261.033L199.633 262.769V265.89L196.594 264.118Z" fill="#F5EDFF" stroke="#5100CD" stroke-linecap="round" stroke-linejoin="round"/>
<path d="M183.247 253.002L186.285 251.265L183.247 249.502L180.209 251.265L183.247 253.002Z" fill="#F5EDFF" stroke="#5100CD" stroke-linecap="round" stroke-linejoin="round"/>
<path d="M183.247 256.123V253.002L186.285 251.265V254.412L183.247 256.131V256.123Z" fill="#5100CD" stroke="#5100CD" stroke-linecap="round" stroke-linejoin="round"/>
<path d="M180.209 254.351V251.265L183.247 253.002V256.123L180.209 254.351Z" fill="#F5EDFF" stroke="#5100CD" stroke-linecap="round" stroke-linejoin="round"/>
<path d="M230.148 225.92L233.186 224.183L230.148 222.42L227.11 224.183L230.148 225.92Z" fill="#F5EDFF" stroke="#5100CD" stroke-linecap="round" stroke-linejoin="round"/>
<path d="M230.148 229.049V225.929L233.186 224.192V227.339L230.148 229.058V229.049Z" fill="#5100CD" stroke="#5100CD" stroke-linecap="round" stroke-linejoin="round"/>
<path d="M227.11 227.269V224.183L230.148 225.92V229.041L227.11 227.269Z" fill="#F5EDFF" stroke="#5100CD" stroke-linecap="round" stroke-linejoin="round"/>
<path d="M168.434 244.971L171.472 243.234L168.434 241.471L165.396 243.234L168.434 244.971Z" fill="#F5EDFF" stroke="#5100CD" stroke-linecap="round" stroke-linejoin="round"/>
<path d="M168.434 248.091V244.971L171.472 243.234V246.381L168.434 248.1V248.091Z" fill="#5100CD" stroke="#5100CD" stroke-linecap="round" stroke-linejoin="round"/>
<path d="M165.396 246.319V243.234L168.434 244.971V248.091L165.396 246.319Z" fill="#F5EDFF" stroke="#5100CD" stroke-linecap="round" stroke-linejoin="round"/>
<path d="M131.123 266.084L134.161 264.348L131.123 262.584L128.085 264.348L131.123 266.084Z" fill="#F5EDFF" stroke="#5100CD" stroke-linecap="round" stroke-linejoin="round"/>
<path d="M131.123 269.205V266.084L134.161 264.348V267.495L131.123 269.214V269.205Z" fill="#5100CD" stroke="#5100CD" stroke-linecap="round" stroke-linejoin="round"/>
<path d="M128.076 267.433V264.348L131.114 266.084V269.205L128.076 267.433Z" fill="#F5EDFF" stroke="#5100CD" stroke-linecap="round" stroke-linejoin="round"/>
<path d="M243.28 217.721V156.989" stroke="#5100CD" stroke-linecap="round" stroke-linejoin="round"/>
<path d="M243.28 218.056L246.318 216.319L243.28 214.556L240.242 216.319L243.28 218.056Z" fill="#F5EDFF" stroke="#5100CD" stroke-linecap="round" stroke-linejoin="round"/>
<path d="M243.28 221.177V218.056L246.318 216.319V219.467L243.28 221.186V221.177Z" fill="#5100CD" stroke="#5100CD" stroke-linecap="round" stroke-linejoin="round"/>
<path d="M240.242 219.405V216.319L243.28 218.056V221.177L240.242 219.405Z" fill="#F5EDFF" stroke="#5100CD" stroke-linecap="round" stroke-linejoin="round"/>
<path d="M81.5698 164.465V177.98V191.494L95.3491 183.648V170.134V156.61L81.5698 164.465Z" fill="#DBC8F6" stroke="#5100CD" stroke-linecap="round" stroke-linejoin="round"/>
<path d="M67.7905 143.096L81.5698 135.25L136.696 166.651L122.916 174.497L67.7905 143.096Z" fill="#F5EDFF" stroke="#5100CD" stroke-linecap="round" stroke-linejoin="round"/>
<path d="M109.128 99.0697L122.916 91.2236V104.738L109.128 112.584V99.0697Z" fill="#DBC8F6" stroke="#5100CD" stroke-linecap="round" stroke-linejoin="round"/>
<path d="M122.916 133.954L109.128 126.099L95.349 118.253L81.5698 110.398L67.7905 102.552V116.066L81.5698 123.921L95.349 131.767L109.128 139.622L122.916 147.468V160.983V174.497L109.128 166.651L95.349 158.796L81.5698 150.95L67.7905 143.096V156.61V170.134V183.648V197.163L81.5698 205.009L95.349 212.864L109.128 220.719L122.916 228.565L136.696 236.419V222.896L122.916 215.05L109.128 207.195L95.349 199.349L81.5698 191.494V177.98V164.465L95.349 172.32L109.128 180.166L122.916 188.021L136.696 195.867V182.352V168.838V155.323V141.808L122.916 133.954Z" fill="#F5EDFF" stroke="#5100CD" stroke-linecap="round" stroke-linejoin="round"/>
<path d="M150.475 109.111L136.696 101.256L122.916 93.4099L109.128 85.5551L95.3489 77.7002V91.2236V104.738L109.128 112.584V99.0697L122.916 106.925L136.696 114.771L150.475 122.625L164.254 130.472V116.957L150.475 109.111Z" fill="#F5EDFF" stroke="#5100CD" stroke-linecap="round" stroke-linejoin="round"/>
<path d="M164.254 130.471V116.957L178.033 109.111V122.625L164.254 130.471Z" fill="#DBC8F6" stroke="#5100CD" stroke-linecap="round" stroke-linejoin="round"/>
<path d="M150.475 149.655V163.169V176.684V190.199V203.722L164.254 211.568V198.053V184.539V171.024V157.51L150.475 149.655Z" fill="#F5EDFF" stroke="#5100CD" stroke-linecap="round" stroke-linejoin="round"/>
<path d="M164.254 157.51V171.024V184.539V198.053V211.568L178.033 203.722V190.199V176.684V163.169V149.655L164.254 157.51Z" fill="#DBC8F6" stroke="#5100CD" stroke-linecap="round" stroke-linejoin="round"/>
<path d="M136.696 141.808V155.323V168.838V182.352V195.867L150.475 188.021V174.497V160.983V147.468V133.954L136.696 141.808Z" fill="#DBC8F6" stroke="#5100CD" stroke-linecap="round" stroke-linejoin="round"/>
<path d="M136.696 222.896L150.475 215.05V228.565L136.696 236.42V222.896Z" fill="#DBC8F6" stroke="#5100CD" stroke-linecap="round" stroke-linejoin="round"/>
<path d="M178.033 149.655L164.254 141.8L150.475 149.655L164.254 157.51L178.033 149.655Z" fill="#F5EDFF" stroke="#5100CD" stroke-linecap="round" stroke-linejoin="round"/>
<path d="M95.3489 77.7001L109.128 69.854L178.033 109.111L164.254 116.957L95.3489 77.7001Z" fill="#F5EDFF" stroke="#5100CD" stroke-linecap="round" stroke-linejoin="round"/>
<path d="M67.7905 102.552L81.5698 94.6968L150.475 133.953L136.696 141.808L67.7905 102.552Z" fill="#F5EDFF" stroke="#5100CD" stroke-linecap="round" stroke-linejoin="round"/>
<path d="M81.5698 191.494L95.3491 183.648L150.475 215.05L136.696 222.896L81.5698 191.494Z" fill="#F5EDFF" stroke="#5100CD" stroke-linecap="round" stroke-linejoin="round"/>
<path d="M289.382 34.3525V85.9866L323.169 67.7644L289.382 34.3525Z" fill="#F5EDFF" stroke="#5100CD" stroke-linecap="round" stroke-linejoin="round"/>
<path d="M289.382 101.158V85.9864L323.169 67.7642L289.382 101.158Z" fill="#DBC8F6" stroke="#5100CD" stroke-linecap="round" stroke-linejoin="round"/>
<path d="M289.382 34.3525V85.9866L255.594 67.7644L289.382 34.3525Z" fill="#F5EDFF" stroke="#5100CD" stroke-linecap="round" stroke-linejoin="round"/>
<path d="M289.382 101.158V85.9864L255.594 67.7642L289.382 101.158Z" fill="#F5EDFF" stroke="#5100CD" stroke-linecap="round" stroke-linejoin="round"/>
<path d="M284.42 222.773L271.108 244.027L289.382 267.627L328.526 279.749L365.622 273.287L378.933 252.032L360.669 228.432L321.515 216.311L284.42 222.773Z" stroke="#5100CD" stroke-linecap="round" stroke-linejoin="round"/>
<path d="M324.149 201.491L363.303 213.613L381.576 237.213L368.264 258.468L331.169 264.93L292.016 252.808L273.742 229.208L287.054 207.953L324.149 201.491ZM302.002 217.254L293.588 230.68L305.13 245.588L329.866 253.249L353.298 249.167L361.712 235.741L350.171 220.833L325.434 213.172L302.002 217.254Z" fill="#5100CD" stroke="#5100CD" stroke-linecap="round" stroke-linejoin="round"/>
<path d="M273.742 229.208L271.108 244.027L289.382 267.627L292.006 252.808L273.742 229.208Z" fill="#F5EDFF" stroke="#5100CD" stroke-linecap="round" stroke-linejoin="round"/>
<path d="M331.16 264.93L328.526 279.749L365.622 273.287L368.255 258.468L331.16 264.93Z" fill="#DBC8F6" stroke="#5100CD" stroke-linecap="round" stroke-linejoin="round"/>
<path d="M292.006 252.808L289.382 267.627L328.526 279.749L331.16 264.93L292.006 252.808Z" fill="#F5EDFF" stroke="#5100CD" stroke-linecap="round" stroke-linejoin="round"/>
<path d="M368.255 258.468L365.622 273.287L378.933 252.032L381.567 237.213L368.255 258.468Z" fill="#DBC8F6" stroke="#5100CD" stroke-linecap="round" stroke-linejoin="round"/>
<path d="M302.002 217.254L299.368 232.064L322.81 227.982L325.434 213.172L302.002 217.254Z" fill="#DBC8F6" stroke="#5100CD" stroke-linecap="round" stroke-linejoin="round"/>
<path d="M347.546 235.635L350.171 220.833L361.712 235.741L355.357 245.711L347.546 235.635Z" fill="#F5EDFF" stroke="#5100CD" stroke-linecap="round" stroke-linejoin="round"/>
<path d="M297.175 235.317L299.368 232.064L302.002 217.254L293.588 230.68L297.175 235.317Z" fill="#DBC8F6" stroke="#5100CD" stroke-linecap="round" stroke-linejoin="round"/>
<path d="M325.434 213.172L322.81 227.982L347.546 235.635L350.17 220.833L325.434 213.172Z" fill="#F5EDFF" stroke="#5100CD" stroke-linecap="round" stroke-linejoin="round"/>
<path d="M65.5706 256.969V264.33L73.0759 260.081V252.72L65.5706 256.969Z" fill="#F5EDFF" stroke="#5100CD" stroke-linecap="round" stroke-linejoin="round"/>
<path d="M80.5903 256.969V264.33L73.085 260.081V252.72L80.5903 256.969Z" fill="#F5EDFF" stroke="#5100CD" stroke-linecap="round" stroke-linejoin="round"/>
<path d="M73.0759 268.553V261.183L65.5706 256.934V264.304L73.0759 268.553Z" fill="#F5EDFF" stroke="#5100CD" stroke-linecap="round" stroke-linejoin="round"/>
<path d="M73.0759 268.553V261.183L80.5812 256.934V264.304L73.0759 268.553Z" fill="#F5EDFF" stroke="#5100CD" stroke-linecap="round" stroke-linejoin="round"/>
<path d="M65.5706 256.934L73.0849 252.72L80.5812 256.934L73.0759 261.183L65.5706 256.934Z" fill="#F5EDFF" stroke="#5100CD" stroke-linecap="round" stroke-linejoin="round"/>
<path d="M75.0801 262.408V269.77L82.5854 265.52V258.159L75.0801 262.408Z" fill="#F5EDFF" stroke="#5100CD" stroke-linecap="round" stroke-linejoin="round"/>
<path d="M90.1086 262.408V269.77L82.6033 265.52V258.159L90.1086 262.408Z" fill="#F5EDFF" stroke="#5100CD" stroke-linecap="round" stroke-linejoin="round"/>
<path d="M82.5944 273.992V266.622L75.0891 262.373V269.743L82.5944 273.992Z" fill="#F5EDFF" stroke="#5100CD" stroke-linecap="round" stroke-linejoin="round"/>
<path d="M82.5945 273.992V266.622L90.0998 262.373V269.743L82.5945 273.992Z" fill="#F5EDFF" stroke="#5100CD" stroke-linecap="round" stroke-linejoin="round"/>
<path d="M75.0891 262.373L82.6034 258.159L90.0997 262.373L82.5944 266.622L75.0891 262.373Z" fill="#F5EDFF" stroke="#5100CD" stroke-linecap="round" stroke-linejoin="round"/>
<path d="M84.5989 267.848V275.209L92.1042 270.96V263.599L84.5989 267.848Z" fill="#F5EDFF" stroke="#5100CD" stroke-linecap="round" stroke-linejoin="round"/>
<path d="M99.6186 267.848V275.209L92.1133 270.96V263.599L99.6186 267.848Z" fill="#F5EDFF" stroke="#5100CD" stroke-linecap="round" stroke-linejoin="round"/>
<path d="M92.1042 279.44V272.07L84.5989 267.821V275.191L92.1042 279.44Z" fill="#F5EDFF" stroke="#5100CD" stroke-linecap="round" stroke-linejoin="round"/>
<path d="M92.1042 279.44V272.07L99.6096 267.821V275.191L92.1042 279.44Z" fill="#F5EDFF" stroke="#5100CD" stroke-linecap="round" stroke-linejoin="round"/>
<path d="M84.5989 267.821L92.1132 263.607L99.6095 267.821L92.1042 272.071L84.5989 267.821Z" fill="#F5EDFF" stroke="#5100CD" stroke-linecap="round" stroke-linejoin="round"/>
<path d="M56.0518 262.408V269.77L63.5571 265.52V258.159L56.0518 262.408Z" fill="#F5EDFF" stroke="#5100CD" stroke-linecap="round" stroke-linejoin="round"/>
<path d="M71.0803 262.408V269.77L63.575 265.52V258.159L71.0803 262.408Z" fill="#F5EDFF" stroke="#5100CD" stroke-linecap="round" stroke-linejoin="round"/>
<path d="M63.5661 273.992V266.622L56.0608 262.373V269.743L63.5661 273.992Z" fill="#F5EDFF" stroke="#5100CD" stroke-linecap="round" stroke-linejoin="round"/>
<path d="M63.5662 273.992V266.622L71.0715 262.373V269.743L63.5662 273.992Z" fill="#F5EDFF" stroke="#5100CD" stroke-linecap="round" stroke-linejoin="round"/>
<path d="M56.0608 262.373L63.5751 258.159L71.0714 262.373L63.5661 266.622L56.0608 262.373Z" fill="#F5EDFF" stroke="#5100CD" stroke-linecap="round" stroke-linejoin="round"/>
<path d="M65.5706 267.848V275.209L73.0759 270.96V263.599L65.5706 267.848Z" fill="#F5EDFF" stroke="#5100CD" stroke-linecap="round" stroke-linejoin="round"/>
<path d="M80.5903 267.848V275.209L73.085 270.96V263.599L80.5903 267.848Z" fill="#F5EDFF" stroke="#5100CD" stroke-linecap="round" stroke-linejoin="round"/>
<path d="M73.0759 279.44V272.07L65.5706 267.821V275.191L73.0759 279.44Z" fill="#F5EDFF" stroke="#5100CD" stroke-linecap="round" stroke-linejoin="round"/>
<path d="M73.0759 279.44V272.07L80.5812 267.821V275.191L73.0759 279.44Z" fill="#F5EDFF" stroke="#5100CD" stroke-linecap="round" stroke-linejoin="round"/>
<path d="M65.5706 267.821L73.0849 263.607L80.5812 267.821L73.0759 272.071L65.5706 267.821Z" fill="#F5EDFF" stroke="#5100CD" stroke-linecap="round" stroke-linejoin="round"/>
<path d="M75.0801 273.296V280.657L82.5854 276.408V269.046L75.0801 273.296Z" fill="#F5EDFF" stroke="#5100CD" stroke-linecap="round" stroke-linejoin="round"/>
<path d="M90.1086 273.296V280.657L82.6033 276.408V269.046L90.1086 273.296Z" fill="#F5EDFF" stroke="#5100CD" stroke-linecap="round" stroke-linejoin="round"/>
<path d="M82.5944 284.879V277.509L75.0891 273.26V280.63L82.5944 284.879Z" fill="#F5EDFF" stroke="#5100CD" stroke-linecap="round" stroke-linejoin="round"/>
<path d="M82.5945 284.879V277.509L90.0998 273.26V280.63L82.5945 284.879Z" fill="#F5EDFF" stroke="#5100CD" stroke-linecap="round" stroke-linejoin="round"/>
<path d="M75.0891 273.26L82.6034 269.046L90.0997 273.26L82.5944 277.51L75.0891 273.26Z" fill="#F5EDFF" stroke="#5100CD" stroke-linecap="round" stroke-linejoin="round"/>
<path d="M46.542 267.848V275.209L54.0473 270.96V263.599L46.542 267.848Z" fill="#F5EDFF" stroke="#5100CD" stroke-linecap="round" stroke-linejoin="round"/>
<path d="M61.5617 267.848V275.209L54.0564 270.96V263.599L61.5617 267.848Z" fill="#F5EDFF" stroke="#5100CD" stroke-linecap="round" stroke-linejoin="round"/>
<path d="M54.0473 279.44V272.07L46.542 267.821V275.191L54.0473 279.44Z" fill="#F5EDFF" stroke="#5100CD" stroke-linecap="round" stroke-linejoin="round"/>
<path d="M54.0564 279.44V272.07L61.5617 267.821V275.191L54.0564 279.44Z" fill="#F5EDFF" stroke="#5100CD" stroke-linecap="round" stroke-linejoin="round"/>
<path d="M46.542 267.821L54.0563 263.607L61.5526 267.821L54.0473 272.071L46.542 267.821Z" fill="#F5EDFF" stroke="#5100CD" stroke-linecap="round" stroke-linejoin="round"/>
<path d="M56.0518 273.296V280.657L63.5571 276.408V269.046L56.0518 273.296Z" fill="#F5EDFF" stroke="#5100CD" stroke-linecap="round" stroke-linejoin="round"/>
<path d="M71.0803 273.296V280.657L63.575 276.408V269.046L71.0803 273.296Z" fill="#F5EDFF" stroke="#5100CD" stroke-linecap="round" stroke-linejoin="round"/>
<path d="M63.5661 284.879V277.509L56.0608 273.26V280.63L63.5661 284.879Z" fill="#F5EDFF" stroke="#5100CD" stroke-linecap="round" stroke-linejoin="round"/>
<path d="M63.5662 284.879V277.509L71.0715 273.26V280.63L63.5662 284.879Z" fill="#F5EDFF" stroke="#5100CD" stroke-linecap="round" stroke-linejoin="round"/>
<path d="M56.0608 273.26L63.5751 269.046L71.0714 273.26L63.5661 277.51L56.0608 273.26Z" fill="#F5EDFF" stroke="#5100CD" stroke-linecap="round" stroke-linejoin="round"/>
<path d="M65.5706 278.735V286.096L73.0759 281.847V274.486L65.5706 278.735Z" fill="#F5EDFF" stroke="#5100CD" stroke-linecap="round" stroke-linejoin="round"/>
<path d="M80.5903 278.735V286.096L73.085 281.847V274.486L80.5903 278.735Z" fill="#F5EDFF" stroke="#5100CD" stroke-linecap="round" stroke-linejoin="round"/>
<path d="M73.0759 290.319V282.949L65.5706 278.7V286.07L73.0759 290.319Z" fill="#F5EDFF" stroke="#5100CD" stroke-linecap="round" stroke-linejoin="round"/>
<path d="M73.0759 290.319V282.949L80.5812 278.7V286.07L73.0759 290.319Z" fill="#F5EDFF" stroke="#5100CD" stroke-linecap="round" stroke-linejoin="round"/>
<path d="M65.5706 278.7L73.0849 274.486L80.5812 278.7L73.0759 282.949L65.5706 278.7Z" fill="#F5EDFF" stroke="#5100CD" stroke-linecap="round" stroke-linejoin="round"/>
<path d="M36.9873 273.296V280.657L44.4926 276.408V269.046L36.9873 273.296Z" fill="#F5EDFF" stroke="#5100CD" stroke-linecap="round" stroke-linejoin="round"/>
<path d="M52.0158 273.296V280.657L44.5105 276.408V269.046L52.0158 273.296Z" fill="#F5EDFF" stroke="#5100CD" stroke-linecap="round" stroke-linejoin="round"/>
<path d="M44.5017 284.879V277.509L36.9963 273.26V280.63L44.5017 284.879Z" fill="#F5EDFF" stroke="#5100CD" stroke-linecap="round" stroke-linejoin="round"/>
<path d="M44.5017 284.879V277.509L52.007 273.26V280.63L44.5017 284.879Z" fill="#F5EDFF" stroke="#5100CD" stroke-linecap="round" stroke-linejoin="round"/>
<path d="M36.9963 273.26L44.5106 269.046L52.007 273.26L44.5017 277.51L36.9963 273.26Z" fill="#F5EDFF" stroke="#5100CD" stroke-linecap="round" stroke-linejoin="round"/>
<path d="M46.5061 278.735V286.096L54.0114 281.847V274.486L46.5061 278.735Z" fill="#F5EDFF" stroke="#5100CD" stroke-linecap="round" stroke-linejoin="round"/>
<path d="M61.5258 278.735V286.096L54.0205 281.847V274.486L61.5258 278.735Z" fill="#F5EDFF" stroke="#5100CD" stroke-linecap="round" stroke-linejoin="round"/>
<path d="M54.0205 290.319V282.949L46.5151 278.7V286.07L54.0205 290.319Z" fill="#F5EDFF" stroke="#5100CD" stroke-linecap="round" stroke-linejoin="round"/>
<path d="M54.0205 290.319V282.949L61.5258 278.7V286.07L54.0205 290.319Z" fill="#F5EDFF" stroke="#5100CD" stroke-linecap="round" stroke-linejoin="round"/>
<path d="M46.5151 278.7L54.0294 274.486L61.5258 278.7L54.0205 282.949L46.5151 278.7Z" fill="#F5EDFF" stroke="#5100CD" stroke-linecap="round" stroke-linejoin="round"/>
<path d="M56.0159 284.175V291.536L63.5212 287.286V279.925L56.0159 284.175Z" fill="#F5EDFF" stroke="#5100CD" stroke-linecap="round" stroke-linejoin="round"/>
<path d="M71.0444 284.175V291.536L63.5391 287.286V279.925L71.0444 284.175Z" fill="#F5EDFF" stroke="#5100CD" stroke-linecap="round" stroke-linejoin="round"/>
<path d="M63.5302 295.758V288.388L56.0249 284.139V291.509L63.5302 295.758Z" fill="#F5EDFF" stroke="#5100CD" stroke-linecap="round" stroke-linejoin="round"/>
<path d="M63.5303 295.758V288.388L71.0356 284.139V291.509L63.5303 295.758Z" fill="#F5EDFF" stroke="#5100CD" stroke-linecap="round" stroke-linejoin="round"/>
<path d="M56.0249 284.139L63.5392 279.925L71.0355 284.139L63.5302 288.388L56.0249 284.139Z" fill="#F5EDFF" stroke="#5100CD" stroke-linecap="round" stroke-linejoin="round"/>
<path d="M101.623 269.038V276.399L109.128 280.648V273.287L101.623 269.038Z" fill="#F5EDFF" stroke="#5100CD" stroke-linecap="round" stroke-linejoin="round"/>
<path d="M101.614 269.038V276.399L94.1086 280.648V273.287L101.614 269.038Z" fill="#F5EDFF" stroke="#5100CD" stroke-linecap="round" stroke-linejoin="round"/>
<path d="M109.128 280.621V273.251L101.623 277.501V284.871L109.128 280.621Z" fill="#F1E9FD" stroke="#5100CD" stroke-linecap="round" stroke-linejoin="round"/>
<path d="M94.1177 280.621V273.251L101.623 277.501V284.871L94.1177 280.621Z" fill="#F5EDFF" stroke="#5100CD" stroke-linecap="round" stroke-linejoin="round"/>
<path d="M101.623 277.51L94.1177 273.26L101.614 269.046L109.128 273.26L101.623 277.51Z" fill="#F5EDFF" stroke="#5100CD" stroke-linecap="round" stroke-linejoin="round"/>
<path d="M92.1133 274.477V281.838L99.6186 286.087V278.726L92.1133 274.477Z" fill="#F5EDFF" stroke="#5100CD" stroke-linecap="round" stroke-linejoin="round"/>
<path d="M92.1042 274.477V281.838L84.5989 286.087V278.726L92.1042 274.477Z" fill="#F5EDFF" stroke="#5100CD" stroke-linecap="round" stroke-linejoin="round"/>
<path d="M99.6096 286.061V278.691L92.1042 282.94V290.31L99.6096 286.061Z" fill="#F1E9FD" stroke="#5100CD" stroke-linecap="round" stroke-linejoin="round"/>
<path d="M84.5989 286.061V278.691L92.1042 282.94V290.31L84.5989 286.061Z" fill="#F5EDFF" stroke="#5100CD" stroke-linecap="round" stroke-linejoin="round"/>
<path d="M92.1042 282.949L84.5989 278.7L92.0952 274.486L99.6095 278.7L92.1042 282.949Z" fill="#F5EDFF" stroke="#5100CD" stroke-linecap="round" stroke-linejoin="round"/>
<path d="M82.5945 279.925V287.286L90.0998 291.536V284.175L82.5945 279.925Z" fill="#F5EDFF" stroke="#5100CD" stroke-linecap="round" stroke-linejoin="round"/>
<path d="M82.5854 279.925V287.286L75.0801 291.536V284.175L82.5854 279.925Z" fill="#F5EDFF" stroke="#5100CD" stroke-linecap="round" stroke-linejoin="round"/>
<path d="M90.0998 291.509V284.139L82.5945 288.388V295.758L90.0998 291.509Z" fill="#F1E9FD" stroke="#5100CD" stroke-linecap="round" stroke-linejoin="round"/>
<path d="M75.0891 291.509V284.139L82.5944 288.388V295.758L75.0891 291.509Z" fill="#F5EDFF" stroke="#5100CD" stroke-linecap="round" stroke-linejoin="round"/>
<path d="M82.5944 288.388L75.0891 284.139L82.5854 279.925L90.0997 284.139L82.5944 288.388Z" fill="#F5EDFF" stroke="#5100CD" stroke-linecap="round" stroke-linejoin="round"/>
<path d="M65.5344 289.614V296.975L73.0397 292.726V285.365L65.5344 289.614Z" fill="#F5EDFF" stroke="#5100CD" stroke-linecap="round" stroke-linejoin="round"/>
<path d="M80.5542 289.614V296.975L73.0488 292.726V285.365L80.5542 289.614Z" fill="#F5EDFF" stroke="#5100CD" stroke-linecap="round" stroke-linejoin="round"/>
<path d="M73.0488 301.198V293.828L65.5435 289.579V296.949L73.0488 301.198Z" fill="#F5EDFF" stroke="#5100CD" stroke-linecap="round" stroke-linejoin="round"/>
<path d="M73.0488 301.198V293.828L80.5542 289.579V296.949L73.0488 301.198Z" fill="#F1E9FD" stroke="#5100CD" stroke-linecap="round" stroke-linejoin="round"/>
<path d="M65.5344 289.579L73.0487 285.365L80.5451 289.579L73.0397 293.828L65.5344 289.579Z" fill="#F5EDFF" stroke="#5100CD" stroke-linecap="round" stroke-linejoin="round"/>
<path d="M73.0398 276.681L100.185 261.209L73.0398 245.385L45.8948 261.209L73.0398 276.681Z" fill="#F5EDFF" stroke="#5100CD" stroke-linecap="round" stroke-linejoin="round"/>
<path d="M61.7952 261.103L64.1322 262.435C67.0624 260.724 73.0307 257.242 73.0307 257.242V254.544L61.7952 261.103Z" fill="#F1E9FD" stroke="#5100CD" stroke-linecap="round" stroke-linejoin="round"/>
<path d="M73.0396 254.553V257.251L81.9381 262.443L84.2751 261.103L73.0396 254.553Z" fill="#F5EDFF" stroke="#5100CD" stroke-linecap="round" stroke-linejoin="round"/>
<path d="M81.9382 262.443L73.0396 257.251C73.0396 257.251 67.0713 260.733 64.1411 262.443L73.0396 267.513L81.9382 262.443Z" fill="#F5EDFF" stroke="#5100CD" stroke-linecap="round" stroke-linejoin="round"/>
<path d="M73.0398 288.168V276.681L100.185 261.209V272.872L73.0398 288.168Z" fill="#DBC8F6" stroke="#5100CD" stroke-linecap="round" stroke-linejoin="round"/>
<path d="M45.8948 272.335V261.209L73.0398 276.681V288.168L45.8948 272.335Z" fill="#F5EDFF" stroke="#5100CD" stroke-linecap="round" stroke-linejoin="round"/>
<path d="M243.163 162.411C259.56 162.411 272.852 154.683 272.852 145.149C272.852 135.616 259.56 127.888 243.163 127.888C226.767 127.888 213.475 135.616 213.475 145.149C213.475 154.683 226.767 162.411 243.163 162.411Z" fill="#F5EDFF" stroke="#5100CD" stroke-linecap="round" stroke-linejoin="round"/>
<path d="M252.961 161.441L248.143 193.072C248.368 192.957 248.574 192.843 248.772 192.71L255.639 160.815C254.767 161.053 253.878 161.256 252.97 161.441H252.961Z" fill="#DBC8F6" stroke="#5100CD" stroke-linecap="round" stroke-linejoin="round"/>
<path d="M215.012 150.615L235.838 190.762C236.512 192.499 238.966 193.839 242.031 194.104L237.357 162.058C226.858 160.85 218.346 156.416 215.012 150.606V150.615Z" fill="#DBC8F6" stroke="#5100CD" stroke-linecap="round" stroke-linejoin="round"/>
<path d="M244.862 162.376V194.051C245.797 193.927 246.678 193.698 247.442 193.39L248.116 162.164C247.046 162.27 245.968 162.34 244.862 162.376Z" fill="#DBC8F6" stroke="#5100CD" stroke-linecap="round" stroke-linejoin="round"/>
<path d="M265.643 156.416L253.114 185.711L271.324 150.624C270.084 152.775 268.142 154.732 265.643 156.416Z" fill="#DBC8F6" stroke="#5100CD" stroke-linecap="round" stroke-linejoin="round"/>
<path d="M243.163 162.402C241.177 162.402 239.236 162.287 237.357 162.067L242.031 194.112C242.399 194.148 242.777 194.165 243.163 194.165C243.748 194.165 244.314 194.121 244.862 194.051V162.375C244.296 162.393 243.739 162.411 243.163 162.411V162.402Z" fill="#DBC8F6" stroke="#5100CD" stroke-linecap="round" stroke-linejoin="round"/>
<path d="M248.116 162.164L247.442 193.389C247.685 193.292 247.918 193.178 248.143 193.063L252.961 161.432C251.397 161.749 249.779 161.996 248.116 162.155V162.164Z" fill="#DBC8F6" stroke="#5100CD" stroke-linecap="round" stroke-linejoin="round"/>
<path d="M255.639 160.806L248.772 192.702C249.635 192.138 250.255 191.45 250.525 190.683L253.105 185.702L265.634 156.407C262.893 158.259 259.486 159.757 255.63 160.797L255.639 160.806Z" fill="#DBC8F6" stroke="#5100CD" stroke-linecap="round" stroke-linejoin="round"/>
<rect x="334.47" y="167.237" width="26.7629" height="26.2105" rx="13.1053" fill="white"/>
<rect x="334.47" y="167.237" width="26.7629" height="26.2105" rx="13.1053" stroke="#5100CD" stroke-width="2"/>
<path d="M349.321 184.002H352.327V186.342H343.687V184.002H346.693V176.766L344.101 178.35L342.877 176.352L346.549 174.102H349.321V184.002Z" fill="#5100CD"/>
</svg>
