<svg width="427" height="335" viewBox="0 0 427 335" fill="none" xmlns="http://www.w3.org/2000/svg">
<path d="M102.755 116.307L161.333 82.939" stroke="#5100CD" stroke-linecap="round" stroke-linejoin="round"/>
<path d="M88.4729 109.166L147.05 75.7983" stroke="#5100CD" stroke-linecap="round" stroke-linejoin="round"/>
<path d="M111.483 98.7104V96.1274L114 94.6992V97.2999L111.483 98.7192V98.7104Z" fill="#5100CD" stroke="#5100CD" stroke-linecap="round" stroke-linejoin="round"/>
<path d="M108.967 97.2382V94.6904L111.492 96.1186V98.7016L108.967 97.2382Z" fill="#F5EDFF" stroke="#5100CD" stroke-linecap="round" stroke-linejoin="round"/>
<path d="M111.483 96.1274L114 94.6993L111.483 93.2271L108.958 94.6993L111.483 96.1274Z" fill="#F5EDFF" stroke="#5100CD" stroke-linecap="round" stroke-linejoin="round"/>
<path d="M144.201 95.2285V92.6454L146.718 91.2173V93.8179L144.201 95.2373V95.2285Z" fill="#5100CD" stroke="#5100CD" stroke-linecap="round" stroke-linejoin="round"/>
<path d="M141.684 93.7651V91.2173L144.21 92.6454V95.2285L141.684 93.7651Z" fill="#F5EDFF" stroke="#5100CD" stroke-linecap="round" stroke-linejoin="round"/>
<path d="M144.201 92.6455L146.718 91.2174L144.201 89.7451L141.675 91.2174L144.201 92.6455Z" fill="#F5EDFF" stroke="#5100CD" stroke-linecap="round" stroke-linejoin="round"/>
<path d="M189.889 289.704L110.512 244.497" stroke="#5100CD" stroke-linecap="round" stroke-linejoin="round"/>
<path d="M132.157 304.26L104.365 288.436" stroke="#5100CD" stroke-linecap="round" stroke-linejoin="round"/>
<path d="M335.807 274.18L280.987 242.954" stroke="#5100CD" stroke-linecap="round" stroke-linejoin="round"/>
<path d="M221.699 276.622L371.365 191.364" stroke="#5100CD" stroke-linecap="round" stroke-linejoin="round"/>
<path d="M225.555 176.607L242.732 166.821" stroke="#5100CD" stroke-linecap="round" stroke-linejoin="round"/>
<path d="M102.126 286.628L143.113 263.284" stroke="#5100CD" stroke-linecap="round" stroke-linejoin="round"/>
<path d="M128.408 303.986L192.64 267.4" stroke="#5100CD" stroke-linecap="round" stroke-linejoin="round"/>
<path d="M143.104 263.116L146.143 261.379L143.104 259.616L140.066 261.379L143.104 263.116Z" fill="#F5EDFF" stroke="#5100CD" stroke-linecap="round" stroke-linejoin="round"/>
<path d="M143.104 266.236V263.116L146.143 261.379V264.526L143.104 266.245V266.236Z" fill="#5100CD" stroke="#5100CD" stroke-linecap="round" stroke-linejoin="round"/>
<path d="M140.066 264.464V261.379L143.104 263.116V266.236L140.066 264.464Z" fill="#F5EDFF" stroke="#5100CD" stroke-linecap="round" stroke-linejoin="round"/>
<path d="M103.286 287.175L106.324 285.438L103.286 283.675L100.248 285.438L103.286 287.175Z" fill="#F5EDFF" stroke="#5100CD" stroke-linecap="round" stroke-linejoin="round"/>
<path d="M103.286 290.295V287.174L106.324 285.438V288.585L103.286 290.304V290.295Z" fill="#5100CD" stroke="#5100CD" stroke-linecap="round" stroke-linejoin="round"/>
<path d="M100.248 288.523V285.438L103.286 287.174V290.295L100.248 288.523Z" fill="#F5EDFF" stroke="#5100CD" stroke-linecap="round" stroke-linejoin="round"/>
<path d="M144.624 293.575L147.662 291.838L144.624 290.075L141.585 291.838L144.624 293.575Z" fill="#F5EDFF" stroke="#5100CD" stroke-linecap="round" stroke-linejoin="round"/>
<path d="M144.624 296.695V293.575L147.662 291.838V294.985L144.624 296.704V296.695Z" fill="#5100CD" stroke="#5100CD" stroke-linecap="round" stroke-linejoin="round"/>
<path d="M141.585 294.923V291.838L144.624 293.575V296.695L141.585 294.923Z" fill="#F5EDFF" stroke="#5100CD" stroke-linecap="round" stroke-linejoin="round"/>
<path d="M251.487 259.501V169.818" stroke="#5100CD" stroke-linecap="round" stroke-linejoin="round"/>
<path d="M225.142 176.369V136.76" stroke="#5100CD" stroke-linecap="round" stroke-linejoin="round"/>
<path d="M250.3 164.891V125.281" stroke="#5100CD" stroke-linecap="round" stroke-linejoin="round"/>
<path d="M239.37 169.766V130.156" stroke="#5100CD" stroke-linecap="round" stroke-linejoin="round"/>
<path d="M241.833 168.232V128.623" stroke="#5100CD" stroke-linecap="round" stroke-linejoin="round"/>
<path d="M234.148 171.714V132.105" stroke="#5100CD" stroke-linecap="round" stroke-linejoin="round"/>
<path d="M327.628 216.225V172.816" stroke="#5100CD" stroke-linecap="round" stroke-linejoin="round"/>
<path d="M371.365 191.206V81.7139" stroke="#5100CD" stroke-linecap="round" stroke-linejoin="round"/>
<path d="M251.487 259.502L254.525 257.765L251.487 256.002L248.449 257.765L251.487 259.502Z" fill="#F5EDFF" stroke="#5100CD" stroke-linecap="round" stroke-linejoin="round"/>
<path d="M251.487 262.622V259.501L254.525 257.765V260.912L251.487 262.631V262.622Z" fill="#5100CD" stroke="#5100CD" stroke-linecap="round" stroke-linejoin="round"/>
<path d="M248.449 260.85V257.765L251.487 259.501V262.622L248.449 260.85Z" fill="#F5EDFF" stroke="#5100CD" stroke-linecap="round" stroke-linejoin="round"/>
<path d="M251.487 226.866L254.525 225.129L251.487 223.366L248.449 225.129L251.487 226.866Z" fill="#F5EDFF" stroke="#5100CD" stroke-linecap="round" stroke-linejoin="round"/>
<path d="M251.487 229.986V226.866L254.525 225.129V228.276L251.487 229.995V229.986Z" fill="#5100CD" stroke="#5100CD" stroke-linecap="round" stroke-linejoin="round"/>
<path d="M248.449 228.214V225.129L251.487 226.866V229.986L248.449 228.214Z" fill="#F5EDFF" stroke="#5100CD" stroke-linecap="round" stroke-linejoin="round"/>
<path d="M225.142 176.554L228.18 174.817L225.142 173.054L222.104 174.817L225.142 176.554Z" fill="#F5EDFF" stroke="#5100CD" stroke-linecap="round" stroke-linejoin="round"/>
<path d="M225.142 179.683V176.562L228.18 174.825V177.972L225.142 179.692V179.683Z" fill="#5100CD" stroke="#5100CD" stroke-linecap="round" stroke-linejoin="round"/>
<path d="M222.104 177.902V174.816L225.142 176.553V179.674L222.104 177.902Z" fill="#F5EDFF" stroke="#5100CD" stroke-linecap="round" stroke-linejoin="round"/>
<path d="M234.148 159.954L237.186 158.217L234.148 156.454L231.11 158.217L234.148 159.954Z" fill="#F5EDFF" stroke="#5100CD" stroke-linecap="round" stroke-linejoin="round"/>
<path d="M234.148 163.084V159.963L237.186 158.226V161.373L234.148 163.092V163.084Z" fill="#5100CD" stroke="#5100CD" stroke-linecap="round" stroke-linejoin="round"/>
<path d="M231.11 161.312V158.226L234.148 159.963V163.084L231.11 161.312Z" fill="#F5EDFF" stroke="#5100CD" stroke-linecap="round" stroke-linejoin="round"/>
<path d="M250.3 151.182L253.338 149.445L250.3 147.682L247.262 149.445L250.3 151.182Z" fill="#F5EDFF" stroke="#5100CD" stroke-linecap="round" stroke-linejoin="round"/>
<path d="M250.3 154.303V151.182L253.338 149.445V152.593L250.3 154.312V154.303Z" fill="#5100CD" stroke="#5100CD" stroke-linecap="round" stroke-linejoin="round"/>
<path d="M247.262 152.531V149.445L250.3 151.182V154.303L247.262 152.531Z" fill="#F5EDFF" stroke="#5100CD" stroke-linecap="round" stroke-linejoin="round"/>
<path d="M280.987 243.148L284.025 241.412L280.987 239.648L277.949 241.412L280.987 243.148Z" fill="#F5EDFF" stroke="#5100CD" stroke-linecap="round" stroke-linejoin="round"/>
<path d="M280.987 246.269V243.148L284.025 241.411V244.558L280.987 246.277V246.269Z" fill="#5100CD" stroke="#5100CD" stroke-linecap="round" stroke-linejoin="round"/>
<path d="M277.949 244.497V241.411L280.987 243.148V246.269L277.949 244.497Z" fill="#F5EDFF" stroke="#5100CD" stroke-linecap="round" stroke-linejoin="round"/>
<path d="M327.627 216.225L330.666 214.489L327.627 212.726L324.589 214.489L327.627 216.225Z" fill="#F5EDFF" stroke="#5100CD" stroke-linecap="round" stroke-linejoin="round"/>
<path d="M327.627 219.346V216.225L330.666 214.488V217.636L327.627 219.355V219.346Z" fill="#5100CD" stroke="#5100CD" stroke-linecap="round" stroke-linejoin="round"/>
<path d="M324.589 217.574V214.488L327.627 216.225V219.346L324.589 217.574Z" fill="#F5EDFF" stroke="#5100CD" stroke-linecap="round" stroke-linejoin="round"/>
<path d="M371.365 190.941L374.403 189.205L371.365 187.441L368.327 189.205L371.365 190.941Z" fill="#F5EDFF" stroke="#5100CD" stroke-linecap="round" stroke-linejoin="round"/>
<path d="M371.365 194.062V190.941L374.403 189.204V192.351L371.365 194.07V194.062Z" fill="#5100CD" stroke="#5100CD" stroke-linecap="round" stroke-linejoin="round"/>
<path d="M368.327 192.29V189.204L371.365 190.941V194.062L368.327 192.29Z" fill="#F5EDFF" stroke="#5100CD" stroke-linecap="round" stroke-linejoin="round"/>
<path d="M371.365 145.848L374.403 144.112L371.365 142.349L368.327 144.112L371.365 145.848Z" fill="#F5EDFF" stroke="#5100CD" stroke-linecap="round" stroke-linejoin="round"/>
<path d="M371.365 148.978V145.857L374.403 144.121V147.268L371.365 148.987V148.978Z" fill="#5100CD" stroke="#5100CD" stroke-linecap="round" stroke-linejoin="round"/>
<path d="M368.327 147.197V144.112L371.365 145.849V148.969L368.327 147.197Z" fill="#F5EDFF" stroke="#5100CD" stroke-linecap="round" stroke-linejoin="round"/>
<path d="M48.1599 182.998V196.513V210.028L61.9391 202.173V188.658V175.144L48.1599 182.998Z" fill="#DBC8F6" stroke="#5100CD" stroke-linecap="round" stroke-linejoin="round"/>
<path d="M34.3806 161.629L48.1598 153.774L103.286 185.185L89.5065 193.031L34.3806 161.629Z" fill="#F5EDFF" stroke="#5100CD" stroke-linecap="round" stroke-linejoin="round"/>
<path d="M75.7183 117.603L89.5065 109.748V123.263L75.7183 131.118V117.603Z" fill="#DBC8F6" stroke="#5100CD" stroke-linecap="round" stroke-linejoin="round"/>
<path d="M89.5065 152.487L75.7183 144.632L61.9391 136.786L48.1598 128.931L34.3806 121.085V134.6L48.1598 142.446L61.9391 150.3L75.7183 158.147L89.5065 166.001V179.516V193.031L75.7183 185.185L61.9391 177.33L48.1598 169.484L34.3806 161.629V175.143V188.658V202.173V215.696L48.1598 223.542L61.9391 231.397L75.7183 239.243L89.5065 247.098L103.286 254.944V241.429L89.5065 233.583L75.7183 225.728L61.9391 217.882L48.1598 210.027V196.513V182.998L61.9391 190.844L75.7183 198.699L89.5065 206.545L103.286 214.4V200.885V187.371V173.847V160.333L89.5065 152.487Z" fill="#F5EDFF" stroke="#5100CD" stroke-linecap="round" stroke-linejoin="round"/>
<path d="M117.065 127.635L103.286 119.789L89.5064 111.934L75.7182 104.088L61.939 96.2334V109.748V123.263L75.7182 131.117V117.603L89.5064 125.449L103.286 133.304L117.065 141.15L130.844 149.005V135.49L117.065 127.635Z" fill="#F5EDFF" stroke="#5100CD" stroke-linecap="round" stroke-linejoin="round"/>
<path d="M130.844 149.005V135.49L144.623 127.635V141.15L130.844 149.005Z" fill="#DBC8F6" stroke="#5100CD" stroke-linecap="round" stroke-linejoin="round"/>
<path d="M117.065 168.188V181.702V195.217V208.731V222.246L130.844 230.101V216.586V203.072V189.548V176.034L117.065 168.188Z" fill="#F5EDFF" stroke="#5100CD" stroke-linecap="round" stroke-linejoin="round"/>
<path d="M130.844 176.034V189.548V203.072V216.586V230.101L144.623 222.246V208.731V195.217V181.702V168.188L130.844 176.034Z" fill="#DBC8F6" stroke="#5100CD" stroke-linecap="round" stroke-linejoin="round"/>
<path d="M103.286 160.333V173.847V187.371V200.885V214.4L117.065 206.545V193.031V179.516V166.001V152.487L103.286 160.333Z" fill="#DBC8F6" stroke="#5100CD" stroke-linecap="round" stroke-linejoin="round"/>
<path d="M103.286 241.429L117.065 233.583V247.098L103.286 254.944V241.429Z" fill="#DBC8F6" stroke="#5100CD" stroke-linecap="round" stroke-linejoin="round"/>
<path d="M144.623 168.188L130.844 160.333L117.065 168.188L130.844 176.034L144.623 168.188Z" fill="#F5EDFF" stroke="#5100CD" stroke-linecap="round" stroke-linejoin="round"/>
<path d="M61.939 96.2333L75.7182 88.3872L144.623 127.635L130.844 135.49L61.939 96.2333Z" fill="#F5EDFF" stroke="#5100CD" stroke-linecap="round" stroke-linejoin="round"/>
<path d="M34.3806 121.085L48.1598 113.23L117.065 152.487L103.286 160.333L34.3806 121.085Z" fill="#F5EDFF" stroke="#5100CD" stroke-linecap="round" stroke-linejoin="round"/>
<path d="M48.1599 210.028L61.9391 202.173L117.065 233.583L103.286 241.43L48.1599 210.028Z" fill="#F5EDFF" stroke="#5100CD" stroke-linecap="round" stroke-linejoin="round"/>
<path d="M371.644 62.3364V110.083L402.887 93.2358L371.644 62.3452V62.3364Z" fill="#F5EDFF" stroke="#5100CD" stroke-linecap="round" stroke-linejoin="round"/>
<path d="M371.644 124.109V110.074L402.887 93.2271L371.644 124.109Z" fill="#DBC8F6" stroke="#5100CD" stroke-linecap="round" stroke-linejoin="round"/>
<path d="M371.644 62.3364V110.083L340.4 93.2358L371.644 62.3452V62.3364Z" fill="#F5EDFF" stroke="#5100CD" stroke-linecap="round" stroke-linejoin="round"/>
<path d="M371.644 124.109V110.074L340.4 93.2271L371.644 124.109Z" fill="#F5EDFF" stroke="#5100CD" stroke-linecap="round" stroke-linejoin="round"/>
<path d="M327.627 166.636C338.568 166.636 347.438 161.481 347.438 155.123C347.438 148.764 338.568 143.609 327.627 143.609C316.686 143.609 307.817 148.764 307.817 155.123C307.817 161.481 316.686 166.636 327.627 166.636Z" fill="#F5EDFF" stroke="#5100CD" stroke-linecap="round" stroke-linejoin="round"/>
<path d="M308.842 158.772L322.738 185.564C323.187 186.719 324.823 187.618 326.872 187.794L323.753 166.416C316.742 165.605 311.071 162.651 308.842 158.772Z" fill="#F5EDFF" stroke="#5100CD" stroke-linecap="round" stroke-linejoin="round"/>
<path d="M327.627 166.636C326.297 166.636 325.003 166.557 323.753 166.416L326.872 187.794C327.115 187.812 327.367 187.83 327.627 187.83C328.014 187.83 328.391 187.803 328.76 187.75V166.61C328.382 166.619 328.005 166.628 327.627 166.628V166.636Z" fill="#DBC8F6" stroke="#5100CD" stroke-linecap="round" stroke-linejoin="round"/>
<path d="M334.162 165.992C333.119 166.204 332.041 166.372 330.926 166.477C330.216 166.548 329.488 166.592 328.751 166.618V187.759C329.38 187.67 329.964 187.521 330.468 187.318C330.63 187.247 330.791 187.177 330.935 187.097C331.079 187.018 331.223 186.939 331.358 186.859L335.933 165.578C335.348 165.737 334.755 165.878 334.153 166.001L334.162 165.992Z" fill="#F5EDFF" stroke="#5100CD" stroke-linecap="round" stroke-linejoin="round"/>
<path d="M342.62 162.643C340.787 163.877 338.512 164.882 335.942 165.578L331.367 186.86C331.942 186.48 332.355 186.022 332.535 185.511L334.261 182.187L346.413 158.781C345.586 160.218 344.292 161.523 342.62 162.643Z" fill="#DBC8F6" stroke="#5100CD" stroke-linecap="round" stroke-linejoin="round"/>
<path d="M226.544 290.409L223.578 288.716L226.544 286.988L229.51 288.716L226.544 290.409Z" fill="#F5EDFF" stroke="#5100CD" stroke-linecap="round" stroke-linejoin="round"/>
<path d="M218.616 294.914L215.65 293.221L218.616 291.484L221.582 293.221L218.616 294.914Z" fill="#F5EDFF" stroke="#5100CD" stroke-linecap="round" stroke-linejoin="round"/>
<path d="M210.679 299.419L207.713 297.726L210.679 295.998L213.645 297.726L210.679 299.419Z" fill="#F5EDFF" stroke="#5100CD" stroke-linecap="round" stroke-linejoin="round"/>
<path d="M202.752 303.923L199.785 302.231L202.752 300.494L205.718 302.231L202.752 303.923Z" fill="#F5EDFF" stroke="#5100CD" stroke-linecap="round" stroke-linejoin="round"/>
<path d="M155.562 290.409L158.529 288.716L155.562 286.988L152.596 288.716L155.562 290.409Z" fill="#F5EDFF" stroke="#5100CD" stroke-linecap="round" stroke-linejoin="round"/>
<path d="M163.49 294.914L166.456 293.221L163.49 291.484L160.524 293.221L163.49 294.914Z" fill="#F5EDFF" stroke="#5100CD" stroke-linecap="round" stroke-linejoin="round"/>
<path d="M171.427 299.419L174.393 297.726L171.427 295.998L168.461 297.726L171.427 299.419Z" fill="#F5EDFF" stroke="#5100CD" stroke-linecap="round" stroke-linejoin="round"/>
<path d="M179.364 303.923L182.33 302.231L179.364 300.494L176.397 302.231L179.364 303.923Z" fill="#F5EDFF" stroke="#5100CD" stroke-linecap="round" stroke-linejoin="round"/>
<path d="M191.058 303.686L231.91 280.403L191.058 256.583L150.205 280.403L191.058 303.686Z" fill="#F5EDFF" stroke="#5100CD" stroke-linecap="round" stroke-linejoin="round"/>
<path d="M231.901 280.403V283.736L191.049 307.018V303.695L231.901 280.412V280.403Z" fill="#DBC8F6" stroke="#5100CD" stroke-linecap="round" stroke-linejoin="round"/>
<path d="M150.205 280.403V283.736L191.058 307.018V303.695L150.205 280.412V280.403Z" fill="#F5EDFF" stroke="#5100CD" stroke-linecap="round" stroke-linejoin="round"/>
<path d="M191.058 274.171L211.992 262.234L191.058 250.024L170.115 262.234L191.058 274.171Z" fill="#F5EDFF" stroke="#5100CD" stroke-linecap="round" stroke-linejoin="round"/>
<path d="M191.058 274.17L190.905 274.435C191.004 274.488 191.121 274.488 191.21 274.435L191.058 274.17ZM211.992 262.234L212.144 262.498C212.234 262.445 212.297 262.348 212.297 262.243C212.297 262.137 212.243 262.04 212.144 261.978L211.992 262.234ZM170.115 262.234L169.962 261.978C169.872 262.031 169.809 262.128 169.809 262.243C169.809 262.348 169.863 262.445 169.962 262.498L170.115 262.234ZM191.058 250.024L191.21 249.768C191.112 249.715 190.995 249.715 190.896 249.768L191.049 250.024H191.058ZM182.393 262.154L182.24 261.899C182.15 261.952 182.087 262.049 182.087 262.163C182.087 262.269 182.141 262.366 182.24 262.419L182.393 262.154ZM191.067 257.094H191.372C191.372 256.988 191.309 256.883 191.219 256.83C191.121 256.777 191.004 256.777 190.914 256.83L191.067 257.085V257.094ZM191.067 257.094H190.761C190.761 257.2 190.815 257.297 190.914 257.35L191.067 257.094ZM199.732 262.146L199.884 262.41C199.983 262.357 200.037 262.26 200.037 262.154C200.037 262.049 199.983 261.952 199.884 261.89L199.732 262.146ZM191.058 267.091L190.905 267.356C191.004 267.409 191.121 267.409 191.21 267.356L191.058 267.091ZM191.21 274.426L212.144 262.489L211.839 261.969L190.905 273.906L191.21 274.426ZM169.962 262.489L190.905 274.426L191.21 273.906L170.267 261.969L169.962 262.489ZM190.896 249.759L169.953 261.969L170.267 262.489L191.21 250.279L190.896 249.759ZM212.144 261.969L191.21 249.759L190.896 250.279L211.83 262.489L212.144 261.969ZM182.231 262.401L184.038 263.433L184.343 262.913L182.537 261.881L182.231 262.401ZM190.896 256.821L182.231 261.881L182.546 262.401L191.21 257.341L190.896 256.821ZM199.884 261.881L191.219 256.83L190.905 257.35L199.57 262.401L199.884 261.881ZM198.078 263.433L199.884 262.401L199.579 261.881L197.772 262.913L198.078 263.433ZM191.21 267.347L198.078 263.433L197.772 262.913L190.905 266.827L191.21 267.347ZM184.038 263.433L190.905 267.347L191.21 266.827L184.343 262.913L184.038 263.433Z" fill="#5100CD"/>
<path d="M182.384 262.155L184.19 263.186C186.456 261.864 191.058 259.184 191.058 259.184V257.104L182.393 262.164L182.384 262.155Z" fill="#DBC8F6" stroke="#5100CD" stroke-linecap="round" stroke-linejoin="round"/>
<path d="M191.058 257.104V259.184L197.925 263.186L199.731 262.155L191.067 257.104H191.058Z" stroke="#5100CD" stroke-linecap="round" stroke-linejoin="round"/>
<path d="M197.916 263.186L191.049 259.184C191.049 259.184 186.447 261.872 184.182 263.186L191.049 267.1L197.916 263.186Z" stroke="#5100CD" stroke-linecap="round" stroke-linejoin="round"/>
<path d="M211.992 262.243V279.698L191.058 291.635V274.18L211.992 262.243Z" fill="#DBC8F6" stroke="#5100CD" stroke-linecap="round" stroke-linejoin="round"/>
<path d="M170.115 262.243L191.058 274.18V291.635L170.115 279.698V262.243Z" fill="#F5EDFF" stroke="#5100CD" stroke-linecap="round" stroke-linejoin="round"/>
<path d="M186.545 255.094V259.51L191.049 256.954V252.537L186.545 255.094Z" fill="#F5EDFF" stroke="#5100CD" stroke-linecap="round" stroke-linejoin="round"/>
<path d="M195.57 255.094V259.51L191.058 256.954V252.537L195.57 255.094Z" fill="#F5EDFF" stroke="#5100CD" stroke-linecap="round" stroke-linejoin="round"/>
<path d="M191.058 262.049V257.633L186.554 255.076V259.493L191.058 262.049Z" fill="#F5EDFF" stroke="#5100CD" stroke-linecap="round" stroke-linejoin="round"/>
<path d="M191.058 262.049V257.633L195.561 255.076V259.493L191.058 262.049Z" fill="#DBC8F6" stroke="#5100CD" stroke-linecap="round" stroke-linejoin="round"/>
<path d="M186.545 255.076L191.049 252.537L195.552 255.076L191.049 257.633L186.545 255.076Z" fill="#F5EDFF" stroke="#5100CD" stroke-linecap="round" stroke-linejoin="round"/>
<path d="M186.545 241.676V246.092L191.049 243.536V239.119L186.545 241.676Z" fill="#F5EDFF" stroke="#5100CD" stroke-linecap="round" stroke-linejoin="round"/>
<path d="M195.57 241.676V246.092L191.058 243.536V239.119L195.57 241.676Z" fill="#F5EDFF" stroke="#5100CD" stroke-linecap="round" stroke-linejoin="round"/>
<path d="M191.058 248.632V244.215L186.554 241.658V246.075L191.058 248.632Z" fill="#F5EDFF" stroke="#5100CD" stroke-linecap="round" stroke-linejoin="round"/>
<path d="M191.058 248.632V244.215L195.561 241.658V246.075L191.058 248.632Z" fill="#DBC8F6" stroke="#5100CD" stroke-linecap="round" stroke-linejoin="round"/>
<path d="M186.545 241.658L191.049 239.119L195.552 241.658L191.049 244.215L186.545 241.658Z" fill="#F5EDFF" stroke="#5100CD" stroke-linecap="round" stroke-linejoin="round"/>
<path d="M186.545 222.581V226.998L191.049 224.441V220.024L186.545 222.581Z" fill="#F5EDFF" stroke="#5100CD" stroke-linecap="round" stroke-linejoin="round"/>
<path d="M195.57 222.581V226.998L191.058 224.441V220.024L195.57 222.581Z" fill="#F5EDFF" stroke="#5100CD" stroke-linecap="round" stroke-linejoin="round"/>
<path d="M191.058 229.537V225.111L186.554 222.555V226.98L191.058 229.537Z" fill="#F5EDFF" stroke="#5100CD" stroke-linecap="round" stroke-linejoin="round"/>
<path d="M191.058 229.537V225.111L195.561 222.555V226.98L191.058 229.537Z" fill="#DBC8F6" stroke="#5100CD" stroke-linecap="round" stroke-linejoin="round"/>
<path d="M186.545 222.555L191.049 220.024L195.552 222.555L191.049 225.111L186.545 222.555Z" fill="#F5EDFF" stroke="#5100CD" stroke-linecap="round" stroke-linejoin="round"/>
<path d="M186.545 194.97V199.395L191.049 196.839V192.422L186.545 194.97Z" fill="#F5EDFF" stroke="#5100CD" stroke-linecap="round" stroke-linejoin="round"/>
<path d="M195.57 194.97V199.395L191.058 196.839V192.422L195.57 194.97Z" fill="#F5EDFF" stroke="#5100CD" stroke-linecap="round" stroke-linejoin="round"/>
<path d="M191.058 201.925V197.509L186.554 194.952V199.369L191.058 201.925Z" fill="#F5EDFF" stroke="#5100CD" stroke-linecap="round" stroke-linejoin="round"/>
<path d="M191.058 201.925V197.509L195.561 194.952V199.369L191.058 201.925Z" fill="#DBC8F6" stroke="#5100CD" stroke-linecap="round" stroke-linejoin="round"/>
<path d="M186.545 194.952L191.049 192.422L195.552 194.952L191.049 197.509L186.545 194.952Z" fill="#F5EDFF" stroke="#5100CD" stroke-linecap="round" stroke-linejoin="round"/>
<path d="M123.051 295.91V299.419L126.629 297.392V293.883L123.051 295.91Z" fill="#F5EDFF" stroke="#5100CD" stroke-linecap="round" stroke-linejoin="round"/>
<path d="M130.215 295.91V299.419L126.638 297.392V293.883L130.215 295.91Z" fill="#F5EDFF" stroke="#5100CD" stroke-linecap="round" stroke-linejoin="round"/>
<path d="M126.638 301.429V297.92L123.06 295.893V299.401L126.638 301.429Z" fill="#F5EDFF" stroke="#5100CD" stroke-linecap="round" stroke-linejoin="round"/>
<path d="M126.638 301.429V297.92L130.215 295.893V299.401L126.638 301.429Z" fill="#F5EDFF" stroke="#5100CD" stroke-linecap="round" stroke-linejoin="round"/>
<path d="M123.06 295.893L126.638 293.883L130.215 295.893L126.638 297.92L123.06 295.893Z" fill="#F5EDFF" stroke="#5100CD" stroke-linecap="round" stroke-linejoin="round"/>
<path d="M127.59 298.502V302.011L131.168 299.983V296.475L127.59 298.502Z" fill="#F5EDFF" stroke="#5100CD" stroke-linecap="round" stroke-linejoin="round"/>
<path d="M134.745 298.502V302.011L131.168 299.983V296.475L134.745 298.502Z" fill="#F5EDFF" stroke="#5100CD" stroke-linecap="round" stroke-linejoin="round"/>
<path d="M131.168 304.021V300.512L127.59 298.484V301.993L131.168 304.021Z" fill="#F5EDFF" stroke="#5100CD" stroke-linecap="round" stroke-linejoin="round"/>
<path d="M131.168 304.021V300.512L134.745 298.484V301.993L131.168 304.021Z" fill="#F5EDFF" stroke="#5100CD" stroke-linecap="round" stroke-linejoin="round"/>
<path d="M127.59 298.485L131.168 296.475L134.745 298.485L131.168 300.512L127.59 298.485Z" fill="#F5EDFF" stroke="#5100CD" stroke-linecap="round" stroke-linejoin="round"/>
<path d="M132.121 301.094V304.603L135.698 302.575V299.066L132.121 301.094Z" fill="#F5EDFF" stroke="#5100CD" stroke-linecap="round" stroke-linejoin="round"/>
<path d="M139.284 301.094V304.603L135.707 302.575V299.066L139.284 301.094Z" fill="#F5EDFF" stroke="#5100CD" stroke-linecap="round" stroke-linejoin="round"/>
<path d="M135.698 306.612V303.104L132.121 301.076V304.585L135.698 306.612Z" fill="#F5EDFF" stroke="#5100CD" stroke-linecap="round" stroke-linejoin="round"/>
<path d="M135.698 306.612V303.104L139.275 301.076V304.585L135.698 306.612Z" fill="#F5EDFF" stroke="#5100CD" stroke-linecap="round" stroke-linejoin="round"/>
<path d="M132.121 301.076L135.698 299.066L139.275 301.076L135.698 303.104L132.121 301.076Z" fill="#F5EDFF" stroke="#5100CD" stroke-linecap="round" stroke-linejoin="round"/>
<path d="M118.521 298.502V302.011L122.099 299.983V296.475L118.521 298.502Z" fill="#F5EDFF" stroke="#5100CD" stroke-linecap="round" stroke-linejoin="round"/>
<path d="M125.676 298.502V302.011L122.099 299.983V296.475L125.676 298.502Z" fill="#F5EDFF" stroke="#5100CD" stroke-linecap="round" stroke-linejoin="round"/>
<path d="M122.099 304.021V300.512L118.521 298.484V301.993L122.099 304.021Z" fill="#F5EDFF" stroke="#5100CD" stroke-linecap="round" stroke-linejoin="round"/>
<path d="M122.099 304.021V300.512L125.676 298.484V301.993L122.099 304.021Z" fill="#F5EDFF" stroke="#5100CD" stroke-linecap="round" stroke-linejoin="round"/>
<path d="M118.521 298.485L122.099 296.475L125.676 298.485L122.099 300.512L118.521 298.485Z" fill="#F5EDFF" stroke="#5100CD" stroke-linecap="round" stroke-linejoin="round"/>
<path d="M123.051 301.094V304.603L126.629 302.575V299.066L123.051 301.094Z" fill="#F5EDFF" stroke="#5100CD" stroke-linecap="round" stroke-linejoin="round"/>
<path d="M130.215 301.094V304.603L126.638 302.575V299.066L130.215 301.094Z" fill="#F5EDFF" stroke="#5100CD" stroke-linecap="round" stroke-linejoin="round"/>
<path d="M126.638 306.612V303.104L123.06 301.076V304.585L126.638 306.612Z" fill="#F5EDFF" stroke="#5100CD" stroke-linecap="round" stroke-linejoin="round"/>
<path d="M126.638 306.612V303.104L130.215 301.076V304.585L126.638 306.612Z" fill="#F5EDFF" stroke="#5100CD" stroke-linecap="round" stroke-linejoin="round"/>
<path d="M123.06 301.076L126.638 299.066L130.215 301.076L126.638 303.104L123.06 301.076Z" fill="#F5EDFF" stroke="#5100CD" stroke-linecap="round" stroke-linejoin="round"/>
<path d="M127.59 303.686V307.195L131.168 305.167V301.658L127.59 303.686Z" fill="#F5EDFF" stroke="#5100CD" stroke-linecap="round" stroke-linejoin="round"/>
<path d="M134.745 303.686V307.195L131.168 305.167V301.658L134.745 303.686Z" fill="#F5EDFF" stroke="#5100CD" stroke-linecap="round" stroke-linejoin="round"/>
<path d="M131.168 309.204V305.696L127.59 303.668V307.177L131.168 309.204Z" fill="#F5EDFF" stroke="#5100CD" stroke-linecap="round" stroke-linejoin="round"/>
<path d="M131.168 309.204V305.696L134.745 303.668V307.177L131.168 309.204Z" fill="#F5EDFF" stroke="#5100CD" stroke-linecap="round" stroke-linejoin="round"/>
<path d="M127.59 303.668L131.168 301.658L134.745 303.668L131.168 305.696L127.59 303.668Z" fill="#F5EDFF" stroke="#5100CD" stroke-linecap="round" stroke-linejoin="round"/>
<path d="M113.991 301.094V304.603L117.568 302.575V299.066L113.991 301.094Z" fill="#F5EDFF" stroke="#5100CD" stroke-linecap="round" stroke-linejoin="round"/>
<path d="M121.146 301.094V304.603L117.568 302.575V299.066L121.146 301.094Z" fill="#F5EDFF" stroke="#5100CD" stroke-linecap="round" stroke-linejoin="round"/>
<path d="M117.568 306.612V303.104L113.991 301.076V304.585L117.568 306.612Z" fill="#F5EDFF" stroke="#5100CD" stroke-linecap="round" stroke-linejoin="round"/>
<path d="M117.568 306.612V303.104L121.146 301.076V304.585L117.568 306.612Z" fill="#DBC8F6" stroke="#5100CD" stroke-linecap="round" stroke-linejoin="round"/>
<path d="M113.991 301.076L117.568 299.066L121.146 301.076L117.568 303.104L113.991 301.076Z" fill="#DBC8F6" stroke="#5100CD" stroke-linecap="round" stroke-linejoin="round"/>
<path d="M118.521 303.686V307.195L122.099 305.167V301.658L118.521 303.686Z" fill="#DBC8F6" stroke="#5100CD" stroke-linecap="round" stroke-linejoin="round"/>
<path d="M125.676 303.686V307.195L122.099 305.167V301.658L125.676 303.686Z" fill="#DBC8F6" stroke="#5100CD" stroke-linecap="round" stroke-linejoin="round"/>
<path d="M122.099 309.204V305.696L118.521 303.668V307.177L122.099 309.204Z" fill="#F5EDFF" stroke="#5100CD" stroke-linecap="round" stroke-linejoin="round"/>
<path d="M122.099 309.204V305.696L125.676 303.668V307.177L122.099 309.204Z" fill="#F5EDFF" stroke="#5100CD" stroke-linecap="round" stroke-linejoin="round"/>
<path d="M118.521 303.668L122.099 301.658L125.676 303.668L122.099 305.696L118.521 303.668Z" fill="#F5EDFF" stroke="#5100CD" stroke-linecap="round" stroke-linejoin="round"/>
<path d="M123.051 306.278V309.786L126.629 307.759V304.25L123.051 306.278Z" fill="#F5EDFF" stroke="#5100CD" stroke-linecap="round" stroke-linejoin="round"/>
<path d="M130.215 306.278V309.786L126.638 307.759V304.25L130.215 306.278Z" fill="#F5EDFF" stroke="#5100CD" stroke-linecap="round" stroke-linejoin="round"/>
<path d="M126.638 311.796V308.287L123.06 306.26V309.768L126.638 311.796Z" fill="#F5EDFF" stroke="#5100CD" stroke-linecap="round" stroke-linejoin="round"/>
<path d="M126.638 311.796V308.287L130.215 306.26V309.768L126.638 311.796Z" fill="#F5EDFF" stroke="#5100CD" stroke-linecap="round" stroke-linejoin="round"/>
<path d="M123.06 306.26L126.638 304.25L130.215 306.26L126.638 308.288L123.06 306.26Z" fill="#F5EDFF" stroke="#5100CD" stroke-linecap="round" stroke-linejoin="round"/>
<path d="M109.434 303.686V307.195L113.011 305.167V301.658L109.434 303.686Z" fill="#F5EDFF" stroke="#5100CD" stroke-linecap="round" stroke-linejoin="round"/>
<path d="M116.598 303.686V307.195L113.02 305.167V301.658L116.598 303.686Z" fill="#F5EDFF" stroke="#5100CD" stroke-linecap="round" stroke-linejoin="round"/>
<path d="M113.02 309.204V305.696L109.443 303.668V307.177L113.02 309.204Z" fill="#F5EDFF" stroke="#5100CD" stroke-linecap="round" stroke-linejoin="round"/>
<path d="M113.02 309.204V305.696L116.598 303.668V307.177L113.02 309.204Z" fill="#F5EDFF" stroke="#5100CD" stroke-linecap="round" stroke-linejoin="round"/>
<path d="M109.443 303.668L113.02 301.658L116.598 303.668L113.02 305.696L109.443 303.668Z" fill="#F5EDFF" stroke="#5100CD" stroke-linecap="round" stroke-linejoin="round"/>
<path d="M113.973 306.278V309.786L117.55 307.759V304.25L113.973 306.278Z" fill="#F5EDFF" stroke="#5100CD" stroke-linecap="round" stroke-linejoin="round"/>
<path d="M121.128 306.278V309.786L117.55 307.759V304.25L121.128 306.278Z" fill="#F5EDFF" stroke="#5100CD" stroke-linecap="round" stroke-linejoin="round"/>
<path d="M117.55 311.796V308.287L113.973 306.26V309.768L117.55 311.796Z" fill="#F5EDFF" stroke="#5100CD" stroke-linecap="round" stroke-linejoin="round"/>
<path d="M117.55 311.796V308.287L121.128 306.26V309.768L117.55 311.796Z" fill="#F5EDFF" stroke="#5100CD" stroke-linecap="round" stroke-linejoin="round"/>
<path d="M113.973 306.26L117.55 304.25L121.128 306.26L117.55 308.288L113.973 306.26Z" fill="#F5EDFF" stroke="#5100CD" stroke-linecap="round" stroke-linejoin="round"/>
<path d="M118.503 308.869V312.378L122.081 310.35V306.842L118.503 308.869Z" fill="#F5EDFF" stroke="#5100CD" stroke-linecap="round" stroke-linejoin="round"/>
<path d="M125.667 308.869V312.378L122.09 310.35V306.842L125.667 308.869Z" fill="#F5EDFF" stroke="#5100CD" stroke-linecap="round" stroke-linejoin="round"/>
<path d="M122.081 314.397V310.888L118.503 308.86V312.369L122.081 314.397Z" fill="#F5EDFF" stroke="#5100CD" stroke-linecap="round" stroke-linejoin="round"/>
<path d="M122.081 314.397V310.888L125.658 308.86V312.369L122.081 314.397Z" fill="#F5EDFF" stroke="#5100CD" stroke-linecap="round" stroke-linejoin="round"/>
<path d="M118.503 308.861L122.081 306.851L125.658 308.861L122.081 310.888L118.503 308.861Z" fill="#F5EDFF" stroke="#5100CD" stroke-linecap="round" stroke-linejoin="round"/>
<path d="M140.237 301.658V305.167L143.814 307.195V303.686L140.237 301.658Z" fill="#F5EDFF" stroke="#5100CD" stroke-linecap="round" stroke-linejoin="round"/>
<path d="M140.228 301.658V305.167L136.651 307.195V303.686L140.228 301.658Z" fill="#F5EDFF" stroke="#5100CD" stroke-linecap="round" stroke-linejoin="round"/>
<path d="M143.814 307.185V303.677L140.237 305.704V309.213L143.814 307.185Z" fill="#DBC8F6" stroke="#5100CD" stroke-linecap="round" stroke-linejoin="round"/>
<path d="M136.66 307.185V303.677L140.237 305.704V309.213L136.66 307.185Z" fill="#F5EDFF" stroke="#5100CD" stroke-linecap="round" stroke-linejoin="round"/>
<path d="M140.237 305.696L136.66 303.668L140.237 301.658L143.814 303.668L140.237 305.696Z" fill="#F5EDFF" stroke="#5100CD" stroke-linecap="round" stroke-linejoin="round"/>
<path d="M135.707 304.259V307.767L139.284 309.795V306.286L135.707 304.259Z" fill="#F5EDFF" stroke="#5100CD" stroke-linecap="round" stroke-linejoin="round"/>
<path d="M135.698 304.259V307.767L132.121 309.795V306.286L135.698 304.259Z" fill="#F5EDFF" stroke="#5100CD" stroke-linecap="round" stroke-linejoin="round"/>
<path d="M139.275 309.777V306.269L135.698 308.296V311.805L139.275 309.777Z" fill="#DBC8F6" stroke="#5100CD" stroke-linecap="round" stroke-linejoin="round"/>
<path d="M132.121 309.777V306.269L135.698 308.296V311.805L132.121 309.777Z" fill="#F5EDFF" stroke="#5100CD" stroke-linecap="round" stroke-linejoin="round"/>
<path d="M135.698 308.288L132.121 306.26L135.698 304.25L139.275 306.26L135.698 308.288Z" fill="#F5EDFF" stroke="#5100CD" stroke-linecap="round" stroke-linejoin="round"/>
<path d="M131.168 306.851V310.359L134.745 312.387V308.878L131.168 306.851Z" fill="#F5EDFF" stroke="#5100CD" stroke-linecap="round" stroke-linejoin="round"/>
<path d="M131.168 306.851V310.359L127.59 312.387V308.878L131.168 306.851Z" fill="#F5EDFF" stroke="#5100CD" stroke-linecap="round" stroke-linejoin="round"/>
<path d="M134.745 312.369V308.86L131.168 310.888V314.397L134.745 312.369Z" fill="#DBC8F6" stroke="#5100CD" stroke-linecap="round" stroke-linejoin="round"/>
<path d="M127.59 312.369V308.86L131.168 310.888V314.397L127.59 312.369Z" fill="#F5EDFF" stroke="#5100CD" stroke-linecap="round" stroke-linejoin="round"/>
<path d="M131.168 310.879L127.59 308.852L131.168 306.842L134.745 308.852L131.168 310.879Z" fill="#F5EDFF" stroke="#5100CD" stroke-linecap="round" stroke-linejoin="round"/>
<path d="M123.042 311.461V314.97L126.62 312.942V309.434L123.042 311.461Z" fill="#F5EDFF" stroke="#5100CD" stroke-linecap="round" stroke-linejoin="round"/>
<path d="M130.197 311.461V314.97L126.62 312.942V309.434L130.197 311.461Z" fill="#F5EDFF" stroke="#5100CD" stroke-linecap="round" stroke-linejoin="round"/>
<path d="M126.62 316.988V313.48L123.042 311.452V314.961L126.62 316.988Z" fill="#F5EDFF" stroke="#5100CD" stroke-linecap="round" stroke-linejoin="round"/>
<path d="M126.62 316.988V313.48L130.197 311.452V314.961L126.62 316.988Z" fill="#DBC8F6" stroke="#5100CD" stroke-linecap="round" stroke-linejoin="round"/>
<path d="M123.042 311.452L126.62 309.442L130.197 311.452L126.62 313.48L123.042 311.452Z" fill="#F5EDFF" stroke="#5100CD" stroke-linecap="round" stroke-linejoin="round"/>
<path d="M126.611 305.308L139.554 297.929L126.611 290.392L113.676 297.929L126.611 305.308Z" fill="#F5EDFF" stroke="#5100CD" stroke-linecap="round" stroke-linejoin="round"/>
<path d="M121.262 297.885L122.377 298.52C123.779 297.709 126.62 296.043 126.62 296.043V294.756L121.262 297.877V297.885Z" fill="#DBC8F6" stroke="#5100CD" stroke-linecap="round" stroke-linejoin="round"/>
<path d="M126.611 294.756V296.043L130.853 298.52L131.968 297.885L126.611 294.756Z" fill="#F5EDFF" stroke="#5100CD" stroke-linecap="round" stroke-linejoin="round"/>
<path d="M130.853 298.52L126.61 296.043C126.61 296.043 123.77 297.7 122.368 298.52L126.61 300.936L130.853 298.52Z" fill="#F5EDFF" stroke="#5100CD" stroke-linecap="round" stroke-linejoin="round"/>
<path d="M126.611 310.773V305.308L139.554 297.929V303.491L126.611 310.773Z" fill="#DBC8F6" stroke="#5100CD" stroke-linecap="round" stroke-linejoin="round"/>
<path d="M113.676 303.236V297.929L126.611 305.308V310.773L113.676 303.236Z" fill="#F5EDFF" stroke="#5100CD" stroke-linecap="round" stroke-linejoin="round"/>
<path d="M172.991 90.8555L140.417 72.2983V43.4883L172.991 62.0367V90.8555Z" fill="#F5EDFF" stroke="#5100CD" stroke-linecap="round" stroke-linejoin="round"/>
<path d="M172.083 79.1039L167.077 76.2475C165.288 75.2249 163.832 72.9769 163.832 71.2225C163.832 69.4682 165.279 68.8687 167.077 69.8913L172.083 72.7477C173.872 73.7703 175.328 76.0183 175.328 77.7727C175.328 79.527 173.881 80.1265 172.083 79.1039Z" fill="#F5EDFF" stroke="#5100CD" stroke-linecap="round" stroke-linejoin="round"/>
<path d="M136.183 45.8597L140.417 43.4883L172.991 62.0367L168.757 64.4081L136.183 45.8597Z" fill="#F5EDFF" stroke="#5100CD" stroke-linecap="round" stroke-linejoin="round"/>
<path d="M170.384 81.7222L170.222 81.8103C170.276 81.7839 170.33 81.7574 170.384 81.7222Z" fill="#F5EDFF" stroke="#5100CD" stroke-linecap="round" stroke-linejoin="round"/>
<path d="M168.757 93.2269L172.991 90.8554V62.0366L168.757 64.4081V93.2269Z" fill="#DBC8F6" stroke="#5100CD" stroke-linecap="round" stroke-linejoin="round"/>
<path d="M168.757 93.2271L136.183 74.6699V45.8599L168.757 64.4083V93.2271Z" fill="#F5EDFF" stroke="#5100CD" stroke-linecap="round" stroke-linejoin="round"/>
<path d="M167.84 81.4754L162.834 78.6191C161.045 77.5965 159.589 75.3485 159.589 73.5941C159.589 71.8398 161.036 71.2403 162.834 72.2629L167.84 75.1192C169.629 76.1419 171.085 78.3899 171.085 80.1442C171.085 81.8986 169.638 82.4981 167.84 81.4754Z" fill="#F5EDFF" stroke="#5100CD" stroke-linecap="round" stroke-linejoin="round"/>
<path d="M167.84 81.4754L162.834 78.6191C161.045 77.5965 159.589 75.3485 159.589 73.5941C159.589 71.8398 161.036 71.2403 162.834 72.2629L167.84 75.1192C169.629 76.1419 171.085 78.3899 171.085 80.1442C171.085 81.8986 169.638 82.4981 167.84 81.4754Z" fill="#DBC8F6" stroke="#5100CD" stroke-linecap="round" stroke-linejoin="round"/>
<path d="M166.978 82.0047L161.971 79.1484C160.182 78.1258 158.726 75.8778 158.726 74.1234C158.726 72.3691 160.173 71.7696 161.971 72.7922L166.978 75.6485C168.766 76.6712 170.222 78.9192 170.222 80.6735C170.222 82.4279 168.775 83.0274 166.978 82.0047Z" fill="#F5EDFF" stroke="#5100CD" stroke-linecap="round" stroke-linejoin="round"/>
<path d="M175.238 78.4165L173.216 79.5449L171.004 80.7791C170.897 81.2023 170.681 81.5109 170.375 81.7136L172.416 80.5764L174.456 79.4303L174.618 79.3422C174.914 79.1394 175.139 78.8308 175.247 78.4165H175.238Z" fill="#F5EDFF" stroke="#5100CD" stroke-linecap="round" stroke-linejoin="round"/>
<path d="M172.91 73.3208L170.618 74.6079L168.757 75.6482V75.7628C169.557 76.4504 170.231 77.3584 170.645 78.2841C170.924 78.9188 171.094 79.5536 171.094 80.1442C171.094 80.3823 171.067 80.5938 171.013 80.7878L173.225 79.5536L175.247 78.4251C175.301 78.2312 175.328 78.0196 175.328 77.7816C175.328 76.3094 174.303 74.4845 172.91 73.3296V73.3208Z" fill="#DBC8F6" stroke="#5100CD" stroke-linecap="round" stroke-linejoin="round"/>
<path d="M172.91 73.3208L168.757 75.6482L170.609 74.6079L172.91 73.3208Z" fill="#F5EDFF" stroke="#5100CD" stroke-linecap="round" stroke-linejoin="round"/>
<path d="M158.169 64.1083L155.499 69.9267L157.612 70.9581L153.468 75.5952C152.201 77.0498 149.846 77.0146 147.32 75.5776C143.347 73.3119 140.183 68.4104 140.183 64.5138C140.183 62.0277 141.522 60.485 143.734 60.5026H150.87L150.691 62.4685L158.178 64.1171L158.169 64.1083ZM146.924 73.1444C149.387 74.5461 151.419 73.7439 151.419 71.2931C151.419 68.8423 149.378 65.7215 146.924 64.3198C144.471 62.9181 142.43 63.7556 142.43 66.1711C142.43 68.5867 144.435 71.7251 146.924 73.1444ZM146.924 67.6257C146.924 68.2429 146.394 68.428 145.801 68.0842C145.172 67.7227 144.677 66.9646 144.677 66.3386C144.677 65.7568 145.172 65.5188 145.801 65.8802C146.394 66.224 146.924 67.0351 146.924 67.6257ZM147.491 71.2579C147.176 71.0815 146.924 70.6936 146.924 70.3851C146.924 70.1118 147.167 69.9708 147.491 70.1559C147.769 70.3146 148.057 70.7554 148.057 71.0286C148.057 71.3372 147.778 71.4165 147.491 71.2579Z" fill="#5100CD"/>
<path d="M331.636 273.519L324.113 285.526L334.432 298.855L356.543 305.697L377.495 302.047L385.01 290.048L374.691 276.719L352.579 269.869L331.636 273.519Z" fill="#F5EDFF" stroke="#5100CD" stroke-linecap="round" stroke-linejoin="round"/>
<path d="M354.071 261.503L376.183 268.344L386.502 281.673L378.987 293.681L358.035 297.33L335.924 290.489L325.605 277.16L333.119 265.153L354.071 261.503ZM341.569 270.407L336.823 277.988L343.339 286.408L357.307 290.736L370.538 288.435L375.284 280.854L368.767 272.434L354.799 268.106L341.569 270.407Z" fill="#F5EDFF" stroke="#5100CD" stroke-linecap="round" stroke-linejoin="round"/>
<path d="M325.605 277.16L324.113 285.526L334.432 298.856L335.924 290.481L325.605 277.16Z" fill="#F5EDFF" stroke="#5100CD" stroke-linecap="round" stroke-linejoin="round"/>
<path d="M358.035 297.33L356.543 305.697L377.495 302.047L378.978 293.681L358.035 297.33Z" fill="#DBC8F6" stroke="#5100CD" stroke-linecap="round" stroke-linejoin="round"/>
<path d="M335.924 290.48L334.432 298.855L356.543 305.697L358.035 297.33L335.924 290.48Z" fill="#F5EDFF" stroke="#5100CD" stroke-linecap="round" stroke-linejoin="round"/>
<path d="M378.978 293.681L377.495 302.047L385.01 290.049L386.502 281.683L378.978 293.681Z" fill="#DBC8F6" stroke="#5100CD" stroke-linecap="round" stroke-linejoin="round"/>
<path d="M341.568 270.406L340.076 278.764L353.316 276.463L354.799 268.097L341.568 270.406Z" fill="#DBC8F6" stroke="#5100CD" stroke-linecap="round" stroke-linejoin="round"/>
<path d="M367.284 280.792L368.768 272.426L375.284 280.845L371.698 286.478L367.284 280.792Z" fill="#F5EDFF" stroke="#5100CD" stroke-linecap="round" stroke-linejoin="round"/>
<path d="M338.836 280.607L340.077 278.765L341.569 270.407L336.814 277.989L338.836 280.607Z" fill="#DBC8F6" stroke="#5100CD" stroke-linecap="round" stroke-linejoin="round"/>
<path d="M354.8 268.097L353.316 276.463L367.284 280.791L368.767 272.425L354.8 268.097Z" fill="#F5EDFF" stroke="#5100CD" stroke-linecap="round" stroke-linejoin="round"/>
<path d="M248.467 113.142C247.154 113.891 245.887 114.808 244.7 115.857C242.597 113.318 238.624 113.045 234.049 115.655C227.613 119.322 222.346 127.318 221.852 133.938C221.474 134.106 221.097 134.3 220.71 134.52C215.173 137.676 210.697 144.738 210.697 150.292C210.697 155.863 215.182 157.812 220.71 154.664L248.467 138.849C255.522 134.829 261.248 125.81 261.248 118.705C261.248 111.608 255.522 109.104 248.467 113.133V113.142Z" fill="#5100CD" stroke="#5100CD" stroke-linecap="round" stroke-linejoin="round"/>
<path d="M251.487 179.86L269.446 169.625L251.487 159.151L233.528 169.625L251.487 179.86Z" fill="#DBC8F6" stroke="#5100CD" stroke-linecap="round" stroke-linejoin="round"/>
<path d="M251.487 198.303V179.86L269.446 169.625V188.191L251.487 198.303Z" fill="#5100CD" stroke="#5100CD" stroke-linecap="round" stroke-linejoin="round"/>
<path d="M233.528 187.83V169.625L251.487 179.86V198.303L233.528 187.83Z" fill="#F5EDFF" stroke="#5100CD" stroke-linecap="round" stroke-linejoin="round"/>
<path d="M260.673 137.421V139.51L260.089 140.083H258.704L258.12 139.51V137.421L258.704 136.848H260.089L260.673 137.421ZM259.819 139.193V137.738L259.666 137.588H259.109L258.956 137.738V139.193L259.109 139.343H259.666L259.819 139.193Z" fill="#5100CD"/>
<path d="M263.792 137.421V139.51L263.208 140.083H261.823L261.239 139.51V137.421L261.823 136.848H263.208L263.792 137.421ZM262.938 139.193V137.738L262.785 137.588H262.228L262.075 137.738V139.193L262.228 139.343H262.785L262.938 139.193Z" fill="#5100CD"/>
<path d="M266.92 139.342V140.083H264.538V139.342H265.302V137.694L264.682 138.073L264.286 137.447L265.257 136.856H266.156V139.351H266.92V139.342Z" fill="#5100CD"/>
<path d="M270.039 139.342V140.083H267.657V139.342H268.421V137.694L267.801 138.073L267.405 137.447L268.376 136.856H269.275V139.351H270.039V139.342Z" fill="#5100CD"/>
<path d="M260.673 143.142V145.232L260.089 145.805H258.704L258.12 145.232V143.142L258.704 142.569H260.089L260.673 143.142ZM259.819 144.914V143.46L259.666 143.31H259.109L258.956 143.46V144.914L259.109 145.064H259.666L259.819 144.914Z" fill="#5100CD"/>
<path d="M263.792 143.142V145.232L263.208 145.805H261.823L261.239 145.232V143.142L261.823 142.569H263.208L263.792 143.142ZM262.938 144.914V143.46L262.785 143.31H262.228L262.075 143.46V144.914L262.228 145.064H262.785L262.938 144.914Z" fill="#5100CD"/>
<path d="M266.92 145.055V145.796H264.538V145.055H265.302V143.407L264.682 143.786L264.286 143.16L265.257 142.569H266.156V145.064H266.92V145.055Z" fill="#5100CD"/>
<path d="M270.03 143.142V145.232L269.446 145.805H268.061L267.477 145.232V143.142L268.061 142.569H269.446L270.03 143.142ZM269.176 144.914V143.46L269.023 143.31H268.466L268.313 143.46V144.914L268.466 145.064H269.023L269.176 144.914Z" fill="#5100CD"/>
<path d="M260.673 148.855V150.944L260.089 151.517H258.704L258.12 150.944V148.855L258.704 148.282H260.089L260.673 148.855ZM259.819 150.627V149.172L259.666 149.022H259.109L258.956 149.172V150.627L259.109 150.777H259.666L259.819 150.627Z" fill="#5100CD"/>
<path d="M263.792 148.855V150.944L263.208 151.517H261.823L261.239 150.944V148.855L261.823 148.282H263.208L263.792 148.855ZM262.938 150.627V149.172L262.785 149.022H262.228L262.075 149.172V150.627L262.228 150.777H262.785L262.938 150.627Z" fill="#5100CD"/>
<path d="M266.92 150.777V151.517H264.538V150.777H265.302V149.128L264.682 149.507L264.286 148.881L265.257 148.291H266.156V150.785H266.92V150.777Z" fill="#5100CD"/>
<path d="M270.039 150.777V151.517H267.657V150.777H268.421V149.128L267.801 149.507L267.405 148.881L268.376 148.291H269.275V150.785H270.039V150.777Z" fill="#5100CD"/>
<path d="M260.673 154.576V156.665L260.089 157.238H258.704L258.12 156.665V154.576L258.704 154.003H260.089L260.673 154.576ZM259.819 156.348V154.893L259.666 154.743H259.109L258.956 154.893V156.348L259.109 156.498H259.666L259.819 156.348Z" fill="#5100CD"/>
<path d="M263.801 156.489V157.23H261.419V156.489H262.183V154.84L261.563 155.22L261.167 154.594L262.138 154.003H263.037V156.498H263.801V156.489Z" fill="#5100CD"/>
<path d="M266.92 156.489V157.23H264.538V156.489H265.302V154.84L264.682 155.22L264.286 154.594L265.257 154.003H266.156V156.498H266.92V156.489Z" fill="#5100CD"/>
<path d="M270.03 154.576V156.665L269.446 157.238H268.061L267.477 156.665V154.576L268.061 154.003H269.446L270.03 154.576ZM269.176 156.348V154.893L269.023 154.743H268.466L268.313 154.893V156.348L268.466 156.498H269.023L269.176 156.348Z" fill="#5100CD"/>
<path d="M231.811 136.027L230.966 139.748L230.121 140.224L229.618 138.575L229.115 140.797L228.261 141.282L227.416 138.522L228.315 138.011L228.773 139.73L229.285 137.464L229.968 137.076L230.481 138.76L230.939 136.521L231.802 136.027H231.811Z" fill="#F5EDFF"/>
<path d="M233.195 136.001V136.495L234.813 135.578V136.301L233.195 137.218V137.711L235.056 136.654V137.412L232.323 138.972V135.737L235.056 134.176V134.934L233.195 135.992V136.001Z" fill="#F5EDFF"/>
<path d="M238.597 134.123V134.864L238.04 135.728L235.703 137.059V133.824L237.941 132.554L238.499 132.783V133.506L238.202 133.965L238.597 134.132V134.123ZM236.575 134.599L237.483 134.088L237.627 133.868V133.577L237.519 133.533L236.584 134.071V134.608L236.575 134.599ZM237.717 135.058V134.793L237.537 134.723L236.575 135.269V135.816L237.609 135.225L237.717 135.058Z" fill="#F5EDFF"/>
<path d="M241.653 132.378V133.136L241.114 133.974L239.55 134.864L239.02 134.644L239.604 133.735L239.964 133.885L240.683 133.471L240.79 133.304V133.013L240.647 132.951L239.739 133.471V132.801L240.602 132.307L240.719 132.131V131.805L240.611 131.761L239.982 132.122L239.667 132.607L239.074 132.369L239.559 131.629L241.024 130.791L241.563 131.011V131.752L241.249 132.237L241.635 132.395L241.653 132.378Z" fill="#F5EDFF"/>
<path d="M242.283 132.448L243.154 131.946V132.801L242.283 133.303V132.448Z" fill="#F5EDFF"/>
<path d="M246.354 128.323V130.412L245.761 131.32L244.368 132.113L243.784 131.875V129.786L244.368 128.878L245.761 128.084L246.354 128.323ZM245.5 130.579V129.125L245.348 129.063L244.79 129.38L244.638 129.618V131.073L244.79 131.135L245.348 130.817L245.5 130.588V130.579Z" fill="#F5EDFF"/>
</svg>
