<?xml version="1.0" standalone="no"?>
<!DOCTYPE svg PUBLIC "-//W3C//DTD SVG 20010904//EN"
 "http://www.w3.org/TR/2001/REC-SVG-20010904/DTD/svg10.dtd">
<svg version="1.0" xmlns="http://www.w3.org/2000/svg"
 width="700.000000pt" height="700.000000pt" viewBox="0 0 700.000000 700.000000"
 preserveAspectRatio="xMidYMid meet">
<metadata>
Created by potrace 1.14, written by Peter Selinger 2001-2017
</metadata>
<g transform="translate(0.000000,700.000000) scale(0.100000,-0.100000)"
fill="#000000" stroke="none">
<path d="M2534 6350 l1 -631 130 -43 c72 -24 211 -69 310 -101 99 -31 182 -59
186 -60 3 -2 5 138 5 311 -1 186 3 314 8 314 8 0 393 -122 536 -170 30 -10
224 -73 430 -140 206 -67 407 -132 445 -145 39 -13 153 -50 255 -83 102 -33
320 -103 485 -156 165 -53 317 -103 338 -111 l37 -13 0 318 0 318 -162 52
c-90 28 -264 85 -388 125 -227 74 -906 295 -1185 385 -507 165 -656 213 -705
230 -116 39 -676 219 -701 225 l-26 7 1 -632z"/>
<path d="M1265 5178 l0 -313 140 -47 c159 -52 455 -149 470 -152 6 -2 17 -6
25 -9 8 -3 67 -22 130 -43 63 -20 167 -53 230 -74 63 -21 171 -56 240 -78 69
-22 243 -79 388 -126 145 -48 267 -84 272 -81 4 3 10 1 12 -4 1 -6 59 -28 128
-50 69 -21 208 -66 310 -99 l185 -60 3 -636 2 -636 -37 14 c-21 8 -159 54
-308 102 -148 47 -322 103 -385 124 -166 55 -467 153 -845 275 -181 59 -411
133 -510 165 -99 33 -236 77 -304 100 -68 22 -129 40 -135 40 -8 0 -11 -344
-11 -1261 0 -1111 2 -1263 15 -1270 21 -11 574 -189 589 -189 6 0 19 -4 29
-10 9 -5 89 -33 177 -61 88 -28 198 -64 245 -79 47 -15 227 -74 400 -130 395
-128 665 -216 1135 -369 557 -181 565 -184 571 -178 4 4 6 179 4 538 l0 87
-112 36 c-62 20 -201 65 -308 101 -107 35 -337 109 -510 165 -173 56 -353 115
-400 130 -47 16 -240 79 -430 140 -190 61 -410 133 -490 159 -80 26 -172 56
-205 66 -33 10 -64 21 -68 25 -7 6 -11 1260 -4 1265 1 1 90 -27 197 -62 226
-75 444 -146 945 -308 198 -64 441 -143 540 -175 552 -180 745 -244 793 -260
l52 -18 0 121 c1 156 1 2365 0 2394 0 24 43 9 -635 228 -181 58 -393 127 -470
151 -77 25 -156 51 -175 59 -19 7 -177 59 -350 115 -571 184 -642 207 -1020
330 -206 67 -402 130 -434 141 -33 10 -64 19 -70 19 -8 0 -11 -92 -11 -312z"/>
<path d="M5069 4257 c-1 -1 -2 -570 -3 -1265 l-1 -1262 230 -76 c127 -41 269
-88 318 -104 l87 -29 0 1269 0 1269 -22 6 c-17 5 -449 143 -595 190 -7 3 -14
3 -14 2z"/>
</g>
</svg>
