<?xml version="1.0" standalone="no"?>
<!DOCTYPE svg PUBLIC "-//W3C//DTD SVG 20010904//EN"
 "http://www.w3.org/TR/2001/REC-SVG-20010904/DTD/svg10.dtd">
<svg version="1.0" xmlns="http://www.w3.org/2000/svg"
 width="512.000000pt" height="512.000000pt" viewBox="0 0 512.000000 512.000000"
 preserveAspectRatio="xMidYMid meet">

<g transform="translate(0.000000,512.000000) scale(0.100000,-0.100000)"
fill="#000000" stroke="none">
<path d="M2330 5110 c-14 -4 -44 -8 -67 -9 -23 -1 -65 -6 -95 -12 -126 -25
-155 -31 -198 -40 -66 -15 -116 -29 -195 -55 -62 -20 -94 -32 -210 -76 -61
-23 -282 -138 -355 -185 -412 -262 -723 -604 -934 -1023 -34 -69 -68 -138 -74
-155 -44 -116 -56 -148 -76 -210 -33 -101 -42 -137 -75 -287 -5 -24 -14 -74
-20 -113 -6 -38 -14 -92 -18 -120 -10 -65 -10 -465 0 -530 4 -27 12 -81 18
-120 6 -38 15 -89 20 -112 33 -151 42 -187 75 -288 20 -62 32 -94 76 -210 23
-61 138 -282 185 -355 262 -412 604 -723 1023 -934 69 -34 139 -68 155 -74
116 -44 148 -56 210 -76 101 -33 137 -42 288 -75 23 -5 74 -14 112 -20 39 -6
93 -14 120 -18 65 -10 465 -10 530 0 28 4 82 12 120 18 136 20 268 52 400 95
62 20 94 32 210 76 17 6 86 40 155 74 419 211 761 522 1023 934 47 73 162 294
185 355 44 116 56 148 76 210 33 101 42 137 75 288 5 23 14 74 20 112 6 39 14
93 18 120 10 65 10 465 0 530 -4 28 -12 82 -18 120 -20 136 -52 268 -95 400
-20 62 -32 94 -76 210 -23 61 -138 282 -185 355 -262 412 -604 723 -1023 934
-69 34 -138 68 -155 74 -116 44 -148 56 -210 76 -101 33 -137 42 -287 75 -24
5 -74 14 -113 20 -38 6 -88 13 -110 17 -65 10 -478 13 -505 4z m1517 -855
c103 -32 212 -103 282 -183 53 -60 121 -180 121 -213 0 -10 4 -20 8 -23 5 -3
15 -37 22 -75 15 -81 9 -198 -15 -281 -25 -84 -81 -192 -120 -230 -39 -38 -41
-48 -19 -105 61 -159 104 -395 104 -566 0 -107 -21 -290 -46 -396 -40 -173
-145 -412 -241 -551 -50 -71 -220 -272 -231 -272 -4 0 -36 -27 -72 -60 -36
-33 -68 -60 -72 -60 -4 0 -13 -6 -20 -12 -7 -7 -33 -26 -58 -42 -25 -16 -57
-37 -71 -47 -36 -24 -179 -96 -231 -115 -259 -97 -513 -136 -749 -115 -158 15
-345 54 -439 93 -71 29 -77 29 -131 -14 -60 -47 -153 -98 -179 -98 -11 0 -22
-4 -25 -10 -3 -5 -16 -10 -29 -10 -12 0 -27 -5 -33 -11 -17 -17 -257 -6 -318
15 -66 22 -131 54 -180 87 -56 37 -145 130 -174 181 -13 24 -32 58 -42 76 -11
18 -19 43 -19 55 0 13 -4 27 -9 33 -19 21 -34 136 -27 218 12 147 67 284 149
373 l30 32 -41 128 c-48 150 -50 159 -68 283 -46 323 14 682 165 974 31 60 61
116 66 125 76 120 136 193 263 319 68 67 127 122 132 122 5 0 15 6 22 13 25
25 113 83 188 124 68 36 103 52 250 114 67 28 231 68 349 84 253 36 557 2 796
-89 58 -22 67 -20 116 22 24 20 58 44 74 52 17 8 42 22 57 32 14 10 35 18 45
18 11 0 23 3 27 8 16 15 135 30 221 27 62 -2 116 -12 172 -30z"/>
<path d="M2103 3009 c-545 -544 -988 -989 -985 -989 4 0 38 15 77 34 278 136
615 47 796 -211 16 -23 29 -45 29 -48 0 -4 8 -19 18 -33 26 -38 53 -132 62
-216 14 -119 -8 -244 -60 -347 -11 -21 -20 -43 -20 -50 0 -6 444 429 986 967
542 538 981 980 975 982 -5 2 -24 -4 -41 -13 -116 -60 -314 -83 -440 -50 -117
30 -207 81 -295 170 -44 44 -89 98 -101 120 -11 22 -25 49 -31 60 -36 68 -56
163 -56 270 0 120 14 179 62 278 16 31 26 59 22 61 -3 3 -452 -441 -998 -985z"/>
</g>
</svg>
