<svg width="427" height="336" viewBox="0 0 427 336" fill="none" xmlns="http://www.w3.org/2000/svg">
<path d="M102.755 116.807L161.333 83.439" stroke="#5100CD" stroke-linecap="round" stroke-linejoin="round"/>
<path d="M88.4729 109.666L147.05 76.2982" stroke="#5100CD" stroke-linecap="round" stroke-linejoin="round"/>
<path d="M111.483 99.2104V96.6273L114 95.1992V97.7998L111.483 99.2192V99.2104Z" fill="#5100CD" stroke="#5100CD" stroke-linecap="round" stroke-linejoin="round"/>
<path d="M108.967 97.7381V95.1904L111.492 96.6185V99.2015L108.967 97.7381Z" fill="#F5EDFF" stroke="#5100CD" stroke-linecap="round" stroke-linejoin="round"/>
<path d="M111.483 96.6274L114 95.1992L111.483 93.727L108.958 95.1992L111.483 96.6274Z" fill="#F5EDFF" stroke="#5100CD" stroke-linecap="round" stroke-linejoin="round"/>
<path d="M144.201 95.7282V93.1451L146.718 91.717V94.3176L144.201 95.737V95.7282Z" fill="#5100CD" stroke="#5100CD" stroke-linecap="round" stroke-linejoin="round"/>
<path d="M141.684 94.2647V91.717L144.21 93.1451V95.7282L141.684 94.2647Z" fill="#F5EDFF" stroke="#5100CD" stroke-linecap="round" stroke-linejoin="round"/>
<path d="M144.201 93.1451L146.718 91.717L144.201 90.2448L141.675 91.717L144.201 93.1451Z" fill="#F5EDFF" stroke="#5100CD" stroke-linecap="round" stroke-linejoin="round"/>
<path d="M189.889 290.204L110.512 244.997" stroke="#5100CD" stroke-linecap="round" stroke-linejoin="round"/>
<path d="M132.157 304.759L104.365 288.935" stroke="#5100CD" stroke-linecap="round" stroke-linejoin="round"/>
<path d="M335.807 274.68L280.987 243.454" stroke="#5100CD" stroke-linecap="round" stroke-linejoin="round"/>
<path d="M221.699 277.122L320.509 220.842" stroke="#5100CD" stroke-linecap="round" stroke-linejoin="round"/>
<path d="M102.126 287.128L143.113 263.784" stroke="#5100CD" stroke-linecap="round" stroke-linejoin="round"/>
<path d="M128.408 304.486L192.64 267.901" stroke="#5100CD" stroke-linecap="round" stroke-linejoin="round"/>
<path d="M143.104 263.616L146.143 261.879L143.104 260.116L140.066 261.879L143.104 263.616Z" fill="#F5EDFF" stroke="#5100CD" stroke-linecap="round" stroke-linejoin="round"/>
<path d="M143.104 266.737V263.616L146.143 261.879V265.027L143.104 266.746V266.737Z" fill="#5100CD" stroke="#5100CD" stroke-linecap="round" stroke-linejoin="round"/>
<path d="M140.066 264.965V261.879L143.104 263.616V266.737L140.066 264.965Z" fill="#F5EDFF" stroke="#5100CD" stroke-linecap="round" stroke-linejoin="round"/>
<path d="M103.286 287.674L106.324 285.938L103.286 284.174L100.248 285.938L103.286 287.674Z" fill="#F5EDFF" stroke="#5100CD" stroke-linecap="round" stroke-linejoin="round"/>
<path d="M103.286 290.795V287.674L106.324 285.938V289.085L103.286 290.804V290.795Z" fill="#5100CD" stroke="#5100CD" stroke-linecap="round" stroke-linejoin="round"/>
<path d="M100.248 289.023V285.938L103.286 287.674V290.795L100.248 289.023Z" fill="#F5EDFF" stroke="#5100CD" stroke-linecap="round" stroke-linejoin="round"/>
<path d="M144.624 294.075L147.662 292.338L144.624 290.575L141.585 292.338L144.624 294.075Z" fill="#F5EDFF" stroke="#5100CD" stroke-linecap="round" stroke-linejoin="round"/>
<path d="M144.624 297.195V294.075L147.662 292.338V295.485L144.624 297.204V297.195Z" fill="#5100CD" stroke="#5100CD" stroke-linecap="round" stroke-linejoin="round"/>
<path d="M141.585 295.423V292.338L144.624 294.075V297.195L141.585 295.423Z" fill="#F5EDFF" stroke="#5100CD" stroke-linecap="round" stroke-linejoin="round"/>
<path d="M248.449 261.562V171.879" stroke="#5100CD" stroke-linecap="round" stroke-linejoin="round"/>
<path d="M320.509 219.81V58.261" stroke="#5100CD" stroke-linecap="round" stroke-linejoin="round"/>
<path d="M248.449 261.562L251.487 259.825L248.449 258.062L245.411 259.825L248.449 261.562Z" fill="#F5EDFF" stroke="#5100CD" stroke-linecap="round" stroke-linejoin="round"/>
<path d="M248.449 264.683V261.562L251.487 259.825V262.973L248.449 264.692V264.683Z" fill="#5100CD" stroke="#5100CD" stroke-linecap="round" stroke-linejoin="round"/>
<path d="M245.411 262.911V259.825L248.449 261.562V264.683L245.411 262.911Z" fill="#F5EDFF" stroke="#5100CD" stroke-linecap="round" stroke-linejoin="round"/>
<path d="M248.449 228.926L251.487 227.189L248.449 225.426L245.411 227.189L248.449 228.926Z" fill="#F5EDFF" stroke="#5100CD" stroke-linecap="round" stroke-linejoin="round"/>
<path d="M248.449 232.047V228.926L251.487 227.189V230.336L248.449 232.056V232.047Z" fill="#5100CD" stroke="#5100CD" stroke-linecap="round" stroke-linejoin="round"/>
<path d="M245.411 230.275V227.189L248.449 228.926V232.047L245.411 230.275Z" fill="#F5EDFF" stroke="#5100CD" stroke-linecap="round" stroke-linejoin="round"/>
<path d="M280.987 243.648L284.025 241.912L280.987 240.148L277.949 241.912L280.987 243.648Z" fill="#F5EDFF" stroke="#5100CD" stroke-linecap="round" stroke-linejoin="round"/>
<path d="M280.987 246.769V243.648L284.025 241.912V245.059L280.987 246.778V246.769Z" fill="#5100CD" stroke="#5100CD" stroke-linecap="round" stroke-linejoin="round"/>
<path d="M277.949 244.997V241.912L280.987 243.648V246.769L277.949 244.997Z" fill="#F5EDFF" stroke="#5100CD" stroke-linecap="round" stroke-linejoin="round"/>
<path d="M320.509 219.996L323.547 218.259L320.509 216.496L317.471 218.259L320.509 219.996Z" fill="#F5EDFF" stroke="#5100CD" stroke-linecap="round" stroke-linejoin="round"/>
<path d="M320.509 223.125V220.004L323.547 218.268V221.415L320.509 223.134V223.125Z" fill="#5100CD" stroke="#5100CD" stroke-linecap="round" stroke-linejoin="round"/>
<path d="M317.471 221.344V218.259L320.509 219.996V223.116L317.471 221.344Z" fill="#F5EDFF" stroke="#5100CD" stroke-linecap="round" stroke-linejoin="round"/>
<path d="M320.509 165.003L323.547 163.266L320.509 161.503L317.471 163.266L320.509 165.003Z" fill="#F5EDFF" stroke="#5100CD" stroke-linecap="round" stroke-linejoin="round"/>
<path d="M320.509 168.123V165.003L323.547 163.266V166.413L320.509 168.132V168.123Z" fill="#5100CD" stroke="#5100CD" stroke-linecap="round" stroke-linejoin="round"/>
<path d="M317.471 166.351V163.266L320.509 165.003V168.123L317.471 166.351Z" fill="#F5EDFF" stroke="#5100CD" stroke-linecap="round" stroke-linejoin="round"/>
<path d="M320.509 144.585L323.547 142.849L320.509 141.085L317.471 142.849L320.509 144.585Z" fill="#F5EDFF" stroke="#5100CD" stroke-linecap="round" stroke-linejoin="round"/>
<path d="M320.509 147.706V144.585L323.547 142.849V145.996L320.509 147.715V147.706Z" fill="#5100CD" stroke="#5100CD" stroke-linecap="round" stroke-linejoin="round"/>
<path d="M317.471 145.934V142.849L320.509 144.585V147.706L317.471 145.934Z" fill="#F5EDFF" stroke="#5100CD" stroke-linecap="round" stroke-linejoin="round"/>
<path d="M48.1599 183.498V197.013V210.527L61.9391 202.672V189.158V175.643L48.1599 183.498Z" fill="#DBC8F6" stroke="#5100CD" stroke-linecap="round" stroke-linejoin="round"/>
<path d="M34.3806 162.129L48.1598 154.274L103.286 185.684L89.5065 193.531L34.3806 162.129Z" fill="#F5EDFF" stroke="#5100CD" stroke-linecap="round" stroke-linejoin="round"/>
<path d="M75.7183 118.103L89.5065 110.248V123.762L75.7183 131.617V118.103Z" fill="#DBC8F6" stroke="#5100CD" stroke-linecap="round" stroke-linejoin="round"/>
<path d="M89.5065 152.987L75.7183 145.132L61.9391 137.286L48.1598 129.431L34.3806 121.585V135.099L48.1598 142.946L61.9391 150.8L75.7183 158.646L89.5065 166.501V180.016V193.531L75.7183 185.684L61.9391 177.83L48.1598 169.984L34.3806 162.129V175.643V189.158V202.673V216.196L48.1598 224.042L61.9391 231.897L75.7183 239.743L89.5065 247.598L103.286 255.444V241.929L89.5065 234.083L75.7183 226.228L61.9391 218.382L48.1598 210.527V197.013V183.498L61.9391 191.344L75.7183 199.199L89.5065 207.045L103.286 214.9V201.385V187.871V174.347V160.833L89.5065 152.987Z" fill="#F5EDFF" stroke="#5100CD" stroke-linecap="round" stroke-linejoin="round"/>
<path d="M117.065 128.135L103.286 120.289L89.5064 112.434L75.7182 104.588L61.939 96.7332V110.248V123.762L75.7182 131.617V118.103L89.5064 125.949L103.286 133.804L117.065 141.65L130.844 149.504V135.99L117.065 128.135Z" fill="#F5EDFF" stroke="#5100CD" stroke-linecap="round" stroke-linejoin="round"/>
<path d="M130.844 149.504V135.99L144.623 128.135V141.65L130.844 149.504Z" fill="#DBC8F6" stroke="#5100CD" stroke-linecap="round" stroke-linejoin="round"/>
<path d="M117.065 168.688V182.202V195.717V209.231V222.746L130.844 230.601V217.086V203.572V190.048V176.534L117.065 168.688Z" fill="#F5EDFF" stroke="#5100CD" stroke-linecap="round" stroke-linejoin="round"/>
<path d="M130.844 176.534V190.048V203.572V217.086V230.601L144.623 222.746V209.231V195.717V182.202V168.688L130.844 176.534Z" fill="#DBC8F6" stroke="#5100CD" stroke-linecap="round" stroke-linejoin="round"/>
<path d="M103.286 160.833V174.347V187.871V201.385V214.9L117.065 207.045V193.531V180.016V166.501V152.987L103.286 160.833Z" fill="#DBC8F6" stroke="#5100CD" stroke-linecap="round" stroke-linejoin="round"/>
<path d="M103.286 241.929L117.065 234.083V247.598L103.286 255.444V241.929Z" fill="#DBC8F6" stroke="#5100CD" stroke-linecap="round" stroke-linejoin="round"/>
<path d="M144.623 168.688L130.844 160.833L117.065 168.688L130.844 176.534L144.623 168.688Z" fill="#F5EDFF" stroke="#5100CD" stroke-linecap="round" stroke-linejoin="round"/>
<path d="M61.939 96.7331L75.7182 88.8871L144.623 128.135L130.844 135.99L61.939 96.7331Z" fill="#F5EDFF" stroke="#5100CD" stroke-linecap="round" stroke-linejoin="round"/>
<path d="M34.3806 121.585L48.1598 113.73L117.065 152.987L103.286 160.833L34.3806 121.585Z" fill="#F5EDFF" stroke="#5100CD" stroke-linecap="round" stroke-linejoin="round"/>
<path d="M48.1599 210.527L61.9391 202.672L117.065 234.083L103.286 241.929L48.1599 210.527Z" fill="#F5EDFF" stroke="#5100CD" stroke-linecap="round" stroke-linejoin="round"/>
<path d="M320.509 41.9871V89.7334L351.752 72.8865L320.509 41.9959V41.9871Z" fill="#F5EDFF" stroke="#5100CD" stroke-linecap="round" stroke-linejoin="round"/>
<path d="M320.509 103.759V89.7246L351.752 72.8776L320.509 103.759Z" fill="#DBC8F6" stroke="#5100CD" stroke-linecap="round" stroke-linejoin="round"/>
<path d="M320.509 41.9871V89.7334L289.265 72.8865L320.509 41.9959V41.9871Z" fill="#F5EDFF" stroke="#5100CD" stroke-linecap="round" stroke-linejoin="round"/>
<path d="M320.509 103.759V89.7246L289.265 72.8776L320.509 103.759Z" fill="#F5EDFF" stroke="#5100CD" stroke-linecap="round" stroke-linejoin="round"/>
<path d="M310.478 255.567L300.788 271.039L314.091 288.23L342.593 297.054L369.603 292.347L379.302 276.875L365.999 259.684L337.488 250.86L310.478 255.567Z" fill="#F5EDFF" stroke="#5100CD" stroke-linecap="round" stroke-linejoin="round"/>
<path d="M339.402 240.069L367.905 248.894L381.207 266.076L371.518 281.556L344.508 286.255L316.005 277.43L302.703 260.248L312.392 244.768L339.402 240.069ZM323.277 251.547L317.156 261.324L325.56 272.185L343.573 277.757L360.633 274.786L366.754 265.009L358.35 254.148L340.337 248.576L323.277 251.547Z" fill="#F5EDFF" stroke="#5100CD" stroke-linecap="round" stroke-linejoin="round"/>
<path d="M302.703 260.248L300.788 271.039L314.091 288.23L316.005 277.439L302.703 260.248Z" fill="#F5EDFF" stroke="#5100CD" stroke-linecap="round" stroke-linejoin="round"/>
<path d="M344.517 286.264L342.593 297.054L369.603 292.347L371.527 281.556L344.517 286.264Z" fill="#DBC8F6" stroke="#5100CD" stroke-linecap="round" stroke-linejoin="round"/>
<path d="M316.005 277.439L314.091 288.23L342.593 297.054L344.517 286.264L316.005 277.439Z" fill="#F5EDFF" stroke="#5100CD" stroke-linecap="round" stroke-linejoin="round"/>
<path d="M371.527 281.556L369.603 292.347L379.302 276.875L381.216 266.084L371.527 281.556Z" fill="#DBC8F6" stroke="#5100CD" stroke-linecap="round" stroke-linejoin="round"/>
<path d="M323.286 251.547L321.363 262.329L338.432 259.358L340.346 248.576L323.286 251.547Z" fill="#DBC8F6" stroke="#5100CD" stroke-linecap="round" stroke-linejoin="round"/>
<path d="M356.444 264.938L358.359 254.157L366.763 265.009L362.134 272.273L356.444 264.938Z" fill="#F5EDFF" stroke="#5100CD" stroke-linecap="round" stroke-linejoin="round"/>
<path d="M319.772 264.7L321.363 262.329L323.286 251.547L317.156 261.324L319.772 264.7Z" fill="#DBC8F6" stroke="#5100CD" stroke-linecap="round" stroke-linejoin="round"/>
<path d="M340.346 248.576L338.432 259.358L356.444 264.938L358.359 254.157L340.346 248.576Z" fill="#F5EDFF" stroke="#5100CD" stroke-linecap="round" stroke-linejoin="round"/>
<path d="M248.449 156.478C262.016 156.478 273.014 150.088 273.014 142.205C273.014 134.322 262.016 127.932 248.449 127.932C234.882 127.932 223.883 134.322 223.883 142.205C223.883 150.088 234.882 156.478 248.449 156.478Z" fill="#F5EDFF" stroke="#5100CD" stroke-linecap="round" stroke-linejoin="round"/>
<path d="M248.449 152.07C259.042 152.07 267.63 147.653 267.63 142.205C267.63 136.757 259.042 132.34 248.449 132.34C237.855 132.34 229.267 136.757 229.267 142.205C229.267 147.653 237.855 152.07 248.449 152.07Z" fill="#5100CD" stroke="#5100CD" stroke-linecap="round" stroke-linejoin="round"/>
<path d="M225.151 146.727L242.381 179.937C242.939 181.374 244.97 182.484 247.505 182.705L243.631 156.196C234.939 155.191 227.91 151.523 225.142 146.719L225.151 146.727Z" fill="#F5EDFF" stroke="#5100CD" stroke-linecap="round" stroke-linejoin="round"/>
<path d="M248.449 156.478C246.804 156.478 245.195 156.381 243.64 156.204L247.514 182.714C247.819 182.74 248.134 182.758 248.449 182.758C248.934 182.758 249.401 182.722 249.851 182.661V156.451C249.383 156.469 248.916 156.478 248.449 156.478Z" fill="#5100CD" stroke="#5100CD" stroke-linecap="round" stroke-linejoin="round"/>
<path d="M256.547 155.684C255.253 155.949 253.914 156.152 252.538 156.284C251.657 156.372 250.759 156.425 249.842 156.46V182.669C250.615 182.564 251.343 182.379 251.972 182.123C252.179 182.044 252.368 181.947 252.556 181.85C252.736 181.753 252.916 181.656 253.078 181.55L258.758 155.164C258.039 155.358 257.302 155.534 256.547 155.684Z" fill="#F5EDFF" stroke="#5100CD" stroke-linecap="round" stroke-linejoin="round"/>
<path d="M267.037 151.523C264.763 153.048 261.949 154.3 258.758 155.155L253.078 181.541C253.788 181.074 254.3 180.501 254.525 179.875L256.664 175.758L271.729 146.736C270.704 148.517 269.095 150.139 267.028 151.523H267.037Z" fill="#5100CD" stroke="#5100CD" stroke-linecap="round" stroke-linejoin="round"/>
<path d="M226.544 290.91L223.578 289.217L226.544 287.489L229.51 289.217L226.544 290.91Z" fill="#F5EDFF" stroke="#5100CD" stroke-linecap="round" stroke-linejoin="round"/>
<path d="M218.616 295.415L215.65 293.722L218.616 291.985L221.582 293.722L218.616 295.415Z" fill="#F5EDFF" stroke="#5100CD" stroke-linecap="round" stroke-linejoin="round"/>
<path d="M210.679 299.919L207.713 298.227L210.679 296.499L213.645 298.227L210.679 299.919Z" fill="#F5EDFF" stroke="#5100CD" stroke-linecap="round" stroke-linejoin="round"/>
<path d="M202.752 304.424L199.785 302.732L202.752 300.995L205.718 302.732L202.752 304.424Z" fill="#F5EDFF" stroke="#5100CD" stroke-linecap="round" stroke-linejoin="round"/>
<path d="M155.562 290.91L158.529 289.217L155.562 287.489L152.596 289.217L155.562 290.91Z" fill="#F5EDFF" stroke="#5100CD" stroke-linecap="round" stroke-linejoin="round"/>
<path d="M163.49 295.415L166.456 293.722L163.49 291.985L160.524 293.722L163.49 295.415Z" fill="#F5EDFF" stroke="#5100CD" stroke-linecap="round" stroke-linejoin="round"/>
<path d="M171.427 299.919L174.393 298.227L171.427 296.499L168.461 298.227L171.427 299.919Z" fill="#F5EDFF" stroke="#5100CD" stroke-linecap="round" stroke-linejoin="round"/>
<path d="M179.364 304.424L182.33 302.732L179.364 300.995L176.397 302.732L179.364 304.424Z" fill="#F5EDFF" stroke="#5100CD" stroke-linecap="round" stroke-linejoin="round"/>
<path d="M191.058 304.186L231.91 280.904L191.058 257.084L150.205 280.904L191.058 304.186Z" fill="#F5EDFF" stroke="#5100CD" stroke-linecap="round" stroke-linejoin="round"/>
<path d="M231.901 280.904V284.236L191.049 307.519V304.195L231.901 280.913V280.904Z" fill="#DBC8F6" stroke="#5100CD" stroke-linecap="round" stroke-linejoin="round"/>
<path d="M150.205 280.904V284.236L191.058 307.519V304.195L150.205 280.913V280.904Z" fill="#F5EDFF" stroke="#5100CD" stroke-linecap="round" stroke-linejoin="round"/>
<path d="M191.058 274.671L211.992 262.734L191.058 250.525L170.115 262.734L191.058 274.671Z" fill="#F5EDFF" stroke="#5100CD" stroke-linecap="round" stroke-linejoin="round"/>
<path d="M191.058 274.671L190.905 274.936C191.004 274.988 191.121 274.988 191.21 274.936L191.058 274.671ZM211.992 262.734L212.144 262.999C212.234 262.946 212.297 262.849 212.297 262.743C212.297 262.637 212.243 262.541 212.144 262.479L211.992 262.734ZM170.115 262.734L169.962 262.479C169.872 262.532 169.809 262.629 169.809 262.743C169.809 262.849 169.863 262.946 169.962 262.999L170.115 262.734ZM191.058 250.525L191.21 250.269C191.112 250.216 190.995 250.216 190.896 250.269L191.049 250.525H191.058ZM182.393 262.655L182.24 262.399C182.15 262.452 182.087 262.549 182.087 262.664C182.087 262.77 182.141 262.867 182.24 262.92L182.393 262.655ZM191.067 257.595H191.372C191.372 257.489 191.309 257.383 191.219 257.33C191.121 257.277 191.004 257.277 190.914 257.33L191.067 257.586V257.595ZM191.067 257.595H190.761C190.761 257.701 190.815 257.798 190.914 257.851L191.067 257.595ZM199.732 262.646L199.884 262.911C199.983 262.858 200.037 262.761 200.037 262.655C200.037 262.549 199.983 262.452 199.884 262.391L199.732 262.646ZM191.058 267.592L190.905 267.856C191.004 267.909 191.121 267.909 191.21 267.856L191.058 267.592ZM191.21 274.927L212.144 262.99L211.839 262.47L190.905 274.407L191.21 274.927ZM169.962 262.99L190.905 274.927L191.21 274.407L170.267 262.47L169.962 262.99ZM190.896 250.26L169.953 262.47L170.267 262.99L191.21 250.78L190.896 250.26ZM212.144 262.47L191.21 250.26L190.896 250.78L211.83 262.99L212.144 262.47ZM182.231 262.902L184.038 263.933L184.343 263.413L182.537 262.382L182.231 262.902ZM190.896 257.322L182.231 262.382L182.546 262.902L191.21 257.842L190.896 257.322ZM199.884 262.382L191.219 257.33L190.905 257.851L199.57 262.902L199.884 262.382ZM198.078 263.933L199.884 262.902L199.579 262.382L197.772 263.413L198.078 263.933ZM191.21 267.848L198.078 263.933L197.772 263.413L190.905 267.328L191.21 267.848ZM184.038 263.933L190.905 267.848L191.21 267.328L184.343 263.413L184.038 263.933Z" fill="#5100CD"/>
<path d="M182.384 262.655L184.19 263.687C186.456 262.364 191.058 259.684 191.058 259.684V257.604L182.393 262.664L182.384 262.655Z" fill="#DBC8F6" stroke="#5100CD" stroke-linecap="round" stroke-linejoin="round"/>
<path d="M191.058 257.604V259.684L197.925 263.687L199.731 262.655L191.067 257.604H191.058Z" stroke="#5100CD" stroke-linecap="round" stroke-linejoin="round"/>
<path d="M197.916 263.687L191.049 259.684C191.049 259.684 186.447 262.373 184.182 263.687L191.049 267.601L197.916 263.687Z" stroke="#5100CD" stroke-linecap="round" stroke-linejoin="round"/>
<path d="M211.992 262.743V280.199L191.058 292.135V274.68L211.992 262.743Z" fill="#DBC8F6" stroke="#5100CD" stroke-linecap="round" stroke-linejoin="round"/>
<path d="M170.115 262.743L191.058 274.68V292.135L170.115 280.199V262.743Z" fill="#F5EDFF" stroke="#5100CD" stroke-linecap="round" stroke-linejoin="round"/>
<path d="M186.545 255.594V260.01L191.049 257.454V253.037L186.545 255.594Z" fill="#F5EDFF" stroke="#5100CD" stroke-linecap="round" stroke-linejoin="round"/>
<path d="M195.57 255.594V260.01L191.058 257.454V253.037L195.57 255.594Z" fill="#F5EDFF" stroke="#5100CD" stroke-linecap="round" stroke-linejoin="round"/>
<path d="M191.058 262.549V258.133L186.554 255.576V259.993L191.058 262.549Z" fill="#F5EDFF" stroke="#5100CD" stroke-linecap="round" stroke-linejoin="round"/>
<path d="M191.058 262.549V258.133L195.561 255.576V259.993L191.058 262.549Z" fill="#DBC8F6" stroke="#5100CD" stroke-linecap="round" stroke-linejoin="round"/>
<path d="M186.545 255.576L191.049 253.037L195.552 255.576L191.049 258.133L186.545 255.576Z" fill="#F5EDFF" stroke="#5100CD" stroke-linecap="round" stroke-linejoin="round"/>
<path d="M186.545 242.176V246.593L191.049 244.036V239.619L186.545 242.176Z" fill="#F5EDFF" stroke="#5100CD" stroke-linecap="round" stroke-linejoin="round"/>
<path d="M195.57 242.176V246.593L191.058 244.036V239.619L195.57 242.176Z" fill="#F5EDFF" stroke="#5100CD" stroke-linecap="round" stroke-linejoin="round"/>
<path d="M191.058 249.132V244.715L186.554 242.158V246.575L191.058 249.132Z" fill="#F5EDFF" stroke="#5100CD" stroke-linecap="round" stroke-linejoin="round"/>
<path d="M191.058 249.132V244.715L195.561 242.158V246.575L191.058 249.132Z" fill="#DBC8F6" stroke="#5100CD" stroke-linecap="round" stroke-linejoin="round"/>
<path d="M186.545 242.158L191.049 239.619L195.552 242.158L191.049 244.715L186.545 242.158Z" fill="#F5EDFF" stroke="#5100CD" stroke-linecap="round" stroke-linejoin="round"/>
<path d="M186.545 223.081V227.498L191.049 224.941V220.524L186.545 223.081Z" fill="#F5EDFF" stroke="#5100CD" stroke-linecap="round" stroke-linejoin="round"/>
<path d="M195.57 223.081V227.498L191.058 224.941V220.524L195.57 223.081Z" fill="#F5EDFF" stroke="#5100CD" stroke-linecap="round" stroke-linejoin="round"/>
<path d="M191.058 230.037V225.611L186.554 223.055V227.48L191.058 230.037Z" fill="#F5EDFF" stroke="#5100CD" stroke-linecap="round" stroke-linejoin="round"/>
<path d="M191.058 230.037V225.611L195.561 223.055V227.48L191.058 230.037Z" fill="#DBC8F6" stroke="#5100CD" stroke-linecap="round" stroke-linejoin="round"/>
<path d="M186.545 223.055L191.049 220.524L195.552 223.055L191.049 225.611L186.545 223.055Z" fill="#F5EDFF" stroke="#5100CD" stroke-linecap="round" stroke-linejoin="round"/>
<path d="M186.545 195.47V199.896L191.049 197.339V192.922L186.545 195.47Z" fill="#F5EDFF" stroke="#5100CD" stroke-linecap="round" stroke-linejoin="round"/>
<path d="M195.57 195.47V199.896L191.058 197.339V192.922L195.57 195.47Z" fill="#F5EDFF" stroke="#5100CD" stroke-linecap="round" stroke-linejoin="round"/>
<path d="M191.058 202.426V198.009L186.554 195.452V199.869L191.058 202.426Z" fill="#F5EDFF" stroke="#5100CD" stroke-linecap="round" stroke-linejoin="round"/>
<path d="M191.058 202.426V198.009L195.561 195.452V199.869L191.058 202.426Z" fill="#DBC8F6" stroke="#5100CD" stroke-linecap="round" stroke-linejoin="round"/>
<path d="M186.545 195.452L191.049 192.922L195.552 195.452L191.049 198.009L186.545 195.452Z" fill="#F5EDFF" stroke="#5100CD" stroke-linecap="round" stroke-linejoin="round"/>
<path d="M123.051 296.411V299.919L126.629 297.892V294.383L123.051 296.411Z" fill="#F5EDFF" stroke="#5100CD" stroke-linecap="round" stroke-linejoin="round"/>
<path d="M130.215 296.411V299.919L126.638 297.892V294.383L130.215 296.411Z" fill="#F5EDFF" stroke="#5100CD" stroke-linecap="round" stroke-linejoin="round"/>
<path d="M126.638 301.929V298.421L123.06 296.393V299.902L126.638 301.929Z" fill="#F5EDFF" stroke="#5100CD" stroke-linecap="round" stroke-linejoin="round"/>
<path d="M126.638 301.929V298.421L130.215 296.393V299.902L126.638 301.929Z" fill="#F5EDFF" stroke="#5100CD" stroke-linecap="round" stroke-linejoin="round"/>
<path d="M123.06 296.393L126.638 294.383L130.215 296.393L126.638 298.421L123.06 296.393Z" fill="#F5EDFF" stroke="#5100CD" stroke-linecap="round" stroke-linejoin="round"/>
<path d="M127.59 299.003V302.511L131.168 300.484V296.975L127.59 299.003Z" fill="#F5EDFF" stroke="#5100CD" stroke-linecap="round" stroke-linejoin="round"/>
<path d="M134.745 299.003V302.511L131.168 300.484V296.975L134.745 299.003Z" fill="#F5EDFF" stroke="#5100CD" stroke-linecap="round" stroke-linejoin="round"/>
<path d="M131.168 304.521V301.013L127.59 298.985V302.494L131.168 304.521Z" fill="#F5EDFF" stroke="#5100CD" stroke-linecap="round" stroke-linejoin="round"/>
<path d="M131.168 304.521V301.013L134.745 298.985V302.494L131.168 304.521Z" fill="#F5EDFF" stroke="#5100CD" stroke-linecap="round" stroke-linejoin="round"/>
<path d="M127.59 298.985L131.168 296.975L134.745 298.985L131.168 301.013L127.59 298.985Z" fill="#F5EDFF" stroke="#5100CD" stroke-linecap="round" stroke-linejoin="round"/>
<path d="M132.121 301.594V305.103L135.698 303.076V299.567L132.121 301.594Z" fill="#F5EDFF" stroke="#5100CD" stroke-linecap="round" stroke-linejoin="round"/>
<path d="M139.284 301.594V305.103L135.707 303.076V299.567L139.284 301.594Z" fill="#F5EDFF" stroke="#5100CD" stroke-linecap="round" stroke-linejoin="round"/>
<path d="M135.698 307.113V303.604L132.121 301.577V305.086L135.698 307.113Z" fill="#F5EDFF" stroke="#5100CD" stroke-linecap="round" stroke-linejoin="round"/>
<path d="M135.698 307.113V303.604L139.275 301.577V305.086L135.698 307.113Z" fill="#F5EDFF" stroke="#5100CD" stroke-linecap="round" stroke-linejoin="round"/>
<path d="M132.121 301.577L135.698 299.567L139.275 301.577L135.698 303.604L132.121 301.577Z" fill="#F5EDFF" stroke="#5100CD" stroke-linecap="round" stroke-linejoin="round"/>
<path d="M118.521 299.003V302.511L122.099 300.484V296.975L118.521 299.003Z" fill="#F5EDFF" stroke="#5100CD" stroke-linecap="round" stroke-linejoin="round"/>
<path d="M125.676 299.003V302.511L122.099 300.484V296.975L125.676 299.003Z" fill="#F5EDFF" stroke="#5100CD" stroke-linecap="round" stroke-linejoin="round"/>
<path d="M122.099 304.521V301.013L118.521 298.985V302.494L122.099 304.521Z" fill="#F5EDFF" stroke="#5100CD" stroke-linecap="round" stroke-linejoin="round"/>
<path d="M122.099 304.521V301.013L125.676 298.985V302.494L122.099 304.521Z" fill="#F5EDFF" stroke="#5100CD" stroke-linecap="round" stroke-linejoin="round"/>
<path d="M118.521 298.985L122.099 296.975L125.676 298.985L122.099 301.013L118.521 298.985Z" fill="#F5EDFF" stroke="#5100CD" stroke-linecap="round" stroke-linejoin="round"/>
<path d="M123.051 301.594V305.103L126.629 303.076V299.567L123.051 301.594Z" fill="#F5EDFF" stroke="#5100CD" stroke-linecap="round" stroke-linejoin="round"/>
<path d="M130.215 301.594V305.103L126.638 303.076V299.567L130.215 301.594Z" fill="#F5EDFF" stroke="#5100CD" stroke-linecap="round" stroke-linejoin="round"/>
<path d="M126.638 307.113V303.604L123.06 301.577V305.086L126.638 307.113Z" fill="#F5EDFF" stroke="#5100CD" stroke-linecap="round" stroke-linejoin="round"/>
<path d="M126.638 307.113V303.604L130.215 301.577V305.086L126.638 307.113Z" fill="#F5EDFF" stroke="#5100CD" stroke-linecap="round" stroke-linejoin="round"/>
<path d="M123.06 301.577L126.638 299.567L130.215 301.577L126.638 303.604L123.06 301.577Z" fill="#F5EDFF" stroke="#5100CD" stroke-linecap="round" stroke-linejoin="round"/>
<path d="M127.59 304.186V307.695L131.168 305.667V302.159L127.59 304.186Z" fill="#F5EDFF" stroke="#5100CD" stroke-linecap="round" stroke-linejoin="round"/>
<path d="M134.745 304.186V307.695L131.168 305.667V302.159L134.745 304.186Z" fill="#F5EDFF" stroke="#5100CD" stroke-linecap="round" stroke-linejoin="round"/>
<path d="M131.168 309.705V306.196L127.59 304.169V307.677L131.168 309.705Z" fill="#F5EDFF" stroke="#5100CD" stroke-linecap="round" stroke-linejoin="round"/>
<path d="M131.168 309.705V306.196L134.745 304.169V307.677L131.168 309.705Z" fill="#F5EDFF" stroke="#5100CD" stroke-linecap="round" stroke-linejoin="round"/>
<path d="M127.59 304.169L131.168 302.159L134.745 304.169L131.168 306.196L127.59 304.169Z" fill="#F5EDFF" stroke="#5100CD" stroke-linecap="round" stroke-linejoin="round"/>
<path d="M113.991 301.594V305.103L117.568 303.076V299.567L113.991 301.594Z" fill="#F5EDFF" stroke="#5100CD" stroke-linecap="round" stroke-linejoin="round"/>
<path d="M121.146 301.594V305.103L117.568 303.076V299.567L121.146 301.594Z" fill="#F5EDFF" stroke="#5100CD" stroke-linecap="round" stroke-linejoin="round"/>
<path d="M117.568 307.113V303.604L113.991 301.577V305.086L117.568 307.113Z" fill="#F5EDFF" stroke="#5100CD" stroke-linecap="round" stroke-linejoin="round"/>
<path d="M117.568 307.113V303.604L121.146 301.577V305.086L117.568 307.113Z" fill="#F5EDFF" stroke="#5100CD" stroke-linecap="round" stroke-linejoin="round"/>
<path d="M113.991 301.577L117.568 299.567L121.146 301.577L117.568 303.604L113.991 301.577Z" fill="#F5EDFF" stroke="#5100CD" stroke-linecap="round" stroke-linejoin="round"/>
<path d="M118.521 304.186V307.695L122.099 305.667V302.159L118.521 304.186Z" fill="#F5EDFF" stroke="#5100CD" stroke-linecap="round" stroke-linejoin="round"/>
<path d="M125.676 304.186V307.695L122.099 305.667V302.159L125.676 304.186Z" fill="#F5EDFF" stroke="#5100CD" stroke-linecap="round" stroke-linejoin="round"/>
<path d="M122.099 309.705V306.196L118.521 304.169V307.677L122.099 309.705Z" fill="#F5EDFF" stroke="#5100CD" stroke-linecap="round" stroke-linejoin="round"/>
<path d="M122.099 309.705V306.196L125.676 304.169V307.677L122.099 309.705Z" fill="#DBC8F6" stroke="#5100CD" stroke-linecap="round" stroke-linejoin="round"/>
<path d="M118.521 304.169L122.099 302.159L125.676 304.169L122.099 306.196L118.521 304.169Z" fill="#DBC8F6" stroke="#5100CD" stroke-linecap="round" stroke-linejoin="round"/>
<path d="M123.051 306.778V310.287L126.629 308.259V304.751L123.051 306.778Z" fill="#DBC8F6" stroke="#5100CD" stroke-linecap="round" stroke-linejoin="round"/>
<path d="M130.215 306.778V310.287L126.638 308.259V304.751L130.215 306.778Z" fill="#DBC8F6" stroke="#5100CD" stroke-linecap="round" stroke-linejoin="round"/>
<path d="M126.638 312.297V308.788L123.06 306.761V310.269L126.638 312.297Z" fill="#F5EDFF" stroke="#5100CD" stroke-linecap="round" stroke-linejoin="round"/>
<path d="M126.638 312.297V308.788L130.215 306.761V310.269L126.638 312.297Z" fill="#F5EDFF" stroke="#5100CD" stroke-linecap="round" stroke-linejoin="round"/>
<path d="M123.06 306.761L126.638 304.751L130.215 306.761L126.638 308.788L123.06 306.761Z" fill="#F5EDFF" stroke="#5100CD" stroke-linecap="round" stroke-linejoin="round"/>
<path d="M109.434 304.186V307.695L113.011 305.667V302.159L109.434 304.186Z" fill="#F5EDFF" stroke="#5100CD" stroke-linecap="round" stroke-linejoin="round"/>
<path d="M116.598 304.186V307.695L113.02 305.667V302.159L116.598 304.186Z" fill="#F5EDFF" stroke="#5100CD" stroke-linecap="round" stroke-linejoin="round"/>
<path d="M113.02 309.705V306.196L109.443 304.169V307.677L113.02 309.705Z" fill="#F5EDFF" stroke="#5100CD" stroke-linecap="round" stroke-linejoin="round"/>
<path d="M113.02 309.705V306.196L116.598 304.169V307.677L113.02 309.705Z" fill="#F5EDFF" stroke="#5100CD" stroke-linecap="round" stroke-linejoin="round"/>
<path d="M109.443 304.169L113.02 302.159L116.598 304.169L113.02 306.196L109.443 304.169Z" fill="#F5EDFF" stroke="#5100CD" stroke-linecap="round" stroke-linejoin="round"/>
<path d="M113.973 306.778V310.287L117.55 308.259V304.751L113.973 306.778Z" fill="#F5EDFF" stroke="#5100CD" stroke-linecap="round" stroke-linejoin="round"/>
<path d="M121.128 306.778V310.287L117.55 308.259V304.751L121.128 306.778Z" fill="#F5EDFF" stroke="#5100CD" stroke-linecap="round" stroke-linejoin="round"/>
<path d="M117.55 312.297V308.788L113.973 306.761V310.269L117.55 312.297Z" fill="#F5EDFF" stroke="#5100CD" stroke-linecap="round" stroke-linejoin="round"/>
<path d="M117.55 312.297V308.788L121.128 306.761V310.269L117.55 312.297Z" fill="#F5EDFF" stroke="#5100CD" stroke-linecap="round" stroke-linejoin="round"/>
<path d="M113.973 306.761L117.55 304.751L121.128 306.761L117.55 308.788L113.973 306.761Z" fill="#F5EDFF" stroke="#5100CD" stroke-linecap="round" stroke-linejoin="round"/>
<path d="M118.503 309.37V312.879L122.081 310.851V307.342L118.503 309.37Z" fill="#F5EDFF" stroke="#5100CD" stroke-linecap="round" stroke-linejoin="round"/>
<path d="M125.667 309.37V312.879L122.09 310.851V307.342L125.667 309.37Z" fill="#F5EDFF" stroke="#5100CD" stroke-linecap="round" stroke-linejoin="round"/>
<path d="M122.081 314.897V311.389L118.503 309.361V312.87L122.081 314.897Z" fill="#F5EDFF" stroke="#5100CD" stroke-linecap="round" stroke-linejoin="round"/>
<path d="M122.081 314.897V311.389L125.658 309.361V312.87L122.081 314.897Z" fill="#F5EDFF" stroke="#5100CD" stroke-linecap="round" stroke-linejoin="round"/>
<path d="M118.503 309.361L122.081 307.351L125.658 309.361L122.081 311.389L118.503 309.361Z" fill="#F5EDFF" stroke="#5100CD" stroke-linecap="round" stroke-linejoin="round"/>
<path d="M140.237 302.159V305.667L143.814 307.695V304.186L140.237 302.159Z" fill="#F5EDFF" stroke="#5100CD" stroke-linecap="round" stroke-linejoin="round"/>
<path d="M140.228 302.159V305.667L136.651 307.695V304.186L140.228 302.159Z" fill="#F5EDFF" stroke="#5100CD" stroke-linecap="round" stroke-linejoin="round"/>
<path d="M143.814 307.686V304.177L140.237 306.205V309.714L143.814 307.686Z" fill="#DBC8F6" stroke="#5100CD" stroke-linecap="round" stroke-linejoin="round"/>
<path d="M136.66 307.686V304.177L140.237 306.205V309.714L136.66 307.686Z" fill="#F5EDFF" stroke="#5100CD" stroke-linecap="round" stroke-linejoin="round"/>
<path d="M140.237 306.196L136.66 304.169L140.237 302.159L143.814 304.169L140.237 306.196Z" fill="#F5EDFF" stroke="#5100CD" stroke-linecap="round" stroke-linejoin="round"/>
<path d="M135.707 304.759V308.268L139.284 310.296V306.787L135.707 304.759Z" fill="#F5EDFF" stroke="#5100CD" stroke-linecap="round" stroke-linejoin="round"/>
<path d="M135.698 304.759V308.268L132.121 310.296V306.787L135.698 304.759Z" fill="#F5EDFF" stroke="#5100CD" stroke-linecap="round" stroke-linejoin="round"/>
<path d="M139.275 310.278V306.769L135.698 308.797V312.306L139.275 310.278Z" fill="#DBC8F6" stroke="#5100CD" stroke-linecap="round" stroke-linejoin="round"/>
<path d="M132.121 310.278V306.769L135.698 308.797V312.306L132.121 310.278Z" fill="#F5EDFF" stroke="#5100CD" stroke-linecap="round" stroke-linejoin="round"/>
<path d="M135.698 308.788L132.121 306.761L135.698 304.751L139.275 306.761L135.698 308.788Z" fill="#F5EDFF" stroke="#5100CD" stroke-linecap="round" stroke-linejoin="round"/>
<path d="M131.168 307.351V310.86L134.745 312.888V309.379L131.168 307.351Z" fill="#F5EDFF" stroke="#5100CD" stroke-linecap="round" stroke-linejoin="round"/>
<path d="M131.168 307.351V310.86L127.59 312.888V309.379L131.168 307.351Z" fill="#F5EDFF" stroke="#5100CD" stroke-linecap="round" stroke-linejoin="round"/>
<path d="M134.745 312.87V309.361L131.168 311.389V314.897L134.745 312.87Z" fill="#DBC8F6" stroke="#5100CD" stroke-linecap="round" stroke-linejoin="round"/>
<path d="M127.59 312.87V309.361L131.168 311.389V314.897L127.59 312.87Z" fill="#F5EDFF" stroke="#5100CD" stroke-linecap="round" stroke-linejoin="round"/>
<path d="M131.168 311.38L127.59 309.352L131.168 307.342L134.745 309.352L131.168 311.38Z" fill="#F5EDFF" stroke="#5100CD" stroke-linecap="round" stroke-linejoin="round"/>
<path d="M123.042 311.962V315.471L126.62 313.443V309.934L123.042 311.962Z" fill="#F5EDFF" stroke="#5100CD" stroke-linecap="round" stroke-linejoin="round"/>
<path d="M130.197 311.962V315.471L126.62 313.443V309.934L130.197 311.962Z" fill="#F5EDFF" stroke="#5100CD" stroke-linecap="round" stroke-linejoin="round"/>
<path d="M126.62 317.489V313.981L123.042 311.953V315.462L126.62 317.489Z" fill="#F5EDFF" stroke="#5100CD" stroke-linecap="round" stroke-linejoin="round"/>
<path d="M126.62 317.489V313.981L130.197 311.953V315.462L126.62 317.489Z" fill="#DBC8F6" stroke="#5100CD" stroke-linecap="round" stroke-linejoin="round"/>
<path d="M123.042 311.953L126.62 309.943L130.197 311.953L126.62 313.981L123.042 311.953Z" fill="#F5EDFF" stroke="#5100CD" stroke-linecap="round" stroke-linejoin="round"/>
<path d="M126.611 305.808L139.554 298.43L126.611 290.892L113.676 298.43L126.611 305.808Z" fill="#F5EDFF" stroke="#5100CD" stroke-linecap="round" stroke-linejoin="round"/>
<path d="M121.262 298.386L122.377 299.02C123.779 298.209 126.62 296.543 126.62 296.543V295.256L121.262 298.377V298.386Z" fill="#DBC8F6" stroke="#5100CD" stroke-linecap="round" stroke-linejoin="round"/>
<path d="M126.611 295.256V296.543L130.853 299.02L131.968 298.386L126.611 295.256Z" fill="#F5EDFF" stroke="#5100CD" stroke-linecap="round" stroke-linejoin="round"/>
<path d="M130.853 299.02L126.61 296.543C126.61 296.543 123.77 298.2 122.368 299.02L126.61 301.436L130.853 299.02Z" fill="#F5EDFF" stroke="#5100CD" stroke-linecap="round" stroke-linejoin="round"/>
<path d="M126.611 311.274V305.808L139.554 298.43V303.992L126.611 311.274Z" fill="#DBC8F6" stroke="#5100CD" stroke-linecap="round" stroke-linejoin="round"/>
<path d="M113.676 303.737V298.43L126.611 305.808V311.274L113.676 303.737Z" fill="#F5EDFF" stroke="#5100CD" stroke-linecap="round" stroke-linejoin="round"/>
<path d="M172.991 91.3555L140.417 72.7983V43.9883L172.991 62.5367V91.3555Z" fill="#F5EDFF" stroke="#5100CD" stroke-linecap="round" stroke-linejoin="round"/>
<path d="M172.083 79.6041L167.077 76.7478C165.288 75.7251 163.832 73.4771 163.832 71.7228C163.832 69.9684 165.279 69.369 167.077 70.3916L172.083 73.2479C173.872 74.2705 175.328 76.5186 175.328 78.2729C175.328 80.0273 173.881 80.6267 172.083 79.6041Z" fill="#F5EDFF" stroke="#5100CD" stroke-linecap="round" stroke-linejoin="round"/>
<path d="M136.183 46.3597L140.417 43.9883L172.991 62.5367L168.757 64.9081L136.183 46.3597Z" fill="#F5EDFF" stroke="#5100CD" stroke-linecap="round" stroke-linejoin="round"/>
<path d="M170.384 82.2224L170.222 82.3105C170.276 82.2841 170.33 82.2576 170.384 82.2224Z" fill="#F5EDFF" stroke="#5100CD" stroke-linecap="round" stroke-linejoin="round"/>
<path d="M168.757 93.7269L172.991 91.3555V62.5367L168.757 64.9081V93.7269Z" fill="#DBC8F6" stroke="#5100CD" stroke-linecap="round" stroke-linejoin="round"/>
<path d="M168.757 93.727L136.183 75.1697V46.3597L168.757 64.9082V93.727Z" fill="#F5EDFF" stroke="#5100CD" stroke-linecap="round" stroke-linejoin="round"/>
<path d="M167.84 81.9755L162.834 79.1192C161.045 78.0966 159.589 75.8486 159.589 74.0942C159.589 72.3399 161.036 71.7404 162.834 72.7631L167.84 75.6194C169.629 76.642 171.085 78.89 171.085 80.6444C171.085 82.3987 169.638 82.9982 167.84 81.9755Z" fill="#F5EDFF" stroke="#5100CD" stroke-linecap="round" stroke-linejoin="round"/>
<path d="M167.84 81.9755L162.834 79.1192C161.045 78.0966 159.589 75.8486 159.589 74.0942C159.589 72.3399 161.036 71.7404 162.834 72.7631L167.84 75.6194C169.629 76.642 171.085 78.89 171.085 80.6444C171.085 82.3987 169.638 82.9982 167.84 81.9755Z" fill="#DBC8F6" stroke="#5100CD" stroke-linecap="round" stroke-linejoin="round"/>
<path d="M166.978 82.5045L161.971 79.6482C160.182 78.6255 158.726 76.3775 158.726 74.6232C158.726 72.8688 160.173 72.2694 161.971 73.292L166.978 76.1483C168.766 77.1709 170.222 79.419 170.222 81.1733C170.222 82.9276 168.775 83.5271 166.978 82.5045Z" fill="#F5EDFF" stroke="#5100CD" stroke-linecap="round" stroke-linejoin="round"/>
<path d="M175.238 78.9164L173.216 80.0449L171.004 81.2791C170.897 81.7022 170.681 82.0108 170.375 82.2136L172.416 81.0763L174.456 79.9303L174.618 79.8421C174.914 79.6393 175.139 79.3308 175.247 78.9164H175.238Z" fill="#F5EDFF" stroke="#5100CD" stroke-linecap="round" stroke-linejoin="round"/>
<path d="M172.91 73.8209L170.618 75.108L168.757 76.1483V76.2629C169.557 76.9505 170.231 77.8586 170.645 78.7842C170.924 79.419 171.094 80.0537 171.094 80.6443C171.094 80.8824 171.067 81.0939 171.013 81.2879L173.225 80.0537L175.247 78.9253C175.301 78.7313 175.328 78.5197 175.328 78.2817C175.328 76.8095 174.303 74.9846 172.91 73.8297V73.8209Z" fill="#DBC8F6" stroke="#5100CD" stroke-linecap="round" stroke-linejoin="round"/>
<path d="M172.91 73.8209L168.757 76.1483L170.609 75.108L172.91 73.8209Z" fill="#F5EDFF" stroke="#5100CD" stroke-linecap="round" stroke-linejoin="round"/>
<path d="M158.169 64.6084L155.499 70.4269L157.612 71.4583L153.468 76.0954C152.201 77.55 149.846 77.5148 147.32 76.0778C143.347 73.8121 140.183 68.9105 140.183 65.014C140.183 62.5279 141.522 60.9851 143.734 61.0028H150.87L150.691 62.9687L158.178 64.6173L158.169 64.6084ZM146.924 73.6446C149.387 75.0463 151.419 74.2441 151.419 71.7933C151.419 69.3425 149.378 66.2217 146.924 64.82C144.471 63.4183 142.43 64.2558 142.43 66.6713C142.43 69.0869 144.435 72.2253 146.924 73.6446ZM146.924 68.1259C146.924 68.743 146.394 68.9282 145.801 68.5844C145.172 68.2229 144.677 67.4647 144.677 66.8388C144.677 66.257 145.172 66.019 145.801 66.3804C146.394 66.7242 146.924 67.5353 146.924 68.1259ZM147.491 71.758C147.176 71.5817 146.924 71.1938 146.924 70.8853C146.924 70.612 147.167 70.4709 147.491 70.6561C147.769 70.8148 148.057 71.2555 148.057 71.5288C148.057 71.8374 147.778 71.9167 147.491 71.758Z" fill="#5100CD"/>
<path d="M266.965 228.45L265.419 227.568L266.965 226.669L268.511 227.568L266.965 228.45Z" fill="#F5EDFF" stroke="#5100CD" stroke-linecap="round" stroke-linejoin="round"/>
<path d="M262.83 230.804L261.284 229.922L262.83 229.014L264.376 229.922L262.83 230.804Z" fill="#F5EDFF" stroke="#5100CD" stroke-linecap="round" stroke-linejoin="round"/>
<path d="M258.686 233.157L257.14 232.276L258.686 231.377L260.232 232.276L258.686 233.157Z" fill="#F5EDFF" stroke="#5100CD" stroke-linecap="round" stroke-linejoin="round"/>
<path d="M254.552 235.502L253.006 234.621L254.552 233.713L256.098 234.621L254.552 235.502Z" fill="#F5EDFF" stroke="#5100CD" stroke-linecap="round" stroke-linejoin="round"/>
<path d="M229.932 228.45L231.478 227.568L229.932 226.669L228.386 227.568L229.932 228.45Z" fill="#F5EDFF" stroke="#5100CD" stroke-linecap="round" stroke-linejoin="round"/>
<path d="M234.067 230.804L235.613 229.922L234.067 229.014L232.521 229.922L234.067 230.804Z" fill="#F5EDFF" stroke="#5100CD" stroke-linecap="round" stroke-linejoin="round"/>
<path d="M238.202 233.157L239.748 232.276L238.202 231.377L236.656 232.276L238.202 233.157Z" fill="#F5EDFF" stroke="#5100CD" stroke-linecap="round" stroke-linejoin="round"/>
<path d="M242.346 235.502L243.892 234.621L242.346 233.713L240.8 234.621L242.346 235.502Z" fill="#F5EDFF" stroke="#5100CD" stroke-linecap="round" stroke-linejoin="round"/>
<path d="M248.449 235.379L269.76 223.231L248.449 210.801L227.137 223.231L248.449 235.379Z" fill="#F5EDFF" stroke="#5100CD" stroke-linecap="round" stroke-linejoin="round"/>
<path d="M269.76 223.231V224.968L248.449 237.116V235.379L269.76 223.231Z" fill="#5100CD" stroke="#5100CD" stroke-linecap="round" stroke-linejoin="round"/>
<path d="M227.128 223.231V224.968L248.44 237.116V235.379L227.128 223.231Z" fill="#F5EDFF" stroke="#5100CD" stroke-linecap="round" stroke-linejoin="round"/>
<path d="M233.645 220.904H232.979L233.267 222.649C233.411 223.619 234.13 224.562 235.424 225.311C238.346 226.969 243.073 226.969 245.986 225.311C247.289 224.571 248.008 223.619 248.143 222.649L248.431 220.904H233.645Z" fill="#F5EDFF" stroke="#5100CD" stroke-linecap="round" stroke-linejoin="round"/>
<path d="M238.04 220.904V226.272C238.723 226.422 239.433 226.51 240.152 226.537V220.904H238.04Z" fill="#DBC8F6" stroke="#5100CD" stroke-linecap="round" stroke-linejoin="round"/>
<path d="M233.645 220.904H232.979L233.267 222.649C233.411 223.619 234.13 224.562 235.424 225.311C236.197 225.752 237.087 226.07 238.04 226.281V220.912H233.645V220.904Z" fill="#F5EDFF" stroke="#5100CD" stroke-linecap="round" stroke-linejoin="round"/>
<path d="M247.756 220.904H244.17V226.061C244.826 225.867 245.437 225.611 245.986 225.303C247.289 224.562 248.008 223.61 248.143 222.64L248.431 220.895H247.765L247.756 220.904Z" fill="#DBC8F6" stroke="#5100CD" stroke-linecap="round" stroke-linejoin="round"/>
<path d="M241.222 220.904H240.152V226.537C240.512 226.554 240.871 226.554 241.222 226.537C241.968 226.51 242.714 226.413 243.424 226.255V220.904H241.222Z" fill="#F5EDFF" stroke="#5100CD" stroke-linecap="round" stroke-linejoin="round"/>
<path d="M243.424 220.904V226.255C243.676 226.202 243.927 226.131 244.17 226.061V220.904H243.424Z" fill="#DBC8F6" stroke="#5100CD" stroke-linecap="round" stroke-linejoin="round"/>
<path d="M240.701 224.703C245.014 224.703 248.512 222.71 248.512 220.251C248.512 217.792 245.014 215.799 240.701 215.799C236.387 215.799 232.89 217.792 232.89 220.251C232.89 222.71 236.387 224.703 240.701 224.703Z" fill="#F5EDFF" stroke="#5100CD" stroke-linecap="round" stroke-linejoin="round"/>
<path d="M240.701 221.803C242.205 221.803 243.424 221.108 243.424 220.251C243.424 219.394 242.205 218.7 240.701 218.7C239.196 218.7 237.977 219.394 237.977 220.251C237.977 221.108 239.196 221.803 240.701 221.803Z" fill="#F5EDFF" stroke="#5100CD" stroke-linecap="round" stroke-linejoin="round"/>
<path d="M238.777 219.802C239.838 219.193 241.564 219.193 242.633 219.802C243.02 220.022 243.262 220.286 243.37 220.569C243.559 220.075 243.316 219.528 242.633 219.14C241.573 218.532 239.847 218.532 238.777 219.14C238.094 219.528 237.851 220.066 238.04 220.569C238.148 220.286 238.391 220.013 238.777 219.802Z" fill="#F5EDFF" stroke="#5100CD" stroke-linecap="round" stroke-linejoin="round"/>
<path d="M238.777 221.344C239.838 221.953 241.564 221.953 242.633 221.344C243.02 221.124 243.262 220.859 243.37 220.577C243.262 220.295 243.02 220.022 242.633 219.81C241.572 219.202 239.847 219.202 238.777 219.81C238.391 220.031 238.148 220.295 238.04 220.577C238.148 220.859 238.391 221.133 238.777 221.344Z" fill="#F5EDFF" stroke="#5100CD" stroke-linecap="round" stroke-linejoin="round"/>
<path d="M233.645 217.959H232.979L233.267 219.705C233.411 220.674 234.13 221.618 235.424 222.367C238.346 224.024 243.073 224.024 245.986 222.367C247.289 221.626 248.008 220.674 248.143 219.705L248.431 217.959H233.645Z" fill="#F5EDFF" stroke="#5100CD" stroke-linecap="round" stroke-linejoin="round"/>
<path d="M238.04 217.959V223.328C238.723 223.478 239.433 223.566 240.152 223.592V217.959H238.04Z" fill="#DBC8F6" stroke="#5100CD" stroke-linecap="round" stroke-linejoin="round"/>
<path d="M233.645 217.959H232.979L233.267 219.705C233.411 220.674 234.13 221.618 235.424 222.367C236.197 222.808 237.087 223.125 238.04 223.337V217.968H233.645V217.959Z" fill="#F5EDFF" stroke="#5100CD" stroke-linecap="round" stroke-linejoin="round"/>
<path d="M247.756 217.959H244.17V223.116C244.826 222.922 245.437 222.667 245.986 222.358C247.289 221.618 248.008 220.666 248.143 219.696L248.431 217.95H247.765L247.756 217.959Z" fill="#DBC8F6" stroke="#5100CD" stroke-linecap="round" stroke-linejoin="round"/>
<path d="M241.222 217.959H240.152V223.592C240.512 223.61 240.871 223.61 241.222 223.592C241.968 223.566 242.714 223.469 243.424 223.31V217.959H241.222Z" fill="#F5EDFF" stroke="#5100CD" stroke-linecap="round" stroke-linejoin="round"/>
<path d="M243.424 217.959V223.31C243.676 223.257 243.927 223.187 244.17 223.116V217.959H243.424Z" fill="#DBC8F6" stroke="#5100CD" stroke-linecap="round" stroke-linejoin="round"/>
<path d="M240.701 221.75C245.014 221.75 248.512 219.757 248.512 217.298C248.512 214.839 245.014 212.846 240.701 212.846C236.387 212.846 232.89 214.839 232.89 217.298C232.89 219.757 236.387 221.75 240.701 221.75Z" fill="#F5EDFF" stroke="#5100CD" stroke-linecap="round" stroke-linejoin="round"/>
<path d="M240.701 218.849C242.205 218.849 243.424 218.155 243.424 217.298C243.424 216.441 242.205 215.746 240.701 215.746C239.196 215.746 237.977 216.441 237.977 217.298C237.977 218.155 239.196 218.849 240.701 218.849Z" fill="#F5EDFF" stroke="#5100CD" stroke-linecap="round" stroke-linejoin="round"/>
<path d="M238.777 216.857C239.838 216.249 241.564 216.249 242.633 216.857C243.02 217.077 243.262 217.342 243.37 217.624C243.559 217.13 243.316 216.584 242.633 216.196C241.573 215.588 239.847 215.588 238.777 216.196C238.094 216.584 237.851 217.122 238.04 217.624C238.148 217.342 238.391 217.069 238.777 216.857Z" fill="#DBC8F6" stroke="#5100CD" stroke-linecap="round" stroke-linejoin="round"/>
<path d="M238.777 218.4C239.838 219.008 241.564 219.008 242.633 218.4C243.02 218.179 243.262 217.915 243.37 217.633C243.262 217.351 243.02 217.077 242.633 216.866C241.572 216.258 239.847 216.258 238.777 216.866C238.391 217.086 238.148 217.351 238.04 217.633C238.148 217.915 238.391 218.188 238.777 218.4Z" fill="#F5EDFF" stroke="#5100CD" stroke-linecap="round" stroke-linejoin="round"/>
<path d="M258.731 224.245L265.967 220.11L258.731 215.887L251.487 220.11L258.731 224.245Z" fill="#F5EDFF" stroke="#5100CD" stroke-linecap="round" stroke-linejoin="round"/>
<path d="M255.729 220.084L256.349 220.436C257.131 219.978 258.722 219.052 258.722 219.052V218.329L255.72 220.075L255.729 220.084Z" fill="#DBC8F6" stroke="#5100CD" stroke-linecap="round" stroke-linejoin="round"/>
<path d="M258.731 218.338V219.052L261.104 220.436L261.724 220.084L258.731 218.338Z" fill="#F5EDFF" stroke="#5100CD" stroke-linecap="round" stroke-linejoin="round"/>
<path d="M261.104 220.436L258.731 219.052C258.731 219.052 257.14 219.978 256.358 220.436L258.731 221.794L261.104 220.436Z" fill="#F5EDFF" stroke="#5100CD" stroke-linecap="round" stroke-linejoin="round"/>
<path d="M258.731 227.304V224.245L265.967 220.11V223.222L258.731 227.304Z" fill="#5100CD" stroke="#5100CD" stroke-linecap="round" stroke-linejoin="round"/>
<path d="M251.487 223.081V220.11L258.731 224.245V227.304L251.487 223.081Z" fill="#F5EDFF" stroke="#5100CD" stroke-linecap="round" stroke-linejoin="round"/>
<path d="M231.218 188.162V190.251L230.633 190.824H229.249L228.665 190.251V188.162L229.249 187.589H230.633L231.218 188.162ZM230.364 189.934V188.479L230.211 188.329H229.654L229.501 188.479V189.934L229.654 190.084H230.211L230.364 189.934Z" fill="#5100CD"/>
<path d="M234.337 188.162V190.251L233.752 190.824H232.368L231.784 190.251V188.162L232.368 187.589H233.752L234.337 188.162ZM233.483 189.934V188.479L233.33 188.329H232.773L232.62 188.479V189.934L232.773 190.084H233.33L233.483 189.934Z" fill="#5100CD"/>
<path d="M237.474 190.084V190.824H235.092V190.084H235.856V188.435L235.236 188.814L234.84 188.188L235.811 187.598H236.71V190.092H237.474V190.084Z" fill="#5100CD"/>
<path d="M240.593 190.084V190.824H238.211V190.084H238.975V188.435L238.354 188.814L237.959 188.188L238.93 187.598H239.829V190.092H240.593V190.084Z" fill="#5100CD"/>
<path d="M231.218 193.883V195.972L230.633 196.546H229.249L228.665 195.972V193.883L229.249 193.31H230.633L231.218 193.883ZM230.364 195.655V194.201L230.211 194.051H229.654L229.501 194.201V195.655L229.654 195.805H230.211L230.364 195.655Z" fill="#5100CD"/>
<path d="M234.337 193.883V195.972L233.752 196.546H232.368L231.784 195.972V193.883L232.368 193.31H233.752L234.337 193.883ZM233.483 195.655V194.201L233.33 194.051H232.773L232.62 194.201V195.655L232.773 195.805H233.33L233.483 195.655Z" fill="#5100CD"/>
<path d="M237.474 195.796V196.537H235.092V195.796H235.856V194.148L235.236 194.527L234.84 193.901L235.811 193.31H236.71V195.805H237.474V195.796Z" fill="#5100CD"/>
<path d="M240.575 193.883V195.972L239.99 196.546H238.606L238.022 195.972V193.883L238.606 193.31H239.99L240.575 193.883ZM239.721 195.655V194.201L239.568 194.051H239.011L238.858 194.201V195.655L239.011 195.805H239.568L239.721 195.655Z" fill="#5100CD"/>
<path d="M231.218 199.596V201.685L230.633 202.258H229.249L228.665 201.685V199.596L229.249 199.023H230.633L231.218 199.596ZM230.364 201.368V199.913L230.211 199.763H229.654L229.501 199.913V201.368L229.654 201.518H230.211L230.364 201.368Z" fill="#5100CD"/>
<path d="M234.337 199.596V201.685L233.752 202.258H232.368L231.784 201.685V199.596L232.368 199.023H233.752L234.337 199.596ZM233.483 201.368V199.913L233.33 199.763H232.773L232.62 199.913V201.368L232.773 201.518H233.33L233.483 201.368Z" fill="#5100CD"/>
<path d="M237.474 201.518V202.258H235.092V201.518H235.856V199.869L235.236 200.248L234.84 199.622L235.811 199.032H236.71V201.526H237.474V201.518Z" fill="#5100CD"/>
<path d="M240.593 201.518V202.258H238.211V201.518H238.975V199.869L238.354 200.248L237.959 199.622L238.93 199.032H239.829V201.526H240.593V201.518Z" fill="#5100CD"/>
<path d="M231.218 205.317V207.407L230.633 207.98H229.249L228.665 207.407V205.317L229.249 204.744H230.633L231.218 205.317ZM230.364 207.089V205.635L230.211 205.485H229.654L229.501 205.635V207.089L229.654 207.239H230.211L230.364 207.089Z" fill="#5100CD"/>
<path d="M234.355 207.23V207.971H231.973V207.23H232.737V205.582L232.117 205.961L231.721 205.335L232.692 204.744H233.591V207.239H234.355V207.23Z" fill="#5100CD"/>
<path d="M237.474 207.23V207.971H235.092V207.23H235.856V205.582L235.236 205.961L234.84 205.335L235.811 204.744H236.71V207.239H237.474V207.23Z" fill="#5100CD"/>
<path d="M240.575 205.317V207.407L239.99 207.98H238.606L238.022 207.407V205.317L238.606 204.744H239.99L240.575 205.317ZM239.721 207.089V205.635L239.568 205.485H239.011L238.858 205.635V207.089L239.011 207.239H239.568L239.721 207.089Z" fill="#5100CD"/>
</svg>
