<svg width="475" height="380" viewBox="0 0 475 380" fill="none" xmlns="http://www.w3.org/2000/svg">
<path d="M114.32 131.93L179.49 94.0801" stroke="#5100CD" stroke-linecap="round" stroke-linejoin="round"/>
<path d="M98.4302 123.83L163.6 85.9805" stroke="#5100CD" stroke-linecap="round" stroke-linejoin="round"/>
<path d="M124.03 111.97V109.04L126.83 107.42V110.37L124.03 111.98V111.97Z" fill="#5100CD" stroke="#5100CD" stroke-linecap="round" stroke-linejoin="round"/>
<path d="M121.23 110.3V107.41L124.04 109.03V111.96L121.23 110.3Z" fill="#F5EDFF" stroke="#5100CD" stroke-linecap="round" stroke-linejoin="round"/>
<path d="M124.03 109.04L126.83 107.42L124.03 105.75L121.22 107.42L124.03 109.04Z" fill="#F5EDFF" stroke="#5100CD" stroke-linecap="round" stroke-linejoin="round"/>
<path d="M160.43 108.021V105.091L163.23 103.471V106.421L160.43 108.031V108.021Z" fill="#5100CD" stroke="#5100CD" stroke-linecap="round" stroke-linejoin="round"/>
<path d="M157.63 106.361V103.471L160.44 105.091V108.021L157.63 106.361Z" fill="#F5EDFF" stroke="#5100CD" stroke-linecap="round" stroke-linejoin="round"/>
<path d="M160.43 105.091L163.23 103.471L160.43 101.801L157.62 103.471L160.43 105.091Z" fill="#F5EDFF" stroke="#5100CD" stroke-linecap="round" stroke-linejoin="round"/>
<path d="M211.26 328.621L122.95 277.341" stroke="#5100CD" stroke-linecap="round" stroke-linejoin="round"/>
<path d="M147.03 345.131L116.11 327.181" stroke="#5100CD" stroke-linecap="round" stroke-linejoin="round"/>
<path d="M373.6 311.011L312.61 275.591" stroke="#5100CD" stroke-linecap="round" stroke-linejoin="round"/>
<path d="M246.65 313.78L413.16 217.07" stroke="#5100CD" stroke-linecap="round" stroke-linejoin="round"/>
<path d="M113.62 325.13L159.22 298.65" stroke="#5100CD" stroke-linecap="round" stroke-linejoin="round"/>
<path d="M142.86 344.82L214.32 303.32" stroke="#5100CD" stroke-linecap="round" stroke-linejoin="round"/>
<path d="M159.21 298.46L162.59 296.49L159.21 294.49L155.83 296.49L159.21 298.46Z" fill="#F5EDFF" stroke="#5100CD" stroke-linecap="round" stroke-linejoin="round"/>
<path d="M159.21 302V298.46L162.59 296.49V300.06L159.21 302.01V302Z" fill="#5100CD" stroke="#5100CD" stroke-linecap="round" stroke-linejoin="round"/>
<path d="M155.83 299.99V296.49L159.21 298.46V302L155.83 299.99Z" fill="#F5EDFF" stroke="#5100CD" stroke-linecap="round" stroke-linejoin="round"/>
<path d="M114.91 325.75L118.29 323.78L114.91 321.78L111.53 323.78L114.91 325.75Z" fill="#F5EDFF" stroke="#5100CD" stroke-linecap="round" stroke-linejoin="round"/>
<path d="M114.91 329.29V325.75L118.29 323.78V327.35L114.91 329.3V329.29Z" fill="#5100CD" stroke="#5100CD" stroke-linecap="round" stroke-linejoin="round"/>
<path d="M111.53 327.28V323.78L114.91 325.75V329.29L111.53 327.28Z" fill="#F5EDFF" stroke="#5100CD" stroke-linecap="round" stroke-linejoin="round"/>
<path d="M160.9 333.01L164.28 331.04L160.9 329.04L157.52 331.04L160.9 333.01Z" fill="#F5EDFF" stroke="#5100CD" stroke-linecap="round" stroke-linejoin="round"/>
<path d="M160.9 336.55V333.01L164.28 331.04V334.61L160.9 336.56V336.55Z" fill="#5100CD" stroke="#5100CD" stroke-linecap="round" stroke-linejoin="round"/>
<path d="M157.52 334.54V331.04L160.9 333.01V336.55L157.52 334.54Z" fill="#F5EDFF" stroke="#5100CD" stroke-linecap="round" stroke-linejoin="round"/>
<path d="M275.37 297.22V195.49" stroke="#5100CD" stroke-linecap="round" stroke-linejoin="round"/>
<path d="M364.5 245.27V196.03" stroke="#5100CD" stroke-linecap="round" stroke-linejoin="round"/>
<path d="M413.16 216.89V92.6904" stroke="#5100CD" stroke-linecap="round" stroke-linejoin="round"/>
<path d="M275.37 297.22L278.75 295.25L275.37 293.25L271.99 295.25L275.37 297.22Z" fill="#F5EDFF" stroke="#5100CD" stroke-linecap="round" stroke-linejoin="round"/>
<path d="M275.37 300.76V297.22L278.75 295.25V298.82L275.37 300.77V300.76Z" fill="#5100CD" stroke="#5100CD" stroke-linecap="round" stroke-linejoin="round"/>
<path d="M271.99 298.75V295.25L275.37 297.22V300.76L271.99 298.75Z" fill="#F5EDFF" stroke="#5100CD" stroke-linecap="round" stroke-linejoin="round"/>
<path d="M275.37 260.191L278.75 258.221L275.37 256.221L271.99 258.221L275.37 260.191Z" fill="#F5EDFF" stroke="#5100CD" stroke-linecap="round" stroke-linejoin="round"/>
<path d="M275.37 263.74V260.2L278.75 258.23V261.8L275.37 263.75V263.74Z" fill="#5100CD" stroke="#5100CD" stroke-linecap="round" stroke-linejoin="round"/>
<path d="M271.99 261.73V258.23L275.37 260.2V263.74L271.99 261.73Z" fill="#F5EDFF" stroke="#5100CD" stroke-linecap="round" stroke-linejoin="round"/>
<path d="M312.61 275.811L315.99 273.841L312.61 271.841L309.23 273.841L312.61 275.811Z" fill="#F5EDFF" stroke="#5100CD" stroke-linecap="round" stroke-linejoin="round"/>
<path d="M312.61 279.351V275.811L315.99 273.841V277.411L312.61 279.361V279.351Z" fill="#5100CD" stroke="#5100CD" stroke-linecap="round" stroke-linejoin="round"/>
<path d="M309.23 277.341V273.841L312.61 275.811V279.351L309.23 277.341Z" fill="#F5EDFF" stroke="#5100CD" stroke-linecap="round" stroke-linejoin="round"/>
<path d="M364.5 245.271L367.88 243.301L364.5 241.301L361.12 243.301L364.5 245.271Z" fill="#F5EDFF" stroke="#5100CD" stroke-linecap="round" stroke-linejoin="round"/>
<path d="M364.5 248.811V245.271L367.88 243.301V246.871L364.5 248.821V248.811Z" fill="#5100CD" stroke="#5100CD" stroke-linecap="round" stroke-linejoin="round"/>
<path d="M361.12 246.801V243.301L364.5 245.271V248.811L361.12 246.801Z" fill="#F5EDFF" stroke="#5100CD" stroke-linecap="round" stroke-linejoin="round"/>
<path d="M413.16 216.59L416.54 214.62L413.16 212.62L409.78 214.62L413.16 216.59Z" fill="#F5EDFF" stroke="#5100CD" stroke-linecap="round" stroke-linejoin="round"/>
<path d="M413.16 220.13V216.59L416.54 214.62V218.19L413.16 220.14V220.13Z" fill="#5100CD" stroke="#5100CD" stroke-linecap="round" stroke-linejoin="round"/>
<path d="M409.78 218.12V214.62L413.16 216.59V220.13L409.78 218.12Z" fill="#F5EDFF" stroke="#5100CD" stroke-linecap="round" stroke-linejoin="round"/>
<path d="M413.16 165.441L416.54 163.471L413.16 161.471L409.78 163.471L413.16 165.441Z" fill="#F5EDFF" stroke="#5100CD" stroke-linecap="round" stroke-linejoin="round"/>
<path d="M413.16 168.99V165.45L416.54 163.48V167.05L413.16 169V168.99Z" fill="#5100CD" stroke="#5100CD" stroke-linecap="round" stroke-linejoin="round"/>
<path d="M409.78 166.971V163.471L413.16 165.441V168.981L409.78 166.971Z" fill="#F5EDFF" stroke="#5100CD" stroke-linecap="round" stroke-linejoin="round"/>
<path d="M53.5801 207.58V222.91V238.24L68.9101 229.33V214V198.67L53.5801 207.58Z" fill="#DBC8F6" stroke="#5100CD" stroke-linecap="round" stroke-linejoin="round"/>
<path d="M38.25 183.34L53.58 174.43L114.91 210.06L99.58 218.96L38.25 183.34Z" fill="#F5EDFF" stroke="#5100CD" stroke-linecap="round" stroke-linejoin="round"/>
<path d="M84.2402 133.4L99.5802 124.49V139.82L84.2402 148.73V133.4Z" fill="#DBC8F6" stroke="#5100CD" stroke-linecap="round" stroke-linejoin="round"/>
<path d="M99.58 172.971L84.24 164.061L68.91 155.161L53.58 146.251L38.25 137.351V152.681L53.58 161.581L68.91 170.491L84.24 179.391L99.58 188.301V203.631V218.961L84.24 210.061L68.91 201.151L53.58 192.251L38.25 183.341V198.671V214.001V229.331V244.671L53.58 253.571L68.91 262.481L84.24 271.381L99.58 280.291L114.91 289.191V273.861L99.58 264.961L84.24 256.051L68.91 247.151L53.58 238.241V222.911V207.581L68.91 216.481L84.24 225.391L99.58 234.291L114.91 243.201V227.871V212.541V197.201V181.871L99.58 172.971Z" fill="#F5EDFF" stroke="#5100CD" stroke-linecap="round" stroke-linejoin="round"/>
<path d="M130.24 144.78L114.91 135.88L99.5802 126.97L84.2402 118.07L68.9102 109.16V124.49V139.82L84.2402 148.73V133.4L99.5802 142.3L114.91 151.21L130.24 160.11L145.57 169.02V153.69L130.24 144.78Z" fill="#F5EDFF" stroke="#5100CD" stroke-linecap="round" stroke-linejoin="round"/>
<path d="M145.57 169.02V153.69L160.9 144.78V160.11L145.57 169.02Z" fill="#DBC8F6" stroke="#5100CD" stroke-linecap="round" stroke-linejoin="round"/>
<path d="M130.24 190.78V206.11V221.44V236.77V252.1L145.57 261.01V245.68V230.35V215.01V199.68L130.24 190.78Z" fill="#F5EDFF" stroke="#5100CD" stroke-linecap="round" stroke-linejoin="round"/>
<path d="M145.57 199.68V215.01V230.35V245.68V261.01L160.9 252.1V236.77V221.44V206.11V190.78L145.57 199.68Z" fill="#DBC8F6" stroke="#5100CD" stroke-linecap="round" stroke-linejoin="round"/>
<path d="M114.91 181.87V197.2V212.54V227.87V243.2L130.24 234.29V218.96V203.63V188.3V172.97L114.91 181.87Z" fill="#DBC8F6" stroke="#5100CD" stroke-linecap="round" stroke-linejoin="round"/>
<path d="M114.91 273.86L130.24 264.96V280.29L114.91 289.19V273.86Z" fill="#DBC8F6" stroke="#5100CD" stroke-linecap="round" stroke-linejoin="round"/>
<path d="M160.9 190.78L145.57 181.87L130.24 190.78L145.57 199.68L160.9 190.78Z" fill="#F5EDFF" stroke="#5100CD" stroke-linecap="round" stroke-linejoin="round"/>
<path d="M68.9102 109.16L84.2402 100.26L160.9 144.78L145.57 153.69L68.9102 109.16Z" fill="#F5EDFF" stroke="#5100CD" stroke-linecap="round" stroke-linejoin="round"/>
<path d="M38.25 137.349L53.58 128.439L130.24 172.969L114.91 181.869L38.25 137.349Z" fill="#F5EDFF" stroke="#5100CD" stroke-linecap="round" stroke-linejoin="round"/>
<path d="M53.5801 238.24L68.9101 229.33L130.24 264.96L114.91 273.86L53.5801 238.24Z" fill="#F5EDFF" stroke="#5100CD" stroke-linecap="round" stroke-linejoin="round"/>
<path d="M413.47 70.71V124.87L448.23 105.76L413.47 70.72V70.71Z" fill="#F5EDFF" stroke="#5100CD" stroke-linecap="round" stroke-linejoin="round"/>
<path d="M413.47 140.78V124.86L448.23 105.75L413.47 140.78Z" fill="#DBC8F6" stroke="#5100CD" stroke-linecap="round" stroke-linejoin="round"/>
<path d="M413.47 70.71V124.87L378.71 105.76L413.47 70.72V70.71Z" fill="#F5EDFF" stroke="#5100CD" stroke-linecap="round" stroke-linejoin="round"/>
<path d="M413.47 140.78V124.86L378.71 105.75L413.47 140.78Z" fill="#F5EDFF" stroke="#5100CD" stroke-linecap="round" stroke-linejoin="round"/>
<path d="M364.5 189.02C376.672 189.02 386.54 183.173 386.54 175.96C386.54 168.748 376.672 162.9 364.5 162.9C352.328 162.9 342.46 168.748 342.46 175.96C342.46 183.173 352.328 189.02 364.5 189.02Z" fill="#F5EDFF" stroke="#5100CD" stroke-linecap="round" stroke-linejoin="round"/>
<path d="M343.6 180.101L359.06 210.491C359.56 211.801 361.38 212.821 363.66 213.021L360.19 188.771C352.39 187.851 346.08 184.501 343.6 180.101Z" fill="#F5EDFF" stroke="#5100CD" stroke-linecap="round" stroke-linejoin="round"/>
<path d="M364.5 189.021C363.02 189.021 361.58 188.931 360.19 188.771L363.66 213.021C363.93 213.041 364.21 213.061 364.5 213.061C364.93 213.061 365.35 213.031 365.76 212.971V188.991C365.34 189.001 364.92 189.01 364.5 189.01V189.021Z" fill="#DBC8F6" stroke="#5100CD" stroke-linecap="round" stroke-linejoin="round"/>
<path d="M371.77 188.29C370.61 188.53 369.41 188.72 368.17 188.84C367.38 188.92 366.57 188.97 365.75 189V212.98C366.45 212.88 367.1 212.71 367.66 212.48C367.84 212.4 368.02 212.32 368.18 212.23C368.34 212.14 368.5 212.05 368.65 211.96L373.74 187.82C373.09 188 372.43 188.16 371.76 188.3L371.77 188.29Z" fill="#F5EDFF" stroke="#5100CD" stroke-linecap="round" stroke-linejoin="round"/>
<path d="M381.18 184.49C379.14 185.89 376.61 187.03 373.75 187.82L368.66 211.96C369.3 211.53 369.76 211.01 369.96 210.43L371.88 206.66L385.4 180.11C384.48 181.74 383.04 183.22 381.18 184.49Z" fill="#DBC8F6" stroke="#5100CD" stroke-linecap="round" stroke-linejoin="round"/>
<path d="M252.04 329.421L248.74 327.501L252.04 325.541L255.34 327.501L252.04 329.421Z" fill="#F5EDFF" stroke="#5100CD" stroke-linecap="round" stroke-linejoin="round"/>
<path d="M243.22 334.531L239.92 332.611L243.22 330.641L246.52 332.611L243.22 334.531Z" fill="#F5EDFF" stroke="#5100CD" stroke-linecap="round" stroke-linejoin="round"/>
<path d="M234.39 339.641L231.09 337.721L234.39 335.761L237.69 337.721L234.39 339.641Z" fill="#F5EDFF" stroke="#5100CD" stroke-linecap="round" stroke-linejoin="round"/>
<path d="M225.57 344.75L222.27 342.83L225.57 340.86L228.87 342.83L225.57 344.75Z" fill="#F5EDFF" stroke="#5100CD" stroke-linecap="round" stroke-linejoin="round"/>
<path d="M173.07 329.421L176.37 327.501L173.07 325.541L169.77 327.501L173.07 329.421Z" fill="#F5EDFF" stroke="#5100CD" stroke-linecap="round" stroke-linejoin="round"/>
<path d="M181.89 334.531L185.19 332.611L181.89 330.641L178.59 332.611L181.89 334.531Z" fill="#F5EDFF" stroke="#5100CD" stroke-linecap="round" stroke-linejoin="round"/>
<path d="M190.72 339.641L194.02 337.721L190.72 335.761L187.42 337.721L190.72 339.641Z" fill="#F5EDFF" stroke="#5100CD" stroke-linecap="round" stroke-linejoin="round"/>
<path d="M199.55 344.75L202.85 342.83L199.55 340.86L196.25 342.83L199.55 344.75Z" fill="#F5EDFF" stroke="#5100CD" stroke-linecap="round" stroke-linejoin="round"/>
<path d="M212.56 344.481L258.01 318.071L212.56 291.051L167.11 318.071L212.56 344.481Z" fill="#F5EDFF" stroke="#5100CD" stroke-linecap="round" stroke-linejoin="round"/>
<path d="M258 318.07V321.85L212.55 348.26V344.49L258 318.08V318.07Z" fill="#DBC8F6" stroke="#5100CD" stroke-linecap="round" stroke-linejoin="round"/>
<path d="M167.11 318.07V321.85L212.56 348.26V344.49L167.11 318.08V318.07Z" fill="#F5EDFF" stroke="#5100CD" stroke-linecap="round" stroke-linejoin="round"/>
<path d="M212.56 311L235.85 297.46L212.56 283.61L189.26 297.46L212.56 311Z" fill="#F5EDFF" stroke="#5100CD" stroke-linecap="round" stroke-linejoin="round"/>
<path d="M212.56 311L212.39 311.3C212.5 311.36 212.63 311.36 212.73 311.3L212.56 311ZM235.85 297.46L236.02 297.76C236.12 297.7 236.19 297.59 236.19 297.47C236.19 297.35 236.13 297.24 236.02 297.17L235.85 297.46ZM189.26 297.46L189.09 297.17C188.99 297.23 188.92 297.34 188.92 297.47C188.92 297.59 188.98 297.7 189.09 297.76L189.26 297.46ZM212.56 283.61L212.73 283.32C212.62 283.26 212.49 283.26 212.38 283.32L212.55 283.61H212.56ZM202.92 297.37L202.75 297.08C202.65 297.14 202.58 297.25 202.58 297.38C202.58 297.5 202.64 297.61 202.75 297.67L202.92 297.37ZM212.57 291.63H212.91C212.91 291.51 212.84 291.39 212.74 291.33C212.63 291.27 212.5 291.27 212.4 291.33L212.57 291.62V291.63ZM212.57 291.63H212.23C212.23 291.75 212.29 291.86 212.4 291.92L212.57 291.63ZM222.21 297.36L222.38 297.66C222.49 297.6 222.55 297.49 222.55 297.37C222.55 297.25 222.49 297.14 222.38 297.07L222.21 297.36ZM212.56 302.97L212.39 303.27C212.5 303.33 212.63 303.33 212.73 303.27L212.56 302.97ZM212.73 311.29L236.02 297.75L235.68 297.16L212.39 310.7L212.73 311.29ZM189.09 297.75L212.39 311.29L212.73 310.7L189.43 297.16L189.09 297.75ZM212.38 283.31L189.08 297.16L189.43 297.75L212.73 283.9L212.38 283.31ZM236.02 297.16L212.73 283.31L212.38 283.9L235.67 297.75L236.02 297.16ZM202.74 297.65L204.75 298.82L205.09 298.23L203.08 297.06L202.74 297.65ZM212.38 291.32L202.74 297.06L203.09 297.65L212.73 291.91L212.38 291.32ZM222.38 297.06L212.74 291.33L212.39 291.92L222.03 297.65L222.38 297.06ZM220.37 298.82L222.38 297.65L222.04 297.06L220.03 298.23L220.37 298.82ZM212.73 303.26L220.37 298.82L220.03 298.23L212.39 302.67L212.73 303.26ZM204.75 298.82L212.39 303.26L212.73 302.67L205.09 298.23L204.75 298.82Z" fill="#5100CD"/>
<path d="M202.91 297.371L204.92 298.541C207.44 297.041 212.56 294.001 212.56 294.001V291.641L202.92 297.381L202.91 297.371Z" fill="#DBC8F6" stroke="#5100CD" stroke-linecap="round" stroke-linejoin="round"/>
<path d="M212.56 291.641V294.001L220.2 298.541L222.21 297.371L212.57 291.641H212.56Z" stroke="#5100CD" stroke-linecap="round" stroke-linejoin="round"/>
<path d="M220.19 298.541L212.55 294.001C212.55 294.001 207.43 297.051 204.91 298.541L212.55 302.981L220.19 298.541Z" stroke="#5100CD" stroke-linecap="round" stroke-linejoin="round"/>
<path d="M235.85 297.471V317.271L212.56 330.811V311.011L235.85 297.471Z" fill="#DBC8F6" stroke="#5100CD" stroke-linecap="round" stroke-linejoin="round"/>
<path d="M189.26 297.471L212.56 311.011V330.811L189.26 317.271V297.471Z" fill="#F5EDFF" stroke="#5100CD" stroke-linecap="round" stroke-linejoin="round"/>
<path d="M207.54 289.361V294.371L212.55 291.471V286.461L207.54 289.361Z" fill="#F5EDFF" stroke="#5100CD" stroke-linecap="round" stroke-linejoin="round"/>
<path d="M217.58 289.361V294.371L212.56 291.471V286.461L217.58 289.361Z" fill="#F5EDFF" stroke="#5100CD" stroke-linecap="round" stroke-linejoin="round"/>
<path d="M212.56 297.251V292.241L207.55 289.341V294.351L212.56 297.251Z" fill="#F5EDFF" stroke="#5100CD" stroke-linecap="round" stroke-linejoin="round"/>
<path d="M212.56 297.251V292.241L217.57 289.341V294.351L212.56 297.251Z" fill="#DBC8F6" stroke="#5100CD" stroke-linecap="round" stroke-linejoin="round"/>
<path d="M207.54 289.341L212.55 286.461L217.56 289.341L212.55 292.241L207.54 289.341Z" fill="#F5EDFF" stroke="#5100CD" stroke-linecap="round" stroke-linejoin="round"/>
<path d="M207.54 274.14V279.15L212.55 276.25V271.24L207.54 274.14Z" fill="#F5EDFF" stroke="#5100CD" stroke-linecap="round" stroke-linejoin="round"/>
<path d="M217.58 274.14V279.15L212.56 276.25V271.24L217.58 274.14Z" fill="#F5EDFF" stroke="#5100CD" stroke-linecap="round" stroke-linejoin="round"/>
<path d="M212.56 282.03V277.02L207.55 274.12V279.13L212.56 282.03Z" fill="#F5EDFF" stroke="#5100CD" stroke-linecap="round" stroke-linejoin="round"/>
<path d="M212.56 282.03V277.02L217.57 274.12V279.13L212.56 282.03Z" fill="#DBC8F6" stroke="#5100CD" stroke-linecap="round" stroke-linejoin="round"/>
<path d="M207.54 274.12L212.55 271.24L217.56 274.12L212.55 277.02L207.54 274.12Z" fill="#F5EDFF" stroke="#5100CD" stroke-linecap="round" stroke-linejoin="round"/>
<path d="M207.54 252.48V257.49L212.55 254.59V249.58L207.54 252.48Z" fill="#F5EDFF" stroke="#5100CD" stroke-linecap="round" stroke-linejoin="round"/>
<path d="M217.58 252.48V257.49L212.56 254.59V249.58L217.58 252.48Z" fill="#F5EDFF" stroke="#5100CD" stroke-linecap="round" stroke-linejoin="round"/>
<path d="M212.56 260.37V255.35L207.55 252.45V257.47L212.56 260.37Z" fill="#F5EDFF" stroke="#5100CD" stroke-linecap="round" stroke-linejoin="round"/>
<path d="M212.56 260.37V255.35L217.57 252.45V257.47L212.56 260.37Z" fill="#DBC8F6" stroke="#5100CD" stroke-linecap="round" stroke-linejoin="round"/>
<path d="M207.54 252.45L212.55 249.58L217.56 252.45L212.55 255.35L207.54 252.45Z" fill="#F5EDFF" stroke="#5100CD" stroke-linecap="round" stroke-linejoin="round"/>
<path d="M207.54 221.161V226.18L212.55 223.281V218.271L207.54 221.161Z" fill="#F5EDFF" stroke="#5100CD" stroke-linecap="round" stroke-linejoin="round"/>
<path d="M217.58 221.161V226.18L212.56 223.281V218.271L217.58 221.161Z" fill="#F5EDFF" stroke="#5100CD" stroke-linecap="round" stroke-linejoin="round"/>
<path d="M212.56 229.051V224.041L207.55 221.141V226.151L212.56 229.051Z" fill="#F5EDFF" stroke="#5100CD" stroke-linecap="round" stroke-linejoin="round"/>
<path d="M212.56 229.051V224.041L217.57 221.141V226.151L212.56 229.051Z" fill="#DBC8F6" stroke="#5100CD" stroke-linecap="round" stroke-linejoin="round"/>
<path d="M207.54 221.141L212.55 218.271L217.56 221.141L212.55 224.04L207.54 221.141Z" fill="#F5EDFF" stroke="#5100CD" stroke-linecap="round" stroke-linejoin="round"/>
<path d="M136.9 335.66V339.64L140.88 337.34V333.36L136.9 335.66Z" fill="#F5EDFF" stroke="#5100CD" stroke-linecap="round" stroke-linejoin="round"/>
<path d="M144.87 335.66V339.64L140.89 337.34V333.36L144.87 335.66Z" fill="#F5EDFF" stroke="#5100CD" stroke-linecap="round" stroke-linejoin="round"/>
<path d="M140.89 341.921V337.941L136.91 335.641V339.621L140.89 341.921Z" fill="#F5EDFF" stroke="#5100CD" stroke-linecap="round" stroke-linejoin="round"/>
<path d="M140.89 341.921V337.941L144.87 335.641V339.621L140.89 341.921Z" fill="#F5EDFF" stroke="#5100CD" stroke-linecap="round" stroke-linejoin="round"/>
<path d="M136.91 335.64L140.89 333.36L144.87 335.64L140.89 337.94L136.91 335.64Z" fill="#F5EDFF" stroke="#5100CD" stroke-linecap="round" stroke-linejoin="round"/>
<path d="M141.95 338.601V342.581L145.93 340.281V336.301L141.95 338.601Z" fill="#F5EDFF" stroke="#5100CD" stroke-linecap="round" stroke-linejoin="round"/>
<path d="M149.91 338.601V342.581L145.93 340.281V336.301L149.91 338.601Z" fill="#F5EDFF" stroke="#5100CD" stroke-linecap="round" stroke-linejoin="round"/>
<path d="M145.93 344.861V340.881L141.95 338.581V342.561L145.93 344.861Z" fill="#F5EDFF" stroke="#5100CD" stroke-linecap="round" stroke-linejoin="round"/>
<path d="M145.93 344.861V340.881L149.91 338.581V342.561L145.93 344.861Z" fill="#F5EDFF" stroke="#5100CD" stroke-linecap="round" stroke-linejoin="round"/>
<path d="M141.95 338.581L145.93 336.301L149.91 338.581L145.93 340.881L141.95 338.581Z" fill="#F5EDFF" stroke="#5100CD" stroke-linecap="round" stroke-linejoin="round"/>
<path d="M146.99 341.54V345.52L150.97 343.22V339.24L146.99 341.54Z" fill="#F5EDFF" stroke="#5100CD" stroke-linecap="round" stroke-linejoin="round"/>
<path d="M154.96 341.54V345.52L150.98 343.22V339.24L154.96 341.54Z" fill="#F5EDFF" stroke="#5100CD" stroke-linecap="round" stroke-linejoin="round"/>
<path d="M150.97 347.801V343.821L146.99 341.521V345.501L150.97 347.801Z" fill="#F5EDFF" stroke="#5100CD" stroke-linecap="round" stroke-linejoin="round"/>
<path d="M150.97 347.801V343.821L154.95 341.521V345.501L150.97 347.801Z" fill="#F5EDFF" stroke="#5100CD" stroke-linecap="round" stroke-linejoin="round"/>
<path d="M146.99 341.52L150.97 339.24L154.95 341.52L150.97 343.82L146.99 341.52Z" fill="#F5EDFF" stroke="#5100CD" stroke-linecap="round" stroke-linejoin="round"/>
<path d="M131.86 338.601V342.581L135.84 340.281V336.301L131.86 338.601Z" fill="#F5EDFF" stroke="#5100CD" stroke-linecap="round" stroke-linejoin="round"/>
<path d="M139.82 338.601V342.581L135.84 340.281V336.301L139.82 338.601Z" fill="#F5EDFF" stroke="#5100CD" stroke-linecap="round" stroke-linejoin="round"/>
<path d="M135.84 344.861V340.881L131.86 338.581V342.561L135.84 344.861Z" fill="#F5EDFF" stroke="#5100CD" stroke-linecap="round" stroke-linejoin="round"/>
<path d="M135.84 344.861V340.881L139.82 338.581V342.561L135.84 344.861Z" fill="#F5EDFF" stroke="#5100CD" stroke-linecap="round" stroke-linejoin="round"/>
<path d="M131.86 338.581L135.84 336.301L139.82 338.581L135.84 340.881L131.86 338.581Z" fill="#F5EDFF" stroke="#5100CD" stroke-linecap="round" stroke-linejoin="round"/>
<path d="M136.9 341.54V345.52L140.88 343.22V339.24L136.9 341.54Z" fill="#F5EDFF" stroke="#5100CD" stroke-linecap="round" stroke-linejoin="round"/>
<path d="M144.87 341.54V345.52L140.89 343.22V339.24L144.87 341.54Z" fill="#F5EDFF" stroke="#5100CD" stroke-linecap="round" stroke-linejoin="round"/>
<path d="M140.89 347.801V343.821L136.91 341.521V345.501L140.89 347.801Z" fill="#F5EDFF" stroke="#5100CD" stroke-linecap="round" stroke-linejoin="round"/>
<path d="M140.89 347.801V343.821L144.87 341.521V345.501L140.89 347.801Z" fill="#F5EDFF" stroke="#5100CD" stroke-linecap="round" stroke-linejoin="round"/>
<path d="M136.91 341.52L140.89 339.24L144.87 341.52L140.89 343.82L136.91 341.52Z" fill="#F5EDFF" stroke="#5100CD" stroke-linecap="round" stroke-linejoin="round"/>
<path d="M141.95 344.481V348.461L145.93 346.161V342.181L141.95 344.481Z" fill="#F5EDFF" stroke="#5100CD" stroke-linecap="round" stroke-linejoin="round"/>
<path d="M149.91 344.481V348.461L145.93 346.161V342.181L149.91 344.481Z" fill="#F5EDFF" stroke="#5100CD" stroke-linecap="round" stroke-linejoin="round"/>
<path d="M145.93 350.741V346.761L141.95 344.461V348.441L145.93 350.741Z" fill="#F5EDFF" stroke="#5100CD" stroke-linecap="round" stroke-linejoin="round"/>
<path d="M145.93 350.741V346.761L149.91 344.461V348.441L145.93 350.741Z" fill="#F5EDFF" stroke="#5100CD" stroke-linecap="round" stroke-linejoin="round"/>
<path d="M141.95 344.461L145.93 342.181L149.91 344.461L145.93 346.761L141.95 344.461Z" fill="#F5EDFF" stroke="#5100CD" stroke-linecap="round" stroke-linejoin="round"/>
<path d="M126.82 341.54V345.52L130.8 343.22V339.24L126.82 341.54Z" fill="#F5EDFF" stroke="#5100CD" stroke-linecap="round" stroke-linejoin="round"/>
<path d="M134.78 341.54V345.52L130.8 343.22V339.24L134.78 341.54Z" fill="#F5EDFF" stroke="#5100CD" stroke-linecap="round" stroke-linejoin="round"/>
<path d="M130.8 347.801V343.821L126.82 341.521V345.501L130.8 347.801Z" fill="#F5EDFF" stroke="#5100CD" stroke-linecap="round" stroke-linejoin="round"/>
<path d="M130.8 347.801V343.821L134.78 341.521V345.501L130.8 347.801Z" fill="#F5EDFF" stroke="#5100CD" stroke-linecap="round" stroke-linejoin="round"/>
<path d="M126.82 341.52L130.8 339.24L134.78 341.52L130.8 343.82L126.82 341.52Z" fill="#F5EDFF" stroke="#5100CD" stroke-linecap="round" stroke-linejoin="round"/>
<path d="M131.86 344.481V348.461L135.84 346.161V342.181L131.86 344.481Z" fill="#F5EDFF" stroke="#5100CD" stroke-linecap="round" stroke-linejoin="round"/>
<path d="M139.82 344.481V348.461L135.84 346.161V342.181L139.82 344.481Z" fill="#F5EDFF" stroke="#5100CD" stroke-linecap="round" stroke-linejoin="round"/>
<path d="M135.84 350.741V346.761L131.86 344.461V348.441L135.84 350.741Z" fill="#F5EDFF" stroke="#5100CD" stroke-linecap="round" stroke-linejoin="round"/>
<path d="M135.84 350.741V346.761L139.82 344.461V348.441L135.84 350.741Z" fill="#F5EDFF" stroke="#5100CD" stroke-linecap="round" stroke-linejoin="round"/>
<path d="M131.86 344.461L135.84 342.181L139.82 344.461L135.84 346.761L131.86 344.461Z" fill="#F5EDFF" stroke="#5100CD" stroke-linecap="round" stroke-linejoin="round"/>
<path d="M136.9 347.42V351.4L140.88 349.1V345.12L136.9 347.42Z" fill="#F5EDFF" stroke="#5100CD" stroke-linecap="round" stroke-linejoin="round"/>
<path d="M144.87 347.42V351.4L140.89 349.1V345.12L144.87 347.42Z" fill="#F5EDFF" stroke="#5100CD" stroke-linecap="round" stroke-linejoin="round"/>
<path d="M140.89 353.68V349.7L136.91 347.4V351.38L140.89 353.68Z" fill="#F5EDFF" stroke="#5100CD" stroke-linecap="round" stroke-linejoin="round"/>
<path d="M140.89 353.68V349.7L144.87 347.4V351.38L140.89 353.68Z" fill="#F5EDFF" stroke="#5100CD" stroke-linecap="round" stroke-linejoin="round"/>
<path d="M136.91 347.4L140.89 345.12L144.87 347.4L140.89 349.7L136.91 347.4Z" fill="#F5EDFF" stroke="#5100CD" stroke-linecap="round" stroke-linejoin="round"/>
<path d="M121.75 344.481V348.461L125.73 346.161V342.181L121.75 344.481Z" fill="#F5EDFF" stroke="#5100CD" stroke-linecap="round" stroke-linejoin="round"/>
<path d="M129.72 344.481V348.461L125.74 346.161V342.181L129.72 344.481Z" fill="#F5EDFF" stroke="#5100CD" stroke-linecap="round" stroke-linejoin="round"/>
<path d="M125.74 350.741V346.761L121.76 344.461V348.441L125.74 350.741Z" fill="#F5EDFF" stroke="#5100CD" stroke-linecap="round" stroke-linejoin="round"/>
<path d="M125.74 350.741V346.761L129.72 344.461V348.441L125.74 350.741Z" fill="#F5EDFF" stroke="#5100CD" stroke-linecap="round" stroke-linejoin="round"/>
<path d="M121.76 344.461L125.74 342.181L129.72 344.461L125.74 346.761L121.76 344.461Z" fill="#F5EDFF" stroke="#5100CD" stroke-linecap="round" stroke-linejoin="round"/>
<path d="M126.8 347.42V351.4L130.78 349.1V345.12L126.8 347.42Z" fill="#F5EDFF" stroke="#5100CD" stroke-linecap="round" stroke-linejoin="round"/>
<path d="M134.76 347.42V351.4L130.78 349.1V345.12L134.76 347.42Z" fill="#F5EDFF" stroke="#5100CD" stroke-linecap="round" stroke-linejoin="round"/>
<path d="M130.78 353.68V349.7L126.8 347.4V351.38L130.78 353.68Z" fill="#F5EDFF" stroke="#5100CD" stroke-linecap="round" stroke-linejoin="round"/>
<path d="M130.78 353.68V349.7L134.76 347.4V351.38L130.78 353.68Z" fill="#F5EDFF" stroke="#5100CD" stroke-linecap="round" stroke-linejoin="round"/>
<path d="M126.8 347.4L130.78 345.12L134.76 347.4L130.78 349.7L126.8 347.4Z" fill="#F5EDFF" stroke="#5100CD" stroke-linecap="round" stroke-linejoin="round"/>
<path d="M131.84 350.361V354.341L135.82 352.041V348.061L131.84 350.361Z" fill="#F5EDFF" stroke="#5100CD" stroke-linecap="round" stroke-linejoin="round"/>
<path d="M139.81 350.361V354.341L135.83 352.041V348.061L139.81 350.361Z" fill="#F5EDFF" stroke="#5100CD" stroke-linecap="round" stroke-linejoin="round"/>
<path d="M135.82 356.631V352.651L131.84 350.351V354.331L135.82 356.631Z" fill="#F5EDFF" stroke="#5100CD" stroke-linecap="round" stroke-linejoin="round"/>
<path d="M135.82 356.631V352.651L139.8 350.351V354.331L135.82 356.631Z" fill="#F5EDFF" stroke="#5100CD" stroke-linecap="round" stroke-linejoin="round"/>
<path d="M131.84 350.35L135.82 348.07L139.8 350.35L135.82 352.65L131.84 350.35Z" fill="#F5EDFF" stroke="#5100CD" stroke-linecap="round" stroke-linejoin="round"/>
<path d="M156.02 342.181V346.161L160 348.461V344.481L156.02 342.181Z" fill="#F5EDFF" stroke="#5100CD" stroke-linecap="round" stroke-linejoin="round"/>
<path d="M156.01 342.181V346.161L152.03 348.461V344.481L156.01 342.181Z" fill="#F5EDFF" stroke="#5100CD" stroke-linecap="round" stroke-linejoin="round"/>
<path d="M160 348.451V344.471L156.02 346.771V350.751L160 348.451Z" fill="#DBC8F6" stroke="#5100CD" stroke-linecap="round" stroke-linejoin="round"/>
<path d="M152.04 348.451V344.471L156.02 346.771V350.751L152.04 348.451Z" fill="#F5EDFF" stroke="#5100CD" stroke-linecap="round" stroke-linejoin="round"/>
<path d="M156.02 346.761L152.04 344.461L156.02 342.181L160 344.461L156.02 346.761Z" fill="#F5EDFF" stroke="#5100CD" stroke-linecap="round" stroke-linejoin="round"/>
<path d="M150.98 345.13V349.11L154.96 351.41V347.43L150.98 345.13Z" fill="#F5EDFF" stroke="#5100CD" stroke-linecap="round" stroke-linejoin="round"/>
<path d="M150.97 345.13V349.11L146.99 351.41V347.43L150.97 345.13Z" fill="#F5EDFF" stroke="#5100CD" stroke-linecap="round" stroke-linejoin="round"/>
<path d="M154.95 351.39V347.41L150.97 349.71V353.69L154.95 351.39Z" fill="#DBC8F6" stroke="#5100CD" stroke-linecap="round" stroke-linejoin="round"/>
<path d="M146.99 351.39V347.41L150.97 349.71V353.69L146.99 351.39Z" fill="#F5EDFF" stroke="#5100CD" stroke-linecap="round" stroke-linejoin="round"/>
<path d="M150.97 349.7L146.99 347.4L150.97 345.12L154.95 347.4L150.97 349.7Z" fill="#F5EDFF" stroke="#5100CD" stroke-linecap="round" stroke-linejoin="round"/>
<path d="M145.93 348.07V352.05L149.91 354.35V350.37L145.93 348.07Z" fill="#F5EDFF" stroke="#5100CD" stroke-linecap="round" stroke-linejoin="round"/>
<path d="M145.93 348.07V352.05L141.95 354.35V350.37L145.93 348.07Z" fill="#F5EDFF" stroke="#5100CD" stroke-linecap="round" stroke-linejoin="round"/>
<path d="M149.91 354.331V350.351L145.93 352.651V356.631L149.91 354.331Z" fill="#DBC8F6" stroke="#5100CD" stroke-linecap="round" stroke-linejoin="round"/>
<path d="M141.95 354.331V350.351L145.93 352.651V356.631L141.95 354.331Z" fill="#F5EDFF" stroke="#5100CD" stroke-linecap="round" stroke-linejoin="round"/>
<path d="M145.93 352.641L141.95 350.341L145.93 348.061L149.91 350.341L145.93 352.641Z" fill="#F5EDFF" stroke="#5100CD" stroke-linecap="round" stroke-linejoin="round"/>
<path d="M136.89 353.3V357.28L140.87 354.98V351L136.89 353.3Z" fill="#F5EDFF" stroke="#5100CD" stroke-linecap="round" stroke-linejoin="round"/>
<path d="M144.85 353.3V357.28L140.87 354.98V351L144.85 353.3Z" fill="#F5EDFF" stroke="#5100CD" stroke-linecap="round" stroke-linejoin="round"/>
<path d="M140.87 359.57V355.59L136.89 353.29V357.27L140.87 359.57Z" fill="#F5EDFF" stroke="#5100CD" stroke-linecap="round" stroke-linejoin="round"/>
<path d="M140.87 359.57V355.59L144.85 353.29V357.27L140.87 359.57Z" fill="#DBC8F6" stroke="#5100CD" stroke-linecap="round" stroke-linejoin="round"/>
<path d="M136.89 353.29L140.87 351.01L144.85 353.29L140.87 355.59L136.89 353.29Z" fill="#F5EDFF" stroke="#5100CD" stroke-linecap="round" stroke-linejoin="round"/>
<path d="M140.86 346.32L155.26 337.95L140.86 329.4L126.47 337.95L140.86 346.32Z" fill="#F5EDFF" stroke="#5100CD" stroke-linecap="round" stroke-linejoin="round"/>
<path d="M134.91 337.901L136.15 338.621C137.71 337.701 140.87 335.811 140.87 335.811V334.351L134.91 337.891V337.901Z" fill="#DBC8F6" stroke="#5100CD" stroke-linecap="round" stroke-linejoin="round"/>
<path d="M140.86 334.351V335.811L145.58 338.621L146.82 337.901L140.86 334.351Z" fill="#F5EDFF" stroke="#5100CD" stroke-linecap="round" stroke-linejoin="round"/>
<path d="M145.58 338.621L140.86 335.811C140.86 335.811 137.7 337.691 136.14 338.621L140.86 341.361L145.58 338.621Z" fill="#F5EDFF" stroke="#5100CD" stroke-linecap="round" stroke-linejoin="round"/>
<path d="M140.86 352.52V346.32L155.26 337.95V344.26L140.86 352.52Z" fill="#DBC8F6" stroke="#5100CD" stroke-linecap="round" stroke-linejoin="round"/>
<path d="M126.47 343.97V337.95L140.86 346.32V352.52L126.47 343.97Z" fill="#F5EDFF" stroke="#5100CD" stroke-linecap="round" stroke-linejoin="round"/>
<path d="M192.46 103.06L156.22 82.0101V49.3301L192.46 70.3701V103.06Z" fill="#F5EDFF" stroke="#5100CD" stroke-linecap="round" stroke-linejoin="round"/>
<path d="M191.45 89.7302L185.88 86.4902C183.89 85.3302 182.27 82.7802 182.27 80.7902C182.27 78.8002 183.88 78.1202 185.88 79.2802L191.45 82.5202C193.44 83.6802 195.06 86.2302 195.06 88.2202C195.06 90.2102 193.45 90.8902 191.45 89.7302Z" fill="#F5EDFF" stroke="#5100CD" stroke-linecap="round" stroke-linejoin="round"/>
<path d="M151.51 52.0201L156.22 49.3301L192.46 70.3701L187.75 73.0601L151.51 52.0201Z" fill="#F5EDFF" stroke="#5100CD" stroke-linecap="round" stroke-linejoin="round"/>
<path d="M189.56 92.7002L189.38 92.8002C189.44 92.7702 189.5 92.7402 189.56 92.7002Z" fill="#F5EDFF" stroke="#5100CD" stroke-linecap="round" stroke-linejoin="round"/>
<path d="M187.75 105.75L192.46 103.06V70.3701L187.75 73.0601V105.75Z" fill="#DBC8F6" stroke="#5100CD" stroke-linecap="round" stroke-linejoin="round"/>
<path d="M187.75 105.751L151.51 84.7005V52.0205L187.75 73.0605V105.751Z" fill="#F5EDFF" stroke="#5100CD" stroke-linecap="round" stroke-linejoin="round"/>
<path d="M186.73 92.4206L181.16 89.1806C179.17 88.0206 177.55 85.4706 177.55 83.4806C177.55 81.4906 179.16 80.8106 181.16 81.9706L186.73 85.2106C188.72 86.3706 190.34 88.9206 190.34 90.9106C190.34 92.9006 188.73 93.5806 186.73 92.4206Z" fill="#F5EDFF" stroke="#5100CD" stroke-linecap="round" stroke-linejoin="round"/>
<path d="M186.73 92.4206L181.16 89.1806C179.17 88.0206 177.55 85.4706 177.55 83.4806C177.55 81.4906 179.16 80.8106 181.16 81.9706L186.73 85.2106C188.72 86.3706 190.34 88.9206 190.34 90.9106C190.34 92.9006 188.73 93.5806 186.73 92.4206Z" fill="#DBC8F6" stroke="#5100CD" stroke-linecap="round" stroke-linejoin="round"/>
<path d="M185.77 93.0202L180.2 89.7802C178.21 88.6202 176.59 86.0702 176.59 84.0802C176.59 82.0902 178.2 81.4102 180.2 82.5702L185.77 85.8102C187.76 86.9702 189.38 89.5202 189.38 91.5102C189.38 93.5002 187.77 94.1802 185.77 93.0202Z" fill="#F5EDFF" stroke="#5100CD" stroke-linecap="round" stroke-linejoin="round"/>
<path d="M194.96 88.9502L192.71 90.2302L190.25 91.6302C190.13 92.1102 189.89 92.4602 189.55 92.6902L191.82 91.4002L194.09 90.1002L194.27 90.0002C194.6 89.7702 194.85 89.4202 194.97 88.9502H194.96Z" fill="#F5EDFF" stroke="#5100CD" stroke-linecap="round" stroke-linejoin="round"/>
<path d="M192.37 83.1699L189.82 84.6299L187.75 85.8099V85.9399C188.64 86.7199 189.39 87.7499 189.85 88.7999C190.16 89.5199 190.35 90.2399 190.35 90.9099C190.35 91.1799 190.32 91.4199 190.26 91.6399L192.72 90.2399L194.97 88.9599C195.03 88.7399 195.06 88.4999 195.06 88.2299C195.06 86.5599 193.92 84.4899 192.37 83.1799V83.1699Z" fill="#DBC8F6" stroke="#5100CD" stroke-linecap="round" stroke-linejoin="round"/>
<path d="M192.37 83.1699L187.75 85.8099L189.81 84.6299L192.37 83.1699Z" fill="#F5EDFF" stroke="#5100CD" stroke-linecap="round" stroke-linejoin="round"/>
<path d="M175.97 72.7201L173 79.3201L175.35 80.4901L170.74 85.7501C169.33 87.4001 166.71 87.3601 163.9 85.7301C159.48 83.1601 155.96 77.6001 155.96 73.1801C155.96 70.3601 157.45 68.6101 159.91 68.6301H167.85L167.65 70.8601L175.98 72.7301L175.97 72.7201ZM163.46 82.9701C166.2 84.5601 168.46 83.6501 168.46 80.8701C168.46 78.0901 166.19 74.5501 163.46 72.9601C160.68 71.3501 158.46 72.3201 158.46 75.0601C158.46 77.8001 160.69 81.3601 163.46 82.9701ZM163.46 76.7101C163.46 77.4101 162.87 77.6201 162.21 77.2301C161.51 76.8201 160.96 75.9601 160.96 75.2501C160.96 74.5901 161.51 74.3201 162.21 74.7301C162.87 75.1201 163.46 76.0401 163.46 76.7101ZM164.09 80.8301C163.74 80.6301 163.46 80.1901 163.46 79.8401C163.46 79.5301 163.73 79.3701 164.09 79.5801C164.4 79.7601 164.72 80.2601 164.72 80.5701C164.72 80.9201 164.41 81.0101 164.09 80.8301Z" fill="#5100CD"/>
<path d="M368.96 310.26L360.59 323.88L372.07 339L396.67 346.76L419.98 342.62L428.34 329.01L416.86 313.89L392.26 306.12L368.96 310.26Z" fill="#F5EDFF" stroke="#5100CD" stroke-linecap="round" stroke-linejoin="round"/>
<path d="M393.92 296.63L418.52 304.39L430 319.51L421.64 333.13L398.33 337.27L373.73 329.51L362.25 314.39L370.61 300.77L393.92 296.63ZM380.01 306.73L374.73 315.33L381.98 324.88L397.52 329.79L412.24 327.18L417.52 318.58L410.27 309.03L394.73 304.12L380.01 306.73Z" fill="#F5EDFF" stroke="#5100CD" stroke-linecap="round" stroke-linejoin="round"/>
<path d="M362.25 314.39L360.59 323.88L372.07 339L373.73 329.5L362.25 314.39Z" fill="#F5EDFF" stroke="#5100CD" stroke-linecap="round" stroke-linejoin="round"/>
<path d="M398.33 337.27L396.67 346.76L419.98 342.62L421.63 333.13L398.33 337.27Z" fill="#DBC8F6" stroke="#5100CD" stroke-linecap="round" stroke-linejoin="round"/>
<path d="M373.73 329.5L372.07 339L396.67 346.76L398.33 337.27L373.73 329.5Z" fill="#F5EDFF" stroke="#5100CD" stroke-linecap="round" stroke-linejoin="round"/>
<path d="M421.63 333.13L419.98 342.62L428.34 329.01L430 319.52L421.63 333.13Z" fill="#DBC8F6" stroke="#5100CD" stroke-linecap="round" stroke-linejoin="round"/>
<path d="M380.01 306.729L378.35 316.209L393.08 313.599L394.73 304.109L380.01 306.729Z" fill="#DBC8F6" stroke="#5100CD" stroke-linecap="round" stroke-linejoin="round"/>
<path d="M408.62 318.51L410.27 309.02L417.52 318.57L413.53 324.96L408.62 318.51Z" fill="#F5EDFF" stroke="#5100CD" stroke-linecap="round" stroke-linejoin="round"/>
<path d="M376.97 318.299L378.35 316.209L380.01 306.729L374.72 315.329L376.97 318.299Z" fill="#DBC8F6" stroke="#5100CD" stroke-linecap="round" stroke-linejoin="round"/>
<path d="M394.73 304.109L393.08 313.599L408.62 318.509L410.27 309.019L394.73 304.109Z" fill="#F5EDFF" stroke="#5100CD" stroke-linecap="round" stroke-linejoin="round"/>
<path d="M293.57 208.63L242.82 239.05L256.33 246.85L307.93 216.84L293.57 208.63Z" fill="#F5EDFF" stroke="#5100CD" stroke-linecap="round" stroke-linejoin="round"/>
<path d="M266.35 214.229V233.649L285.32 222.629V203.199L266.35 214.229Z" fill="#DBC8F6" stroke="#5100CD" stroke-linecap="round" stroke-linejoin="round"/>
<path d="M261.39 211.359L266.35 214.229V233.649L261.39 230.779V211.359Z" fill="#F5EDFF" stroke="#5100CD" stroke-linecap="round" stroke-linejoin="round"/>
<path d="M280.05 200.18L261.39 211.36L266.35 214.23L285.32 203.2L280.05 200.18Z" fill="#F5EDFF" stroke="#5100CD" stroke-linecap="round" stroke-linejoin="round"/>
<path d="M250.64 163.72V232.31L317.65 193.4V124.75L250.64 163.72Z" fill="#5100CD" stroke="#5100CD" stroke-linecap="round" stroke-linejoin="round"/>
<path d="M250.64 217.79V232.34L317.65 193.43V178.82L250.64 217.79Z" fill="#DBC8F6" stroke="#5100CD" stroke-linecap="round" stroke-linejoin="round"/>
<path d="M233.1 153.6L250.64 163.72V232.31L233.1 222.18V153.6Z" fill="#F5EDFF" stroke="#5100CD" stroke-linecap="round" stroke-linejoin="round"/>
<path d="M299.01 114.09L233.1 153.6L250.64 163.72L317.65 124.75L299.01 114.09Z" fill="#F5EDFF" stroke="#5100CD" stroke-linecap="round" stroke-linejoin="round"/>
<path d="M276.29 191.71V194.92L274.35 197.99L267.68 201.86L265.91 201.12L267.99 197.84L269.2 198.35L272.81 196.25L273.25 195.56V194.61L272.98 194.5L267.99 197.11L266.22 196.37V193.18L268.16 190.11L274.45 186.45L276.15 187.16L274.07 190.44L272.92 189.96L269.68 191.84L269.24 192.53V193.46L269.51 193.57L274.51 190.95L276.28 191.69L276.29 191.71Z" fill="#F5EDFF"/>
<path d="M288.08 184.86V188.07L286.14 191.14L279.47 195.01L277.7 194.27L279.78 190.99L280.99 191.5L284.6 189.4L285.04 188.71V187.76L284.77 187.65L279.78 190.26L278.01 189.52V186.33L279.95 183.26L286.24 179.6L287.94 180.31L285.86 183.59L284.71 183.11L281.47 184.99L281.03 185.68V186.61L281.3 186.72L286.3 184.11L288.07 184.85L288.08 184.86Z" fill="#F5EDFF"/>
<path d="M300.26 171.46V182.94L297.22 184.7V180.23L293.2 182.56V187.03L290.16 188.79V177.31L293.2 175.55V179.85L297.22 177.52V173.22L300.26 171.46Z" fill="#F5EDFF"/>
<path d="M280 159.92V161.8L270.61 171.58V168.63L275.77 163.31L270.61 163.99V161.04L280 159.91V159.92Z" fill="#F5EDFF"/>
<path d="M281.01 167.48L290.22 162.13V164.16L281.01 169.51V167.48Z" fill="#F5EDFF"/>
</svg>
